<mxfile host="65bd71144e">
    <diagram id="CWluQtHCxssCxCEmBIEC" name="Pagina-1">
        <mxGraphModel dx="1613" dy="928" grid="1" gridSize="10" guides="1" tooltips="1" connect="1" arrows="1" fold="1" page="1" pageScale="1" pageWidth="827" pageHeight="1169" math="0" shadow="0">
            <root>
                <mxCell id="0"/>
                <mxCell id="1" parent="0"/>
                <mxCell id="2" value="" style="shape=image;verticalLabelPosition=bottom;labelBackgroundColor=default;verticalAlign=top;aspect=fixed;imageAspect=0;image=data:image/png,iVBORw0KGgoAAAANSUhEUgAABBMAAAL3CAYAAADYww3zAAAAAXNSR0IArs4c6QAAAARnQU1BAACxjwv8YQUAAAAJcEhZcwAADsMAAA7DAcdvqGQAAP+lSURBVHhe7P37lxTlvff/f/8B1yLxNkQJ20B01NHIKKgwHiCQQZCTHOQkAjJyEBjOh0FREDk4IrCZgAJBDG6UhOzRoLInkYOCxAEiGQUF4QZRemcMfCByx+y1s7Jc6/2tq+qq7qrqq7qreg4Mw/OHx1K6ru6prqrurverruuq/98V32suAAAAAAAAUREmAAAAAACAWAgTAAAAAABALIQJAAAAAAAgFsIEAAAAAAAQC2ECAAAAAACIhTABAAAAAADEQpgAAAAAAABiIUwAAAAAAACxECYAAAAAAIBYCBMAAAAAAEAshAkAAAAAACAWwgQAAAAAABALYQIAAAAAAIiFMAEAAAAAAMRCmAAAAAAAAGIhTAAAAAAAALEQJgAAAAAAgFgIEwAAAAAAQCyECQAAAAAAIBbCBAAAAAAAEAthAgAAAAAAiIUwAQAAAAAAxEKYAAAAAAAAYiFMAAAAAAAAsRAmAAAAAACAWAgTAAAAAABALIQJAAAAAAAgFsIEAAAAAAAQC2ECAAAAAACIhTAhkp7y7M4TsmvVSMkzLq9fhYv2yPGz38rpw1tkVL65DQDU1vBfHZPT5y/I8Z0rpLNh+aWsc9kH8vHedfIQ36EAAAB1ogHDhKtl+D395IvJJfKvJ6eJuIYXGto2Jj3licrTkjj/jXy0qeSihAnP7v5Was4rX8jGYnObMM5z4z8PwOXmcdn4uftdUyXPGtuEa9zfNQUyav1hOWm9t5O7GyAouaqbjF6+QcpmD5DmpuU+LaRw4hpZWj5furYwLQeAhnfT8OWydNUGGd/VvBwAlAYLE7p1fMQfIlwiYULnVdWSOH9BqjdfnCBBqU3PhKYRJqSKnKMV0/3L8hfJOzXOskObH/cvs+TNe19O2cWR4blWgTGr8oyzbGtp+v7NXyBbE9Zzz56QjWML/MsiSgVBJp6CraxKP3ZBdq8sCryOfv+fV8hw+98rZLtqaxVF/naO4Zu/sF7H3ee5b7t4hsnaQ85r1Zw9KEs7Bpd7C1XXBTn11XHZ88bLMr5X+PbNvA8dznsOvP6ZM/L5p/tk7Zz+qX1bXCGHgu1MPNs28j7M8B63vzJPups+u/n9ZcYr++TgqTNy2m1/8jN5c81Mc/t6VpueCY3/u6ZARm0+0SDf59f0eUbKVq2R0Z1aGJf7XDtIppRvkMUTu0kz0/L68pOe8tj81bJ4Sm/z8oA2QxbLU8vKZNCt5uWN0bU/nyGlS9fKuDovhu6RfnNXyML5Y+Qm43LUlfrbh3Hp0M8qrpeuKpdh7UxtLF2ftNvMHX6HebnXrWNkrnq9adE+gw3t4oQJfLaAS00DhQk3yVuTVHjwuFQV5sm9V5raNEIDX5X9VhGfOFJxyQ4vaBQn+F3nypbDx3IuyH1FWrKgduRZRXhCF27pBXGBPPHuOan5skq2f2y1+bJSJvqWWzoulUoVGJw/I1vnetcvFTQc2pJ74RE/TLCcfFvGeV6jrsKEeNsupoGvyUfW6+zZXWUX/ntWhQQi+u+lOXtCtszqGXiOEmEfWoxhQpKneGzwMCEl7Yp4xwXy5okLxrZK7QOehtX4wwRlmLz4sdrm9bmed8uw56wC4bkJ0sa43K9NcXnm4qS+xCxkOk1TRdTySypMqL9iqLeMV9tuIQVPfWs0V8d1b6Nnpj0pM631eWb0feZ2hAm1xGcLuNQ0UJhQKNWqF8K4IulnXN4Y6SLmfEK2TMu1CL74LvYJft7QdbJbF+u7Vz5sbJOdUzwfqjooR33vpcB6fxfk1Lvvy05T8ZVvPe/st3Jsa6n0feVzax1qrH3pWa4VLvrA7v5ck7AKQ/2jmXzs89/VKkiKvP11mHD40OdWMX5O3pnnPeZqEybkuO1icv5mtSzvqns77F8nhb42wfdgye8i3cYvk80HndCmJvGBzAv2aIi4D/3v2dGmaLSUbna6tofuAzdcCNmWSvTPkBsmeAIG6z2OXPGBfGa9h+BruAHIyYMVUjqkSzKwalM0RRZU/Fl2/+oyDhP05yHScRlhH/ro9gnrGK2P4Q7NOs2UxavWy5Q+1xuX+7jDIUoHyTWm5fWJMKEWKHgaSmMJE5p1fVLKVv1Cht/1U+k7z9r3z5fI7YZ2hAm1xWcLuNQ0bJiQbUjDla1lfrehkpg5WQ+DmCz/mPyIvHV767QvlbG9xlrLx8pbec2l7fX3yf4Jei6GOZOkZug9Mry2vR8efFX2qxPOqpcCRVGIgWtk11cXJPHVB8mCtHYMVzkDV5aD2oxYLW9Wfyknz+j2Z8/JKfv/DSf4+SPlqc375GDim2Tb45/ukfIJpqvDuek8q1KqVRF19rRsnVeb19UF8eaXZPNJT4HR8SXZfTYhm0uc5YmdS33Pc668n5Otc61/6wJCFaXeNo6eViHkFLT21eNkb4UvZFPOvSkcccME9z0mPn5V+iaX10GYEHPbxaPXz1rnHjqksIMFXzBgCBNc+SWy8YhzhX7/+oG+ZVH3oSlMcBTIkr1qH3wr28uCyyz1HSbYzOvgvG7IemVS5981+njyylKYx/muyRtaJhv3HE+2TdR8LQd3vCyjM617fYYJ3yuSpVXqeFPHv2l5bbSWrrPXy9LlM6XwKtNyv+a95kcfDpFFs9b3SI9xaijCL+0CYOmqX8rCRYvl0Z5t5cpkO32inoVbPLjFREZpJ/0t5YaeU2XGkrXWe1NtrPWYP0uKbmnpaXOHDFpoLbOKqGs6TZW5K63/L18l47peL80KimXWCmsbWv+e2t8tyHT7px6Ra6/9mfSd/rwsVM9ZtV4WL5kvgwo9wY0u5jJ7Ujol1yUqvQ7G10tJKyKbt5Uia7/MU+9JtSlfKwvStkdumrXu4tkWG6RsxUqZPLyLtAwce85+tN7zVTfKncPnJ9fFbj+40HN8WPT2Sy8g9fv37G87YLL+fXPBIzJ1qXrNX0rpw3dJs2t7y5gydRz+UuaO6eqbN+TKW3rJIGudF/i2x1zpe8+NqWE+Oe7DK2/pL4/OXSmLy502zy17Xsb4jv9ctbDeq7W+y2dIe+vfzvZUwYKhbWMJE6x9XdDP+hwuekme09vsuWUrZMa4/nJD8/T27rGU3C/Wvlus/z94LETahzbn+2bxhK7S7Ka+nn3jfCd0ucn93svxs6WO58FzpdT9zrPWY97sMXJn6+D3qf7eU9s58Bl4rizw/aE1u+kB+z2mPlurpbRkqNx6rb8dgPoMEwqH6EAgEycMsNtfebO8NXGqoY0yVf7S62bfCYsbJrzXa5D8fU76c/4xuF2tUs0e64/YJ7Pp3bXN3KuMyke/Gm5sE0+8MEHNVK7mVfC1Twqe4LtdfQ1tswQW0RTIQ6sOOOuTOCwv1rIgTxXEjzvbWa9j4cqDkrCHBJiKa13U1rwvT9g9C/T2DOkmf0VX6zXsAOGcfHai9sMbXPHDhMf1FXhvoRMsxE3vN8UcJsTZdjHpYu6jV4bZ/3aHT/g/OxnCBEvhqmr7/dfsLfds8+j7MDxMKJLl+63nnL8glYuCyywNEiaY18H9zkgcqZQZGeaMCHKfp9TNd40+BrwybI9Y3zV6qJipbcagoF7DhNQxGun142g3QeZbJ57zi+82L/eJNxwis0wn495eEvUdJrSW9uP+XYcIQS/JuJ+31u3cwnSJzFzuaTNvvkxe5vm3Lt6S7Z9fKk94l7vKl0ifG/Q6NKYwwSqqx5vW1/aStZ0j9F4Jc+vDMj3ktcsWFPvOf5z9uEaeXvJSWlv1+Piu7n6xxA0Tllv70Ltdli+QyU+5Bali7ZufuK+R6fgrt4pzXQTmsA+b3zdVntYhQtDCKT0iTISawVXWenvnNdEhgHGoQyMJEzJ9doM9oVSAV6qLZhP/sRBxH3rbLrQ+t6Z9s8z6fNvBVw6fLes5PZ80Hc+W8qUywNeDSq/HjHEyYL4btnrbe74/lBsekZkhx1Kk/QpcZhpNmOCEA9Pku4kPyqLWLZ0fqx9cK5O7PCL/UG3njJRXPYmg217516SB8tINznPa3txT/qLChVkDAif08czbqYrtE7JhuHl5muINsrdOrxZ6ZS7EkhPpnf1adq2ZIp302Nu8e/vLyj+qE/fACf7wLVKtTr4/2iQD7tVFTH4XGTD9Zdm253Xz34isg4zZrCZxs4qkEzvlibrYFnp97RN/u3D4XNYOdAo0pxgwFMS6e3zCeswtTsdVJKxtoa9yu+08Or9wIDnRX81Jq2Ctg3ky3KvPRt796S2eOlrrbu3PU9a6O71iahEm5LLtYkor5O1eD9Zr2j0V3HZZjmG3IPQuj7EPTWGCM1xAD3NIBhIBkcOEEL73kx4m5N07IjXUIrFTZnnXIb9ENhxO9Qz6eE+FLBidGu4Qql6/a7IcDzG/a4ZsOmG/vw83jJD2+r2rbTJpzR7ZnmkYRz2HCVd0XCd71HPShuPUhntXhsCJaQh3OMTMh35qXB7PHTJgznPyaL+Okvdv+or3Va0kv998WahOgtUV/eBzYhYyUYY5NLtvhv33yhZMl45tWjmFl1qPoulOMZEMTjzFw3NT5I7md8mQxfrfy6wi8drrpccT6t9WUXBzoH35v8u4nh3kanV1tfktUjTNKShMhZ1bUKUXxrXlFkmZumK3traZM2HfwtlD5ad6vzRr0UY6jF7qBC7Lpsodac+L4qfSxy7YX5LJgzpKK32l+cq8jtJ3ttoe62Vyr1RAkCos18uCGUMlv4VV8Fn75bZRzuNlVrGdfO24YYJ63fJnpId13tZlhvvvpTKooKXcMfYX9t8c93P3NXrLmIVzZVBRB2mp1kE9Zu1Dd3uoK9ipv+eItA+v6irFKlix/u6oojvlB3aB2kJ+0KaXjFqgtlPt5iRxhjist9bBLZR1EJgMuzwaS5jw8AKZNW6odU58ne6ZobbHUB3WeQMePWxD9Sopvl9+ktwv18mdj60wbPs4+9ATPCxbJIM6trH3TbMW98kQe79skCl9PEGW9zkZP1vNpfVDS+y/t3D2SGmbp7/zrPVoO8j5zvPfScezHqrH0/D7nc/MVTdKF/39MfOh/ORr5z281H5s2iBnfdVj6nPbtt8smTCYMAEIaiTDHApkx3QVGAyXl9NujXW1zO7/uB0aHP1ZqlugGyb8bWh76eMb0nCDvDFRhQxDZGXysbgekw1H1Ilx8ArjxZK5EHOvsplmujdeVXWLvcRh2eid6b628vvLkp1f2+ty8uBrMqauJhTTxYJzpdvZFvs3b7Heg/u+SmXLl/7CwL7yfv6CbC/zXPGdVinHrNc5Vbkg9ZhXx3LZ+Ve1vbyFfO3kFCZY/3aKZlX4q+W1CBNy2HbxTLeHT/iPTfdK/BF58UH3sczHsClMiLMPvVfr02QaZlMvYYLBmWOywdhDp4MMXbFd9n2hQwXL6S/+LJufHVl3n8tYMh9bcb9rnH3ozAuRsfeFPv6zSYVi5uU+GcOFBbJVhSJhx2MuWgyQyd6rlxnFGw6Ruwwn5vUQJrSfoIrnMulrCFNuH60Ky2A4kLoq7rx+qheF/+/p9suXSN8Ct6DTWgySKep9LChO+8xc1DDBXa/nSuT2tH18vXQvVcVUSFf5bH7yiD0JoPFY03/XGxA422G9PD2hm39uDv06vmMghzDBLZzd7T1/9H32ekXe/hmOxUivcd8MWWy1mT3YEMzdVSLPWMueePi29GWR6M9quRomknrcOZ7XSPF93raWRhImhEn7HOt1MN3GNtbnx/he9OfkOet7Ljg8QO8XX5BlixIm5Eufp6w2xu/P1tZny1pWXir3JR/Tr2l9fwxoGxhe9PNSO5Tw7i9n+NkGWfikacgEgKBGEibo5WETNOpeDn/tdVPyMTdMqC4MtK0TblFwaYQJTiFl7sZtDBMs3q7KiZqE7NsR8apoJp4w4fThijoPE9yx5fb7PXtBEode0/MKBLePHhOddotCXTjX7JRZycdcRTJvp54I0Ba8u0NuwrZ/muCV2K7rZI+1f05aRXNe2vuLHyZE33YxlbwtR63XDxaX7rCF1BwIWf7O2N/JYfWectyHpjDhdOJL2bct820no4cJEfah+x4D61Fz0lrXIlN7rwJpP3qZbNxzKnmLyItzO9oox1ac75qe8qz+TlDPU7e93LZ5mYx0e0S5GjxMqOVxb+CceEe8AqpPvKMNh4jGHeObGvPs0SBhwm0yYIHnbxq5V6ndMCHVVd15/eC/A2GCscDQvRoMy2IVQ7FEKHj09jVdbVdqtW66APJv2wBPuOL8LdO+0+/DewzEDhNSrxv8O6b3eE3bofKouvWfqVu94ViMsp3cK8mZpBetEemQMK3Y1sVw2v5tLGHCVW3k3uFz7dtqph8rnmNBr68pbAnb9tH3oeH4cl3VVyYal0UJE3rIuJBhCClucKlEeU2v66XTlFV6u6l5WRbLmOG9nB49xvbA5a1xhQnFnaSjaTlhQsYTX+cE39x9P2Mh1G60zH7lHdnzqXuPexUCbKnlbTA7+IY5PB1jLHioRR+IKkaSE9XpYsIdo5+2fdyeF/o9pUvfVsm7N5yslKfWVNt/L61beg5yDhOs4tK+m4hdTAf3vy74fMMIUkZt+TL1N+Nuu5icHhTqPYZIrmPmv+PME2EdM+5EkDH3oS9A0Y9FUi9hgv7eUHdyWHPQPq7i3F62zcTfOROX5vJ+ai1KmBD/u6bNiGdl7RvVqQlfz38jH23KEJakfR4yiLAP0+lQKsfjPo17V4anHpHWpuU+8YZDRHJrsXlMsst0El3nYYIbEGRSH2HCfTL8efOyKIVobqKHCWG3EKzVuukCMKNGGCY0/3mpM+wmjOFYjLKd3DaZ5BomuFepTa9pCw51aBRhwh0yQA8jMPMcC3p9vd38XaZtH28fZggT3J47acuiFP66TUa1CRMcV97SVfoWP5Oa4NGdYNTQFricNZIwoZ3snWUtn/OIrP1hcJk7zGGqVBdenXy8fsME98Q4xpwJ9SpzIRY6WWRyUsEIRUm70VJe5VyZD86oH18dT8CoC4vwWe/928ftWu0ULWa+bvLJuze4vRFSE1Qe3Vpaq6vDuYcJlmThvyiw/3XBZ5wHYJisPaT+pj52Y247c5sweoiDWpdQ7lCHDH/HM/mle0vMuPuwUYYJtiLr+eoWsxELY1uWO1DUq8xhQl1817QZ8bK+Xax3GExAfYcJ7pwJvgk/cxfrrgyxhkNE43S59o/Nd2Q4ia7zMMFt84x0TxuuGFSHYYKe9HJp6aDaddOOJUJx4g4hME6w6Q5zyLw9Q2UJKoKc7WD6W/p9eI+BkCvV1xSWOIGV5z3HCxN09/NV6+WJ0Z6x+UqGYzHSPtTrnD7+vrb0EAe1bqECQx0aQ5ige00sXTZfetzuzpngSPsc6yEiacfSVXfJIB1IpLZ93H1oOL40N6RJP4ajFP76+yDs9pxporxmZlfeYppvAoDSSMKEq2Xx0El2OPCv8b09EzBeJ4t6jXQmYJz1kCz2zI1Q32FC6ElzGOtkuvIrqwA989+yrazubq/oyFLw6a7mNYmDUj6ig/VYB+nzdIV8aJ+wK4ET/EW7nMnexvdPTopmT8D4C2cCwuhFT2Z1dmvIqAWxXcS5t30LKVTcCeSShXhqeIMzpEC3S85CX7vbQ9YqTHDfy8mDstu3/wfKix+r170gx/e+nOwybk/2t/WE2EW4faeG1OtG23am5Rno4y5sDgq3t4HTCyL9GFaT9o1e8rY9maBqlziyRS+Luw8bc5hgcY8l35CNx2Xdnn2ycckU6VWkPrPO48422al7JoS8/3r9rskcJsT9rpn3+xOyffMyGd0rNYRKHafL9qqAJcM2recwIW/e+3X4XacnMIt4V4bWg8usE9LaTQgXdN8U56R/7qj79IRhLeXq29Xt25Y7t4UznUS7xW75Uhne8Zast89z5kNwAouw7r5ugfDc/CnS8fYbk5OXpcsxTHh+mtxznVsctZRW7UfKRPuWhIE7EmjXPrTEXueyBSXSwZ2krU50lWL7LhQvyeR+7oR/Qe7Eds6kh6kJGO+Uoin6jhfzRkboyWKiJwAsXyUTB3km3QwRK0zQxeXShVOc8eJqAs2epfK02/Ml5zDBHQazRib21seb9do/aT9UHn1adyk3FJ2R9qEO6JauLJOR3okBa8t9XdMEphZnEtVAMNgYwgR3GMzCCXKb3hZX/lsH6Th8rnMbVu+x4L5H9T1g39pRTdTYX8YtSYUoqTAh7j7Ux9cTIySvlXdC1in67hGmYzLKZ6u5tCkut9qoz9ZIzySTYeKFCfdNeEEmDO8lP3XX2aImYOw2Q30HmtYZuLw1kjDB0sJqM9Nqo9oFzZkgfyr8sa99fYcJVwx8TT5SJ6jJseVZ6O7k9gm1cUx+TPpkOpy3YAm51eOZY1K519PlPcprnz0hG+IWZBnkDV2nr0Kekd0rHza2ycYNdiIVxO4Vx5AhAOqqr327QX0VPDm8wTCkYfgmXZh//ruch344hWgYzz4MKZ7yplU6xZviLcTHVuiC08Dahxt1ABJr2xmXh5u4tcZ6nrnLu80t8uzPkPt3zE4f256680fMfageq/8wIYx3u4VtywJrWznDQVI9XTJvj4xzJtTxd42z7bx/O8AXYsb7rsm07VLhkUG9hgl6CFFygtPacQsK4+RvQXo4RO5FpFlzq4CxC8AwxpNo944A6e1NV4HdOzWktfe99h3Sz3TrNVeybY5hguk1LQutAsY3saAr9BZvqb+TmxbSfoL5tnTeIrJZwZjw4SdW4TsgOJlkDM1/PksWhL22xbsPY4UJ7p0RAq+n1rdU7YOcw4TUv0OZiuqI+/CmwWVOcGaUWwHYvM8z9vNNQwBs+paRvokAdZgQxhcyuGFCGNP2iKKFtV7eW66m8W6PkGO5fJWMm7bQ/v/0YynQ1su3zvr4MlovTww3DRmI9tm6okUPGWMHientbKb1iBgmOMe1WfC2qwAaU5igtLhNtox4TP4+e6oOESbJ+bH95KXr039w6z1MSHZPTsiWaVGuTPeU5fvdk+z4hVmaWGGCpd00WbsvIafsK6Dn5Mg+Z/Z0Y5GV31/Gr9ku+46n5kpI1HwtB/e8Fut+95F1nStbDh9LFrhxRSkUnaKlStboif9ScwKkc2ekP/XH92SHDjoqF5l6oDwuG46ofWoVdptyu4JZ2zAhNWzBEuiZ0mbEanmzWu9ztfzMGTlcvV3K7CvGTps42y7eMetOhBhyy0WbWzCroi29eFbH3OHqPbJxyYRUDxmLO3ljpH347iK74G7cYYJF3+6z5uwReVEXsG1GLJONOz6Tw1+dS4YDzjbZLuWTM91lpW6/a+KFCZYY3zV5vWZK+TbrPSbnSrggp746LttfmSfdcwzoak3v80TVS3Vwx5Z4d2WINRwilpZya7+5qbG95Wtl3typ0uOOQumrZj0PO4m+9mfS1zBpoylMUCf513WfKjMWveQv2oKvfdWNcufgkInf6jRM+KUsXLRYHu3ZNuNVyWsKR8qE+atlsa8grW2YYLmqjXQZt1ieSo6ndgSvSDe7qa9/srqVL0np9JF1Mkv8lbf0D50IL+cwwdKsYLBMeFbvP3UszXZmtbf3SS3CBHVs3Fu8WOa5x5u9LcZIx1t6OFejQ4rnaPuwhbS8x9ROMb33bNwu/ea7kzjUNlHvxfOZbgxhguXKtkOtbeF+Vp1JBB/td4/cOlj19AhsD7Vfxj2vjyPrczV/lhTd0jL5XnzfB7H2oSFMsI6nBfPnSl+7F4Tndb0ifrauaN5WigztbKb1iBgmNGt9j/Twva61/ZY+LxMGd5GWEb7ngctNA4UJlyi3e3LEK9Od1xxyTpjromcCAITguyZXumdFXfXAumGkzLZONqPdlSHecAh46TAhYjEAoDEwh1UAmhbChCzcru4nd6+Qzobljg7Sabw7qVhg7D0A1Bm+a3JXIKM2q+/z3Hsa+bndcTNduUxxhwlEGg6BAMIE4NJDmABcDggTsuopz+5WE/SFjGF2u0lrcW4Bh0tIYD9n0/Cz8Nde1u7uPrXvXo+Y+K6pBXWHGec2nZmDYTROhAnApYcwAbgcECZE0lOe3XlCKl8wjGO2T/AbwThg1C/ChADChAbHd02tdC6rkkO7y9lulyTCBODSQ5gAXA4IEwAAAAAAQCyECQAAAAAAIBbCBAAAAAAAEAthAgAAAAAAiIUwAQAAAAAAxEKYAAAAAAAAYiFMAAAAAAAAsRAmAAAAAACAWAgTAAAAAABALIQJAAAAAAAgFsIEAAAAAAAQC2ECAAAAAACIhTABAAAAAADEQpgAAAAAAABiIUwAAAAAAACxNGiY0GbEatn26ddy6uy3UnP+C9lYbG4HAAAAAAAar4YLEwa+KvvtEMFFmAAAAAAAwKWowcKEIZtO2CHCyaqXZeS9BcY2AAAAAACg8WuwMGHezgtSc/6IvPigeTkAAAAAALg0NFiY8OxuNbShSp41LAMAAAAAAJcOwgQAAAAAABALYQIAAAAAAIilAcKEAmk/eqPsqflWak6+LeOMbQAAAAAAwKWiXsOE4Zu/sO/goJz+4s/y4lju4gAAAAAAwKWuwcKERM1R2Tyrp7EdAAAAAAC4dDTAMIcO0ufpSqk+yzAHAAAAAACaAiZgBAAAAAAAsRAmAAAAAACAWAgTAAAAAABALIQJAAAAAAAglgYOE47Iiw+alwMAAAAAgEtDg4UJQzadEHWLyJNVL8vIewuMbQAAAAAAQOPXYGHCFQNflf3q9pDnXV/IxmJDOwAAAAAA0Kg1XJhgaTNitWz79Gs5ZYcKhAkAAAAAAFyKGjRMAAAAAAAAlz7CBAAAAAAAEAthAgAAAAAAiIUwAQAAAAAAxEKYAAAAAAAAYiFMAAAAAAAAsRAmAAAAAACAWAgTAAAAAABALIQJAAAAAAAgFsIEAAAAAAAQC2ECAAAAAACIhTABAAAAAADEQpgAAAAAAABiIUwAAAAAAACxECYAAAAAAIBYCBMAAAAAAEAshAkA0Ajk9ZonG/d9KSfPfCs157+V7WXmdhddWZW9fjVnzsjBPa/J1K6GNgAAAGjyCBMAXFKe3a2K7S9kY7F5uU9xhRxShe/uFebljUX+AtmacEIEV6MPE7TEkS0y3NQOAAAATRphQhMwfPMXvpN7+wS/5ms5uP8dKZ/cX/IitPcJFl75/WXGK/vk4Kkzctpuc0FOnfxM3lwzU7rne9p9b4VsD76WavvVl7Jv22oZ2s7b1pJToVcgT7x7Tr92QjaX+Jd3fuGAnLKWJfavk86ex73c9390a2natsnM9P6+kZPHP5Ntm5elvz+LU/iGqZJnVbtplXJM/fvzivCirOM62aPanHxbxln/jr0PlXajpWzbZ3I48Y1u56z7mytGSxtPu8yvnSrisxf1RbJ8v9Xm+O9klHF5bppkmLDoA0lY65k4UimlAzqY28TUrO0iKVr3F5m+Q2TO+yKz3/2bjF6+Vq69xtw+ngJpP/pl2W0HIDWyZZqpDQAAAJoywoQmIHPxd0Gqt871FdaxCtGOC+TNExfM7SyHNj+eamsstj0SVvHs7RKdS6GXv0jeqflWju2ukv3Wc49tLQ20GSYvfqzW94xULioKLLN0tYrys2pddsosXxASRbb3d1CWDy3wPSdSmPC9Utnypfr357J2YOq5XoWrqu3nuNs7bpiQN3aLfKS7z6fzF+ZRw4RZlSrUyVTUPy4bP7eekykkyUFTDBOGbDphvadzsnWueXlsd2+QkZVOiBA0+7fb5Po6CRRSx2Wj7UUBAACAekOY0AQ4xZ+3uCqQ9r2myIKKw3LSLgBDCmtFd1n2hwIpbmF58mCFlA7pkryS36ZIvf6fZfevDGGCt3DL7yLdxq+WSh1IJKxlyd4AORR6edb6JuwrocNk7SHruV9WysRgu+ItUq0Cg5PWMl9gUCTzdp6x1uOc7Hyhp+fxqAzvr10PGTr95dT7C3T5jlr4TtxaYz//o1eGGZbrK/xhr5NlH17RcalU6i70Jw++LQvG99A9EazjZMgcKd+xT9Z5Xtfd59kKRKfdl7JprHl5Mkz4+FXpYVyem6YYJqR/hmujj9z3q+9kzvvfydT1r8l1ebdZj90m/+f+13TA8J2MLh0ZeE6O9LFHmAAAAHD5IUxoAsILkQIZtfmE3X06tKDLUoi6V9ajFQuGYts19ndyWC3zXqWOXegVWOtjFe01O2WW9W/nfZu6WFvve4tTEB/aUpIML/KmVcpR67FMQyAyy/D+ulrL7ILdf3U5cuFb8ra9bjWHXpO+wWXuEAfTMiXLPuz7yuf28sTHr8mgCL0x4oUJmdrpHhe1KOTbjFgtb1anJiWsOXtOTtn/b9im7nCcr845x7zldI3+/8spTCjaJhNUL4SK36f1QGg2Yr/MUMte/4208Dyes6hhQn6pvHbsG6k5c0w2jPX33gEAAMCliTChCchYiLiF6PkDssRUSGYpRN2CUY3lntErWxGQodh25wU4skWGuI/FDRPyrdc/+62ceneRExDo56cPdVBt9YR2Z4/Ii/bQAT384ewJ2ZBzwZbh/Vnc3gWHt5QkH4t+FX26bD6p2qYPdXC7kpt7LVgy7sPHZMMR9brRx7VHDRPSCsmBr8lH1r/3rHJ7wWTeXtl0LvtAjqseJuo10gS2aX6JbDjszgVhkGuYoN9jJqE9QmKoyzDhqinH7OEMo0uHeB5XPRPWy+D//KfMtoc7fCJ3eZ6TM719dr6Q5bvBsx1P71hibgMAAIBLCmFCE5C5ENFdzcOWZyxELd4i7ew5+XhPhSwYnRru4GcoHvO7yADPMABfQRwzTHCGOFywile3cNEFuO6pEGxfuOgDe5jHKev1H7SeqyZm9PZUiC9LcewWTJ7lbs8Oo8BcAuMqEvbj/tDAHeJwRF58MNXWJ+M+1OucnJ8hOzdMMPO8jv67+9cPtP/dY/0R+9+Jqpek0G7j/O2cim09N0bN2a9l15op0klPbpl3b39Z+Ue1Hv7j2e19cfrw257hOB2k05z/cnrERDzG0rj7NIPahgltBiyUCvUZPXtQlnY0t4njJwvOyJz3/ykPDXP+/f3Oq6T3xr/rEMF1Rh4oSn9ubA++as9dknXiyI4L5Lf0TAAAAGhSCBOagHoNE2wdZOiK7bLvi9SV39Nf/Fk2PzsyUJi7havZyYOvyihv74hYYUKRLK1SPQusYtbzGk5vgLCJ63pahbgKMb6R06prfE6TLnrVb5hgHOrg9izJNO/AxQoTdG8T5+86ocdHHx+RhLuPdKGZS7HtBEffytGK6WnL0nt76GPcVIzHHkrTgDxBRaLmhLw5L5d5PNI5YcIZ6TlE3c3hrMxyA4QdZ2XwxMly7y/rMExQQ4rW/1k+T07uGfY9BAAAgKaGMKEJyBwmlMim4xlO8iOFCS51O7hlsnHPqeQtIqs3e6/0G8KEs+fk+Kf7ZOMS/+0HbXEKvY4vye6z3qvemi5oT1Uu8Ld3DbQKWrurfIZJKCPLHCbkvXDAec9pYULUAssd6pDqheAOcUgNHTCopzAh6zAHvf/sv2sPQamRLWUqQNC9R/TyjOsewlmHC9Y+S1+Wvk31e/QOoXFdImFCzZn/lu2rguFcbpwwwe2B4IQIw55cJNfo+RPuWqMer5FuP0t/bnyECQAAAJcrwoQmIGOYoMex15z9QOYFlymxwoSUNhN/59wxwVTURS3cYhR6hSsPJifVMwoZ6pDqmRG9mA6X6f0VyBPvqlslfivVmx5LPh4vTEgV8s7QAXeIQ7Usz9T9PeM+dG87WQ9zJgzfItVWu8TOpXLF3J1yyt4Hzl027HBH79+sr2PgrIO5x0lomGDqvVHbMMFb8IeI+9nxUwHdy7Lbnt+jboY5tCj90gkRdv1dRi1ZJa2u9S6fJj3fVMsOSjvPc3Kmv18SR34nk4syDHMAAABAk0OY0ASEhwk9rcJL3QrRM2lhUI5hgiqClux1iqlUsVhfYYIe4qDahgob6tAwYULe2AodrvgnUIwbJiS3iSqM9RCHtN4YQRn3YSrkOLW3PNJdLCKHCZ7toYabuLf9tJ+vggUVMIT0LsjGnX8hrVdD8q4Z3m26QLaq+RXSbhPquZtJ1GMyqN7DBEf4ZzgHvXfIZBUmVGyTnwSWNev3nrOsju/mkHUCRgAAADQ5hAlNQFohkt9Fuo1fJpsPfO0UUpnuYJCxEH1c1u1RQxSmSC/PVUc1Cd7oJTt18eydGLCewgQ9xCFs3oC8ee/bkyuaA5P6DRPaFI2WSWv2yCHdzfvkzqW+wj92mJBc32pZ+4oa4nBBdq/MMkwgWyDkbmfrtY4fqJDSET30kJMO0mnEHCnfsU/WedYvdpjw0QHZaRXzycLfnvvhnGzfrdY/xwLZnT8icVDKR6hjr4P0ebpCPrSDBMX7um7YdEGqt86T7vnqGJ0gZTtPp3qz5BomNJA6DRO+VyIPVKihDN/JpBfXy3V5t1mPqbs5vCYjK9Xj/5SHx9wfeE6O9LGX9VhxJ3I9e04ObKrNJKgAAABoLAgTmgC3+DM6cyptYreM7ZVk4eUWtmFC5kyIGyaE0a/jzhvg3jUgjb5lZE3N+/JE2gSL9RAmGKlCPTDBpMUJE8KY18ndP4mz6RNOBtuE8u0DNa79sH1nC2PbQBGb+bW9bd35OBRvqOQOrQi2j0PfytP3ty1njknl3i/TXjdv7k7D+7P2yc4q+VD9/2UVJjSXZt23yeO7VHCQbvqa1dLc8JycRA0T9JAYZ79kuDMJAAAALhmECU1AWvGnJj08/pls27xMRt6b3v04TiHaZsQy2bjjMzn81bnkVd5EzddyuHq7lE/uH7jCWB9hgjtvgH/4gF+BVbSrwvOcvDMv+H7rN0w4nfiLHNz/jpRPH5o+waQllzDBu13coQPBNvHCBEebEavl1/uPy/EaXaSHTI4ZPUzwhE2BO1PMqnSGVtScPyBLDGFIJO2mydp9CTmlgiJrXY/sq5AZvQpCCu8C6b5wuxxMOHccOZ04LttWqPcV85i8SMzvqXa+33m99H/tbzJThwqzfv8XGfbkM3UXJChRwwRr/0zc6tz6tK7fJwAAAC4OwgQAuMicMCFs3o/Gy+01lD1MsMz6g5ywwwR6JgAAADQFhAkAcLEt+sDu+ZM4UimlAy6FuyKou1Cslu32rUyz3SnEajtkoWw54vSISXz8qvQ1tgMAAMClhDABl62sQwV86mKYBBAif4FsTU4u6Yh0tf9i0EMbXIkjW3xDXPwCQ4MS1ueoq6kdAAAALjWECbhsESagMcnrNU827vtSTuo7gzT6MOHMGTm45zWZmjEccMKE04kvZd+21TK0nakNAAAALkWECQAAAAAAIBbCBAAAAAAAEAthAgAAAAAAiIUwAQAAAAAAxEKYAAAAAAAAYiFMAAAAAAAAsRAmAAAAAACAWAgTAAAAAABALIQJAAAAAAAgFsIEAAAAAAAQC2ECAAAAAACIhTABAAAAAADEQpgAAAAAAABiIUwAAAAAAACxECYAAAAAAIBYCBOAhvDD9rJ/+lSR0mJ548arzW2aivwS2fDJUdkyq6d5eX3pukIqjx6Q5UMLzMsBAAAA1BnChCbu2d3fSs35L2RjsXm5T3GFHDpvtd+9wry8TvWVxTuPyf6dq6TIuLyJKRwi8uQ021973WRu0xhdmSerBz4qZ2dOTq6/Ul1oaKvkl8iLB89IzdmvpbIsapiwQrar4+7zChluXO4XdkznjX1VPkxYyxJV8mxX/zIAAAAAdYswoYkjTGgkLsmeCT+WtaP8IULmMKFAJm5NWMfbGdkeOUhQ6iZMUPLGVkj12W8lcaRCRuWnLwcAAABQNwgTmjjCBOQs7wH5qwoPpj4k/966pdxkauORN3ennLSOn5PW8dPZsDxc3YUJSt/1RyRhvd6hzY8blwMAAACoPcKEJo4wATnTQzNOdf2JebnPMFl7yDp2zlbL8thDDOo2TLjie4/Lxs9zXRcAAAAAURAmNCFtRqyWN6u/lJNnVLGliqlzcsr+f0Phld9fZryyTw5+dc6+iqvan67R/1/rMOEG6Txzo/znro/lj58ck/2fHJU9778ji0feK82TbTxhQqveMnnj+/L+R562j9zleb1G5so8eb7XUEm48wjMmSR/nzBQNub/OK3t2F5jfcMD5Mmx8laev41r5XBvuyDD865sLfO7+dfjfPEDMr+lYRhFsO2Tk+Ufkx+Rt25vHd7jQIcJofMjeM3dKaesY+doxXTz8qQOMnTFdtl3/Iyc1sddwjru7P83hAmxjmmPwpUH7WM52/r0LT8gx89ekOM74/amAAAAAC5vhAlNROeyD6yiSBdcaQKFl5pt//A3hnZarcKEu2Tca9Wy3w4RgipkXLKdDhP27pbf/fFoetvqHTK3o/d1YyirMr8vj9y7wF8vr4+bqgvygEkPyNhA+zoLE2YOkhd+6G1/k7w6psTcds5oecP7N668Wd6aGLLOT06Vv/S6ORkoZA40NMP7nFV5ztquNbJlmv9xv57y7M6vk+FVmkCYEOuYDspfIdvVczP2dtA9GOzXOybrBpvaAAAAADAhTGgK8hfJOzVWQXT2a9m1Zop0auc8nndvf1n5x/TCq+8rn9sF1OnDb0vpkC6SZz/eQTrN+S85rAqrWoQJhQt2SJUKA6r+IC+U9JfrWqjHb5D8vjPkhTc3yOhkWx0m2MHBPlk/c7Dkt7Ieb9VFJuswYsfqEcnXjaU+w4TrustfVEE9uqsM+6HuAXBlSxnWprPsH3F/WpHt5QQL4WFCuqtlYq/R8t2c0fJWYNLGIV1HyXfWevxjVFeZ8+MWzuM/uE7mdHtE/mE9/t2ojtJRt3UDje8mPiiL3LkPfnCtTO7itJU5I+XVa522uYUJj8mGI9Z2PfuBzPM97pc3732790LiqwNSPr6HtLEfL5D2vV6W99R+8Rb+MY/pdEWyfL9qVy3LM4RSw9d8TM8EAAAAIAeECU1AnlU8h3XpTh9f7o4nPyhLg0VWredMcAOCvfJc71aG5V667YEd8nSwbf4z8roKGd5dKT/zPt4Y/LCjfDbHKqhnjsw8RMAgbpjQrXCIVeyXSHVhcPjET+T1cdY6zHpIFl/pfVxpKS8XW8vmDJIX7H8XyI7p6t/D5WU72PG6Wmb3f9wOCI7+rGVgmSXyMIelUpm1F0CBdSxesI7FhGwuCS5LnzMh3jFt5vSWyN4OAAAAQHyECU3A8M1fWEXTBalclL4svfDShduRLTIk0Lb2YcJM2RA5BPDMmZC27CF57r2wZRdft8JB8ncVKFiF9nezH5cvHn5AVtyQ/W4HccKEm258QP4yxz8EIaW9/En//XCj5Y3rVNtCqVb/Hlck/dJex6IDg7/2uil0WfYwIcoEim6IZeq9kP78eMe0mfMahAkAAABAfSBMaAKcoumcbJ2bviw0TPj4VekRaFtnYcI7ZXKHcblXpjBhhKzYW4swoV7nTNB+cKMs7NZbjk4okX/pAv5f47vLxLSeAimRw4QWhVI9c6r8pf9t0s203A0IMgqECcWdksMefBo6TKjZKbPSloWFCVGPabOJW2sitQMAAAAQH2FCE9Bj/RG7QN6zqsi/rKtVpCWChdcC2arGon9ZKRO9bb9XIKM2n6jl3Rx0CFC9TabfZlrulSFMGLBO3lWhxBvPyPXBZVE0RJjg9YMbZeMoZzLETLdRjBQm6MkS/zG8MCRIUG6StyZNE5n+oMw2LvdqJ3tnWW3nPCJrfRM4Ku4wh6lSXWi4A0TkMCFTrwPXQHnxY7Xt0+cw6Gztr5Nqv3jChHjHtIk7Z8IBWZJvWg4AAACgNggTmoKSt+WoKsYSB6V8RAfrsQ7S5+kK+dAuuoKFV5EsrVJj1y9I9dZ50t0qtPLunSBlO0+nZtk3hgkFMmrTMfsWfqePbZcnjPfvbyWPvOxMnlj1/haZPbSbnoCxlVz3swmy2DQB497/kFGFd8iP7MfURI2L5FX77g6HZMOkAt22EWk/QGpGPCAr8lvJvW4vBDUBY6eh8r9hV/i1rGHClTfLG+Mny3cTH8jYw0GZ3tcJAf4+sqvMuf5aaWto47haFg+dZIcC/xrf2zMB43WyqNdIZwJG49wLlshhQrS7OYyrSNjH18mql2WomlCx3VAp3XzYCRIUb8+GWMe0gTuBY8beEqk7Rpz+Yo88azymAQAAAJgQJjQJw+TFj1VA4BZa2pljUrn3y7TCK2/uzlQBl6RmtK+SD9X/G8ME3RVd214WXK7dNlPWm271aDPcGtLY7pi899pMucX7uo2FLrCNgrdkjDAcIVWot5QXhoXc6lHzBRU/bC/7p4fd7tEyvDDV1h42YWijzJkgf0qb4FGLESa4d2o49e4ifXcQg4Gvyn7DrR5PH/5Adh63/t9X+Mc7poPc9fnolWHG5a55O1N/41TlAmMbAAAAAOkIE5qKdtNk7b6EnFLF2tlzcmRfhczoVRAyCV2BdF+4XQ4mvrGLqNOJ47JtxWhp4wYGoT0TjtqvH94zQWvVWyav2y6V+z7V4cCn8v7v35CnR94rzZPtCqTb1FWy7u0PZdcBN3yw2u3aLr+Y2Vv3VGiErmwtM7r0ky8mp+ZK+G72REmM6CrzWwaHCsQJE/TQBUMbV1qvhx/cKC8NfFTOzpyc3t4bJigtbpMtIx6Tv8/WAcScSXJ+bD956Xp9W0mTGGFCaqhDtSzPcGy0mfia7D55zu4Fk6hJyO7NqneMfm6wF0GsY9rLXRfDHUuCuq6TPW7AkfPwHgAAAODyQ5gAoE64PV5O7S2XzoblDaXv+iOSUMN4NkWZF6OnlH/khAn0TAAAAACiI0wAUEeKZN7OM1ZhbhXym0vChzvUo7yxFVJ99ltJHNmSca4EW7seMnrNQT3k54xsndsI5+gAAAAAGinCBAB1J79ENh5R8xCcke1lPc1t6kne0HWyW03QmKjKOpmiM1RCD2+4iOEHAAAAcKkiTABQt/JLZMMnR2XTRHUXBsPy+qJuG3msSpb0yt7DwA4Tzp6T45/uk7Vz+hMkAAAAADERJgAAAAAAgFgIEwAAAAAAQCyECQAAAAAAIBbCBAAAAAAAEAthAgAAAAAAiIUwAQAAAAAAxEKYAAAAAAAAYiFMAAAAAAAAsRAmAAAAAACAWAgTAAAAAABALIQJAAAAAAAgFsIEAAAAAAAQC2ECAAAAAACIhTABAAAAAADEQpgAAAAAAABiIUwAAAAAAACxECYAAAAAAIBYCBMAAAAAAEAshAkAAAAAACAWwgQAAAAAABALYQIAAAAAAIiFMAEAAAAAAMRCmAAAAAAAAGIhTAAAAAAAALEQJgAAAAAAgFgIEwAAAAAAQCyECQAAAAAAIBbCBAAAAAAAEAthAgAAAAAAiIUwAQAAAAAAxEKYAAAAAAAAYiFMAAAAAAAAsRAmAAAAAACAWAgTAAAAAABALIQJAAAAAAAgFsIEAAAAAAAQC2ECAAAAAACIhTABAAAAAADEQpgAAAAAAABiIUwAAAAAAACxECYAAAAAAIBYCBMAAAAAAEAshAkAAAAAACAWwgQAAAAAABALYQIAAAAAAIiFMAEAAAAAAMRCmAAAAAAAAGIhTAAAAAAAALEQJgAAAAAAgFgIEwAAAAAAQCyECU3ND9vL/ulTRUqL5Y0brza3aWCdyz6Qj/euk4fyzcsRVCJdf/MvmbPr7zJkTB/DclwUN66Uwdu+kzk7/lu6db/N3KapyC+RDZ8clS2zepqXo9EqXLRHjp/9Vk4f3iKj+M5t0mL9tnZdIZVHD8jyoQXm5QAA5IAwoakpHCLy5DTbX3vdZG7jc7UMv6effDG5RP6ln2cbXmhoG1/neTvls6wnto/Lxs+/lZrz52TrXNPyy0zRNpnwvsgcZc1qc5v6NOYT5297PDzG0O5y49kuExaUmNs0Bfkl8uLBM1Jz9mupLGvIMGG1POw55myhx3+JPFARaFuxTX5ibHt5eXa3+i5VvpCNxeY2YZznxn9ewyiQ7nMqZPfJc5JQ7+/sOTmyr0KmdjW1DbNCtqvnfl4hw43L/Rr79hi1/rCctN7Pyd0rpLOxTUre2Fflw4T1fhJV8mysbQYAQDjChKYmZs+Ebh0f8YcIdRkmdF0ne85+K4kjFVmukLlhQqaTNkOh4XUxiu4sfrLgTNp6zn737zLuVzulU59B0szwHMdF7pnQCMKE3LddPbokeiboz0mmwvrGjfKo1aZk4TTD8gKZuDVhfRbPyPYGDRKUxhUm3Dj3lEz8/X/LA0Xm5Y1VbXomNObiOW/uTrtwdoKSlMTHr0pfQ3uzxh8mfL/zeun/2t9k5i7nuJ71+7/IsCefkeaGtnagsPmEJM5fkOrNJZJnbJOSN7ZCqiP9JgMAEA1hwmXtJnlrkgoPHpeqwjy590pTm1wNkxc/viA1Z0/IxrHZulUWyJK92U7amkaYkPKdPP582AliI6KDhcYQJqRcItvuonhOHnrX2kaZCmvd88XUu8It2KJc6axf+vMe6XOtg4U6DhPuWqOOtTOXXJhQG405TJi30/o9OX9O9vxytLSx/p3Xq1y2qyvt50/IhuHm56Rr3GFCs/47ZZIOEYKmW58F83ee/q2NuJ591x+xe3Yc2vy4cTkAAHEQJlzWCqVa9UIYVyT9jMtzlzfvfTllnbAc3Vqa9WqJkv2kLcIV10bGKYi9xcht8n/azpQ7l5yU6fYJ4v/IkOL7fc9pdC5qmHCJb7uLQhfWb/5erjcut+gwYXTpkMCyYbL2kPU5PFstyy96N2jChIuhMYcJzrpVybNpjx2RFx/0tw3XiMOEa56SB99Sx9y/ZNyS5+VH16rH75YfPfKePG4HDP8jDw0L6RFVXCGHrPeV2L8uQgioewI2is85AOBSR5jQRIztNTYwVGGsvJVnbpuiw4Q6mh8hZaC8+LE6WTkoSzualqer2zDBaauuvKouo4N/8z8yyy5A/yXTf7NX2rX1npBlKESChbT9b6u46D5Numz8u8y2ls36zVty/TV95K5V39h/Y9Yb70vBjU779ILYdZtcv6DGfv6c138jLdzH4w4vuOYxabfgExn3+3857Xf9U6b+5k/SqVdgaIT9uv+0T0SvHb9XRm/9p/O3d/yPjFu1Vq69xtM2KEKY8P3Oq+SBdX+Rqe9+51mPT6RoiGc4wt0VMlYte2uH3Oh5rqvZiP0yw1o+4xdL7efE3nbKNYPk1if922PSK9vkVu/+jrke6rH0XhLZCszb5JohFTLsN3/3dVUePHG8fD+t7d3SaqJnn9jH6J/k7s53B9o5mvd6LdAF+v+TkUtWePah2/3/E7kr8Nykfu/JVOu5aft07k4nAKyY7n/cp54+W2nqMkzQy9XxcuszUmQdq9N3qHX+TmZu/VweGJj6vKTvawPf3/Gspzr+Fnwuk/TnYNbb/teuX+5QMY8sBXObEavlzeov5eQZ3f7sOTll/7/hezh/pDy1eZ8cTHyTbHv80z1SPqHhhsKMq1DDb87Jzhecv5nssh9aQHeQoSu2y77jZ+S03iaJmnPO/xu2TaztUQ+aWZ8J9R0w45dr03ogtHwyYR9TM1Y+53s8pUiWVqneCQnZXGJa7le48qDdOyHzZx0AgOwIE5qIyGGCZ4LGcFGCiAwefFX2q5Mx6ySv0LTcoD7ChDlvnTd3GfW9Rtww4Z8y+nVvwfFPGbXhS10IOtwrvuEFsUWPW5/z/mHp4BaC+u95hRdbI6XL67p4Dwq+F/26E36ri/CA6dYJaugcBMFtkEZva6Nv5MF+bnF5v9yzQa3v/7MeC77GbXLXGrXsG+nd23ks9raz9uPP/uN/rMeC62DZVSPdkq/jrkfqb6XcJrf/4p9py+KFCZ6wI03wefdLwfLzIW3Te140G1ale2Wk8+4f54p6KkxwCpFjcp8OucL26azKc9ZnsEa2TPM/7ldPn600niLduNwrYpjwTo08Xmn917u+yq4vpcvdTtucw4Rf/l66qXlOgm09r12/4oUJ6i4Aal4FX/uk4Pew243e0DbiFf46oefgUUPndu04queFeDtkAsae8uzOr52JGk0C6x1ve9SP/Of/n3XMqNDX+7jqmbBNRr6tj63QY7y55JVVRR++kL9Ctqv325D7DwDQJBEmNEFOsHARw4RFH9gnNdWbHjMvN3DChExjXzMVrcHx3562O/5bej8y3L4i/P0Ov5JH1Hjy963i8mdu27hhgnr+d/LojEHy/fGHk/9+fME0+f7APfYV39kvrrTbZyyI3b8btjxbsfWzt+Rx9bdf/U/5tzxdsF9TJP824DUZvO4N/3tJrrfI9P/YJrfdWyTNrKL3//T9ve4+6yk0gyIUfYPf+EQeGD1TrnbX49rhctvzTkHtvZJmuupvu3GDjLTWY/brv5GW+rG4265lqRPoTN9QITd30Ff1rfW4+cmjdgE+e8MGuUo/312Pqc8/pV9Pu8Y6btT2+HVFcj2CMq+Xp+DfdV6GzJinuypb2/reedJp1SfS1fM8t+3s334od96v9on1uLUPrxv9obNfAr0n2r3ohDEDHu2d7OHw/VvU0I//K309xY4TJlhF7J3q30Oky+vq39/JyEk6nLD3afA9PCYbjlifwbMfyLzkYyb19NlKo/9OXYYJ6vXUfpk4U5qr/WIdH3evcQKotGPBEm2Yg2d77Pq7jFqgu6dfM0g66NdOH05S33SwEFYo5i+Sd2rUvv5adq2ZIp3aOY/n3dtfVv5RfQ8HiufhW6RaFdUfbZIB9+r5b/K7yIDpL8u2Pa83XDGa318WvndGF/h/kw83OHMnmNq6w+wSXx2Q8vE9dLsCad/rZXlPPd+7beJuj3ri/9zeJtf0sb7L3wgGVBl6HHVcJ3vUe4sU4hfJ8v3qvVXL8oi9BwEAMCFMaIIyhgk+9TPMYcimE/YJ3/Yy83ITZ3It/3hYP89Ju4ExTKg8KV0Cs+4XrFRXnr0FQoyCxy3K3bbuLRzfek/y1RVy99+6AKrXMEEX4Oo9PuAdTmCiX2uyVcQHu886V8O+kyFhJ8tZi74QgW3hKJXeakzwu/vlds/QiqumHLP+xj9l0IjUvoq37XTBHHhdx/1y36+sZbsOSjv3sWuWyiBV+L5bJQWetm4340enhM/FkHm93B4W/5RHxmfv3u4ciwkpMly5dvaLtzBvLjcu+cZ67DuZ9OJ6aWWHFGbOc/U62r04EjL69e9ktrUv1HHSovTL1PLk85ZKZaQrlfX02UpTD2HCu19KUfAuHG4vl9++JT/2Pm6JFSZYr31/r8DQlOKD9vFkmuiyfmUOE9wr2KYu7sYeYh1fkt3q2Egclo1z+keaA6fO5ZfIhsNqiMU3cujoaXv9U3ckcHtluL8fBdb7COvynz5nQuztUU/cHkV3q7s5bHaG0anPyOxt/1ceeOR56W1/52UIE763QLaqUCTrZ9jh9ERqmPcGAGi6CBOaoIsdJgzf/IV1khIvTHCeEyFMCC0YvMILkfRiMEbBo/+dLA6Cs+LHChOmSc831clhyPIIRXzzMQdlqt2zwDrhfPdvMnrVttQVbq8Mr9VM964I/TtR1sMex///6XHoAYF94HS591wl/95IKfq11S5wFT7etlspQ/R2CGcqzL1divXwh11H5Z6wXhqWSCGHN7gINU66/Ta4jkGBkOeaaZ6u9GqOgmPSJ9n7IcW7jnZA8s57cpcKEHZZhcg17vJgb5SoE9PV02crTT2ECcbl+lgyLIsVJoT+7Yshc5jgfNdekMpF6cvCimfvMIBETUL27aiQBaO7NFiw4MyX4N6utKe1nk4PBfuuI2ld9vX7N/ayST/Oc9ke9cE53lJmbzst/ZPzrET5bsnSIyXAed+ECQCA2iFMaIIIEy6BMMGdCDDs5DBCEW+7drwUPLlTHk1OhOdOCulpk+G1nF4BGf5OlvW4qvhg6Dh+W3AfuEMa3GEHejuMfXKkr128baf3d0b+MMF9jeSQC71eaUMwAjKul3ssBXo8mOm2aevpZeoxoro/r5cHVp1KTvSnutcPGZPqCfHjeTXJ56reAvZQE/v9OuGJ8x6CVzgv1zDhKXnwHfOyph0mnJOtc9OXZSye242W2a+8I3s+TU1oePrwFt07oD6VyKbj1t87/jsZ5T6WXypbTqp1uCDVh084PRV2r9Dhhn7/NTtlVvI1XGFhQg7bo445PXusY2nHWRk84wm5xvsdfs1aeUQtM/SgSbG2yZf+95bJxK01DfbeAABNF2FCE3Sxw4QryqrsE804cyZkF+ekPYeCJ1jUX/OY3LfBGfOcLHjqLEzoYxUqzmuHFq9RwwSva8dLJ73OvnHaoa+VaVJELeN66CEEVuH6+PPPp+ZuUALbIsWd5NAZG2z3EDD0Boi37fQ+fOc9yfe1zUS/dz00wglVTJMy+oWvl+JuD+/Ek+GcYjXDfBVZqbtG6NvGeQOM5D5ThfJ31n/VujjbSAULdtGSFmJluprrVU+frTQNFCb03iGT1d/51cbknBquphom9Fh/xP5+3rOqyL+sq1VoJyIWz+1GS3mV0ztg//qB5jZ1Rg/BqXlfnvAEF+7dHNQ6qDDgnXl6Pgf3bkKG+QA6W79NJwNhQp1sjzpw1aSjzjwz1jEfPBabW99P9rLQuzlY3DkT9pZH6DHizplwQJbUexgEAGjKCBOaoIseJsS+m8Mw+cXBb6TmzDHZMNY9IQyqrzDBnaDun/LobKdL6fc7PC8PeO4MUGdhwjVFcnWPVdJb31bSf5eBgGxhQnGVjF+3Te7sMVD+j3sFS03AOOWwPblgcp0U/VrFTzyenCSxWd5kuXPZfzu9GTJt04zr4XbV/6c8MsWZiM+dBDI55tdUDOoCbsKCDfYcCpOffyotUIm77dz5BKaur5CbO6cmKMzEmYhRFdt9nBAgw8SLrsxhQmoiSDWnQO/ReqI/63E1UeLdgQkY3eJh1m8+8O9HoxLp+sop6T9jnrS6JTU2//u3zE8fS+3u71+qYyEVVtjb6N1P5GH1Xg37PNbdHOr6s5WmHsKEd/4obe9yj4275UcDKuSRbc4cFw+PSZ8nw71SPH3Da3KdNyjzyS1MyBu7RT46o4YMHM3wnZerLN3dS96Wo+r7OXFQykd0sB7rIH2erpAP7cJZCRTPi3bJx3sqZMH4/tLeLTzVBIy/OGBPcmi+e0CBjNp0TE6fvyCnPqlt7wU3HLgg1VsXSh97gsTAOv/1T1LmuauDMyziWzlZ9bIMVe3bDZXSzYedIEHxbpu428PVdYVUfnXB+t36b9lmD78wtInjRutYsicx/R95zJ3I076bgw4MM3zvKO6kk9Hu5qAnnYzYiwEAgDCECU2CDgUyqC7M8Ly6DhO+N0zWHlInYZ/L2oGm5QGDX5eP9Ele+ImQPmkP4ys64hQ8ngLQxypMf1Pjvx9/TmFC8HW1HWel/wjvJH264DG11UwBgVEwpMjS9gHfpHTx1iPje1SMxaCeJ8FuYz5BjrftLDeulMF2YWhorxjXw5kQcoZVdBdb+zs1j4NXluPO4iuIffMaBAXfa4l0DW1r8RWomffL9BdXpq5mdv+9lLjLXv+NtHAf7/eefTzbjxuKX7cYOfXuogxXNuvps5V8frCth3edMx3TNu8wjizbznovwYlJldBbcfq2nd4eMcME92q47eNXpYehTSy6N1g47xCykFs9njkmlXu/tP4/UDxneu2zJ2SD8aq9GwA4att7oXDRB6kgICBx5pvAhIyWga/K/mSvhZTThz+QnWrIhK+Ijrk9XHN32p8Xu61xSEV8za3j2jxszLljUPgQrAJ54l0VBkb7zXU/6x+9Msy4HACAqAgTmoTGFiZYJ3/WCag6WTm6tTRCl8sYPRPC+IqbeAWP6jp/+3OnZLKeQHDW7/8ig9XEVzocqLMwYdc/Zeqbp2TwglWGK50xw4RrBslNM/bK6DdTcyXMfvfvMm5dhdzaNvDahsIrtG0O69HO2nbJ8fs7/sd63W1yZ+d/l4fUVTbDPlDcq/JhvQHibTvt2vFy9/JTMvH3hgI9ZD2cCSGt5cY7QSgxwwTF2ia3PvmJjPuvf+pC+juZufWUZzK1TG09AgXq9zuvkgfW/UWmuttaTcJobZO013WPQ4tvX33vOWefqGW/XGsoTNyhDtWy3HjvfqWePlvJ5+v1M6nTMCFk2/ncJteO93/GbHUQJqi7E2xS29ouWvfIXFObOGKFCZZ202TtvoScUgX32XNyZF+FzOhVYJ6UL7+/jF+zXfYdT82VkKj5Wg7uec1+TrJdQN7Y38kh3f70jiXGNnF0nvWabPfO15A4Lts3l8lD+T1lyV5VSOsJGXX7NhNfk90nzzlBQ01Cdm+eJ93zQ3ptxNkeSam/W3P+mKwbbGoTlxq6VCHDknPg6O+O8Y9lCBIsxRX2tk5UvRShN6D7OT8oS7ktJACglggTUE/cqz1fyKY678aLWHThlVb0XjS3yfULVeFo7l6Oiydv7k77CvCpveXJouzSp8OEuAV/PRu1RV31toq6I1tkiGH5pU9PnGi9x7qdP6fxyHvhgLMPs841Up/0b21oLxG/vuuPSEINGdkUYTgEAABZECag/hRvcSbISlTJs6FXOlHvGlGY0CyvWG5b4szVMPu3bzWq4g5KkczbqSbWs4qNzSUNduu/+tXIwgQ130ByTP4F2b++6XU1z7t3RGqOgrNH5MUow90uKR2k0/jVUnnCGR5xsnLBRfqsFMiozepuFtHCAXfSysSRLcyVAACoE4QJqFfu7Nm+8axoWI0hTAh2S6/8RO661dAOF19+iWw8oook977+hjaXlEYUJuju6E7XeKsIPfhqk/tedIYGuO/xjHy4vqmEUi59e0ktcWKnPHFRwvICeWjVQfv31Tu8I0ze0HWyWwVYhPsAgDpEmIB617nsA/l4Z7l0J0y4OBpTmGDPqWCaqwGNSn6JbPjkqGyaqGa3Nyy/pDS2MOEbOXn8M3lzxWhpY2pzibPDhDNn5HD1dimz745gbnfpUmHCBTn11XHZ/oqah8HUpmGosP7Q7oi/repWl8eqZEmGeS4AAIiLMAEAAAAAAMRCmAAAAAAAAGIhTAAAAAAAALEQJgAAAAAAgFgIEwAAAAAAQCyECQAAAAAAIBbCBAAAAAAAEAthAgAAAAAAiIUwAQAAAAAAxEKYAAAAAAAAYiFMAAAAAAAAsRAmAAAAAACAWAgTAAAAAABALIQJAAAAAAAgFsIEAAAAAAAQC2ECAADI6qbBZfLcqvWyYEpvucawHAAAXF4IE4AYxvYaK/LkWHkrz7y8Ucp7QP765DSR4YXm5RfbVd1k9PINUjZ7gDQ3LfdpIYUT18jS8vnStYVpeXzXFI6UCfNXy+LyDbJ0lbZwjNxkaNsYdZqm1nm5DLrVvLxu9ZbxavtM621Y1pDukEELPfvrEttntXLrGJl7UfaBd5s/KZ2MbQAAwOWEMAGIgTCh7l3T5xkpW7VGRndqYVzuc+0gmWIV/YsndpNmpuUxNbtrgjztDRFcl2GY0GbIYnlqWVmW1yFMMLn25zOkdOlaGdfVvLxOXbQwgZ4JAADAjzABiIEwoa7dLcOeswqj5yZIG+NyvzbF5VbhWC7D2pmXx9PCKsTXW6+3RmYO7SRXNze1afzqKkyI9jqNJUzw0sHCRQwTbhq+3A40xjfxMAEAAMCLMAGIgTChbjXrNFMWr1ovU/pcb1zu4w6HKB1UR1dFdRG6fIa0Ny6/NBAmECYAAABcDIQJQAypMKGFFN83UBIzJ1v/nibfzX5cjvS6TboF2q8cbhXxTw6Rld+7Wvrc/oAcmTJJvlOFfel4Y/ubWraVLSMek3+Uque5r9tW+lzpb6e0vb5Q3rLa/n32VLutzJkkf58wVLbc3tpfVIWECd0Kh8g/1OMzR8rrN17tW2bLL5XXjn0jNWeOyYaxBenLa621dJ293irmZ0rhVablfs17zY8+HCKSqEVoC2l5j5pX4SV5ThVxlueWrZDJw7tIS996Z3i9rk+mF5v2Y6p4byk39Jwlpct+abdZuvIlKR3XI/Dajitv6S+Pzl0hC1c667G0fK0stv8/tzDBLYIz8r2fVJjQrHUXGTS7XG+TX8r8uROl8Fr/6yuqXd/pzyfXuWzFSsO2q40o+9HaxkVjfHNjlK1YLaXTR8qdrQ3H01Vt5N7hc1P7xNrOC+bPkh5tPaGX3qeZ1XJugatulDsHW+uxdK117Duv+dwK/f9pYYI6jqbKjCVu21/KQmudi25p6WnzU+k7Ty0L6d2jAzv/Z1Lvc69sQUbztlI0Tg2bSW2/ebPHGLe1c0yvTO6X55Y9L2N6tpUrA+0AAEDjQ5gAxOCECRPkL+MnOKGAz1Q51dV/hd0JE4bKth7F8q9s7fO6yImZwTaO7yZ2l7Ge173ie4VSbWjneFx23OoJBwxhQipIeERebm0IEpSyKqk5/63t9I4l5ja10W6CzLeKh/nFd5uX+8QbDhHKvaqbRarobyE3D1+aLOSCyhaMkZuTRVcuYYL1/pf8u/H15w6/w/ca13QtlQWm+R1sDRwmLCyTUjfQ8Ch76hFp7Xn9K259WKYvS29nt11QnKH4jyNCmJCp8H+uRG73BRs/lT5PqeEvhrbev1HfYcJVd8mA+boYN/EV9K2l/TjzcbR01Usy7uetk22dUM78uXN6CgWXxQwTrrXah+zz4POa3zfVPGeJZeGUHhEmZAUAABcTYQIQgxMmqIJ9qpwbdp9MbqGutLWQQffp4nz6gzLb094JE5z2fx/9gCz6sWp/tfS5R7cfVyT97LbXy+vjVA+DEvmsW4EM+oHz/LY/LpAto0rs53/W0XuFsVD2Txoqb3W4RXr/UIcBP7hOFvUfbYcc/zu4XaptIEzoVjhI/j5nmnw3fZCszHRHhI4L5Lf11jPBvSvDEulzg2m5nzscYuZDPzUujyxumOC2L18qwzu2kR/YRWdLufr2oTLZLpjWy/T++fr1cwsTlOfmT5AOeWr/tpRWvZ+yC7qlVrGd57Z1rxiXr5KJ/Tok53do1uJG6TFLvUYDD3NQ7G1yi30F+cq8gTJRrd+qpTLgZretW5S/JJMHdZRWep2vzOsofWe/ZD2+Xib3ShW5uYsSJsySudPHSMfbb9T7UK3H/TJ8gTNnRvF9nrY3F8sT6v09MUJ+Yn++rceuaiU/aT9Uxkx/1Pg36mOYQ+vBZfZr2sfGja30hKPWsXdPiTyl1s9TmDe7b4YstB4rWzBdOrbRba11zi+aLk+oYt0bwrnH0vMlcrv7mM2dQ6RM+oZ+JvX+Dw0TUkHMwicnpNal+XXy06IJMnVMj1Tbq7pKsfoMWcfRqKI79X5pIT9o00tG2fulruZGAQAA9YUwAYjBCRMmyaluNweKipbycrEKDUbLG9elHnfCBKv9Az+Vtr727eVPVkEvkx5wehxcWySnVAgw9M70YuWHneSotey7Ye39j5uYhjR4Hut2xwA5p4KEKQNkcR3dWjEnLQbIZKvIiXZXhnjDIaLLXoTePvoXVlFjntOh2V0lds+KpaWD9BXU3MKEhU8+4undoFhFlir2PK/TzGobdjX5osyZsLJMBhT4u6y3n7DG//yfPCIzrbbGfdxikEyxlpVN8RSXOYsQJoQwhgD62Fy6bJEMuufGCMdnfYQJ+j2ZboFqmDPB2fbmEMA5hr0hjw7ygiHKVda+Ve87eTybZAkT3HVbOC5wTBvcN8MOzWYPNgSE1mfrGWvZEw/flr4MAAA0GoQJQAyZJmCc2Htc2jInTIgwYWP7QYZhEwETu8ujnud0y+8su8eOTc6v4GMKE6aMlTMqwJgxWFZczCDB4hRfEa886gIl2nCIOLIXoU6BvUT6/MS0XBdWyefnFiakF6Dpr+Nsr/Uy7ufBthcpTDAUk846ep7/89LQ4SFJ3t4XOYsSJlwvt/abKjMWpea98AruA++QEjXHw4xJY1JX2Q3qPkzQ29m0fdLChNtkwILUezELHDt6iNHiCV2TjznDH7L1FskSJuhjOkoIkPfw0sA6pqubsAkAANQXwgQghkxhwuz+E9KWRQ4TCoekgoAwnjChY/tBzjCJMMaeCZ1l5TA118NU+Uv/9MkfG4x7V4bg+HqjeMMh4okaJjwj3Y3hS0OHCYEryVqjDRP0+8uoQcKE1nLfFDWsIvC3PYwhQPO20mHQRJninXhzfrHxinu9hQnWZ+Ta4LK0MEG/f72OZsEgSk/EmOztE7X3T7QwYeZD7tCfcO42y4QwAQCAxo0wAYghPEz4qfxhqirkh8vLP0w9HjlM0AX//+sfZW4Cd0iFCgXukGHunAlKlmEOV3zvx9Y6OXMw/KVXcKhGw4h1V4ZYwyHiyh4mON3HzVdr3WEOZVZh5aybfr3yUrnP2/aqNtLdniMg9zDh2oeW2G2n9AmsR3Kyu0YYJuii95nR96W1rVtZ9qMeUrHUN++FI3II0Lyt9ND70FQo132YoIe6GOY1SE4I6tkHmUMvM9/nUG+j7L1/soQJenhCpNu36uM/7ZgGAACXDMIEIAYnTJgge+78iXR1J0lscYtsHOnc3eF/rYK9o6d95DDBDSPmTJBD3QpklDvxm9EN8sZE9bqT5JNO1zlzMVzZUoa16Sy7H9d3mQgNE1Tbm+WtiWqyxyyBQn6JbDj8jdScPScHNpXUwRVkRV8RjXhXBmcSuvqaiC17mODObq/mCBjmmYCxVccx+i4F3lAkX/o85Tw2ZYBzazs1yd+gJ1NXxXMNE9xu6UuXzZce9q3+vOug1D5McIKTDbJw9lDJDz3+YoQJ7h041KSRgzpK3r95JxCtS1n2ozuh4vKnpJs9yaW1X1u0kbb9psqspc5kgb598PMZ8kRgskZ7AkY9MWbwLhuKG/aULSjRE2n6l8enewqsWi9PjHZuo9msxZ1SNMVzxwbPPnDv0PDc/Cn+9c7E7SFkvc41fZ6xXjPTxIuuLGGCO6mitd5PTxkqbd2JI9X2s45X3wSM7twU1mdrZFEHaZnxOw8AADRGhAlADE6YoAp5g5lD0u6OED1MUEMXBtp3WTC+tqW6MNU243oomcIEpcVtssMOFCZLokdIoDB8i1TrW0PWnD8iLz5oaBOTW5wbJ10LcmednzcywnCIXGQPE9RY+07TwrrIr5cFU6xCzNO+tVVUps8TYLWbv9S+YptzmOCZJd/HKsTGzVhh/X/twwT3jgBpf8O3HnHCBKvI/fmsDLezNL33iPS2C+e9JaPensZ2DtN+MSpfKgNM2/mGR2Sm8X3mfmtI8/5Qx9yTMk39v28f3CH9Mt1GMuQYb1NcLipkmfjEBimbPcA48aLb6yJU4LUz3sI0cNzcNLjMOIeFo/bHNAAAqF+ECUAMHW+8R956+FE5O2NScsLEf80cK18MvE+KdU8FrzhhgtL2+vtCJ1X0hglXXNlalvZ9VM7PVoGAtby0RBIjHpAV17eXvbOsf2cLE5QWhVI9U712iZzoagoUCmTi1oQOE76QjcXB5XHFuytDrOEQOYkSJijXyx2D50rp0rU6KFgvi5cslkd7Or0Pgm0LixfL/JVOQfTcsudljGqnu/znHiZYmhdK39krZbEq1MrXyrzZY+TO1i2MRXxuWsh13Q2TFNYiTFCuvKW/PDp3hSzU28SrYcIEqzBv3UOGzdXbzlqu9suE4b3khi7OHQV863HVjVIQmKyxbMVqKZ0+0t7eyXYB1xSOlAnzVyf/hmk94mkhLbtMldJlTkiQPJbC9oG13nf6jlOPsGP8hpEy224T/jmLGyYoaft85Ush2896j/eYtptCmAAAQGNHmAAg3Kw/yIm66pmgC5dod2WINxwCAAAAQMMiTABgUCDthyyULUcu2D0TEh+/Kn2N7aJqIe0nqOECUcZlp7p4RxoOAQAAAKDBESYACFgh25NzJVgSVfJsrt3RAQAAADRJhAkAApww4XTiS9m3bbUMrZc7KQAAAAC4lBEmAAAAAACAWAgTAAAAAABALIQJAAAAAAAgFsIEAAAAAAAQC2ECAAAAAACIhTABAAAAAADEQpgAAAAAAABiIUwAAAAAAACxECYAAAAAAIBYCBMAAAAAAEAshAkAAAAAACAWwgQAAAAAABALYQIAAAAAAIiFMAEAAAAAAMRCmAAAAAAAAGIhTAAAAAAAALEQJgAAAAAAgFgIEwAAAAAAQCyECQAAAAAAIBbCBAAAAAAAEAthAgAAAAAAiIUwAQAAAAAAxEKYAAAAAAAAYiFMAAAAAAAAsRAmAAAAAACAWAgTAAAAAABALIQJAAAAAAAgFsIEAAAAAAAQC2ECAAAAAACIhTABAAAAAADEQpgAAAAAAABiIUwAAAAAAACxECYAAAAAAIBYCBMAAAAAAEAshAkAAAAAACAWwgQAAAAAABALYQIAAAAAAIiFMAEAAAAAAMRCmAAAAAAAAGIhTAAAAAAAALEQJgAAAAAAgFgIEwAAAAAAQCyECQAAAAAAIBbCBAAAAAAAEAthAgAAAAAAiIUwAQAAAAAAxEKYAAAAAAAAYiFMAAAAAAAAsRAmAAAAAACAWAgTmpoftpf906eKlBbLGzdebW7TwDqXfSAf710nD+Wbl+eupzy784TsWjVS8ozLAQC4iLqukMqjB2T50ALzcp8CGbXpqBzYOlc6G5cDANC4ECY0NYVDRJ6cZvtrr5vMbXyuluH39JMvJpfIv/TzbMMLDW3j6zxvp3x29ls5fXiLjAoNEx6XjZ9/KzXnz8nWuablJj3licrTkjj/jXy0qSRymPDsbvV3vpCNxeblXsM3f2G1/Va2l5mXI66+snjnMdn/icfOVVJkbHupKpDucypk98lz1rFpHWtnz8mRfRUytaupLYCmLm/sq/JhwvouSFTJs1m/B9zftQtSvTn67xoAABcLYUJTE7NnQreOj/hDhLoME7qukz1nv5XEkYoMQYLihgnRinyl86rqnE64Gj5MaCW3j3xBfvX7P8n7HzkFdNWBffKf6xbJg3e1MrR/WOa//aG8X1n3RfYdE16TrR8ekvWTzMtzM1M2eMOBgG0v9PW0bfphQt7cnXJShQgBiY9flb6G9lG5x6LvNWu+loP735Hyyf0DnwH38xQu7ZhuN1rKtn0mh7/SIcj5b+Tkp/tk45LR0sbb7nsrZHvgtWqsz+Gpr76UfdtWy9B23raW4go5pNrsXuF/PKNhsvaQfu2zB2VpR++ynrJk7zn7b+5Z1dPzuJf7/hOyZVqUq8FepvdnbYvjn8m2zcvS35+xvYd+34XW95X6d8L6d+j31bRKOabaVL0khda/Tfvcx7RN3f2Y+Ea3c9b9zRX+/eh8D4axil5P29wUyBPvqv2kXi8hm0tMbVwdZOiK7bLv+Bk5rdfhdMJ/PGVeX5fne72syrDc4/MKGW61q/v9Yv5tyRtbIdWRfguVntb7PWO91hnrcxp2jAMA0DgQJlzWbpK3Jqnw4HGpKsyTe680tcnVMHnx4wtWMXBCNo7NdkJfYBUI4SdiaQa+Kvsjn5j5NWyYUCCPrNsnVd7i2ctYSOvivB6K7KIX9tp/d8NFCxO8dLDQxMKEeTutY/78OdnzS6d4y+tVLtvVVcnzJ2TDcPNzoshcwFyQal+36JhhQvEG58qpoZ3iP/6zFM/Bq6+5hAkDX5OPrOfs2V0lp9R/VxUFljuf/5rEBzLPFzQ4nKDxWzlZuSCHK7vZ3t/BQHf1aGHCFR3XyR7175r35YmQ76yJW2us51ywtrfz+nHDhLyxW+SjM4Z2Nv93Xr2HCfmL5J2ab+WYtQ/3W695bGtpSLsS2XDYDT7SHdr8uN2uvsKEut8v4b8tfdcfsY9L9z1llL9AtqrPZI21LwzHOAAAjQVhwmWtUKpVL4RxRdLPuDx3efPetwuBo9ZJZJQT+uhFvnvFK5erjg0cJjywSraporrqD7J4dDe5roV+vNUd0rNknbxesazphAmvzTQsy6RphgnO8eUvxpzHjsiLD/rbxuEci97jtkDa95oiCyoO654QZ6RyUaDo1jIf8wXWchWAXJDPdq6W0UUdko+3HzJHyneckLcWedvr4tlbyOZ3kW7jV0vlCfU6gau8OYQJznutluVdnYK0Zv86+4qwr82mE3Zhlvb90nGpVNpF2AFZktPQEsP7a9dDhk5/OfX+jmxxClFve7c4DVUky/db7c6fk3fmmb63SmXLl9bys9axYypqdXEcWoi679tqc/Lg27JgfA/dE8Hdj/tknWf/x/kezEWetb6J8zXWd7TuZfJlpUxMa1ck83aqK/DW8sRh2bxkinTSPRHy7h0hk9bske2/Mr/fWOuf8RiMv19y/13QId9ZdWyblvsVWtswzm8oAAAXA2FCEzG219jAUIWx8laeuW2KDhPqaH6ElIHy4sfqpCnYRTlc5JPDB1+1r3S5XU6NbbQ2I1bLm9Vfykn3at3Zc3LK/v/0v5PXa56s3XNcjtc4BYPqHnxK/3/OYcKkCucKfdZC29D93yB4lf9H98+QxZvfl10Hjjptqg/Jrt+/IU+PvFeau+3cdcioQsZ5XldpftdYedp6be/QjNdfGCu3u4FIUj2GCS3ulQef2ij/uetj+aNe1z/u+1D+c91c6dzK0L5Vb5m80bM9gnzreJf0Uq/9/iHdc+RTeX/XO/LC491S2y4H4yoS1jFzTna+4HRPTnZvtgri2kyolh4muApk1GansK75+FXp4VvmyPzZijvEyFBsu8b+Tg6rZd7COnaYoNfHfi9u0GEVX8HvkfwS2aTXe1Oy51OBTNyqtn+mIRDZZHh/Xa1ldsHundslaphgFYcrD9r76dS7i9KLQ92V3rhMyRIm9H3lc3t54uPXZFCE3lr1Gybo/VazU2ZZ/3aOXRUsBNrpHig1Z4/I2mHxguG6CxPi75fcw4TU3zpaMd243G+6bD6ptk/031EAABoaYUITETlM8EzQGC5KEJGBLvhNVxTDRD057LH+iH0il9b1OUDdQeK46gqt1iON/+9k7h5cizDB7ZlQvVtWeAv8NLmECZmGFxyQFYP1fAy5hAkPLJItVaZ2x6Tq3ZWB4r/+wgS3J4VJ1RvPyC3e9i0eksXvhoQIruQ6tpJHXq42tzEEK7HoeULU8J5dO47ax+Dpw2/XegLG8DDB4nbVPn9AlhgKycyfLbdg/1ZOVr1smBMgKEOxrQuvmiNbZIj7WNwwQbf/6JVh9r+dK9zmz7s7P0VyPork8Cdvz4G4Mrw/i9Pl/Vs5vKVEPxY9TLii40uyWx0bhi71zuuGXR23ZAwTHpMNR6zXNRXsIeo1TMi3ton1PpMFuN6nwaEOQzadsN9T6BCIDOoyTIi7X2oTJrjbJtLxYnH+VmqIBQAAjQ1hQhPkBAsXMUxY9IFdAFRvesy83MA5Ocw+rtwZk56lnR6vW3P2a9m1xtt1tr+s/KP6O96TUHeyt2/ko4qFMuBefdLWrodM/92X1uO1CBOsorV72Xv6qvpR2bP9DVlc0j813MEo6jCHmbJup3q9wXLbjTo4aNVFRqzebV9p3/Py+ED7qMMcimTuO6oor5ZNix6V9roHwI/ufVSe/q0qwI/KptneE9tMocZeWfyA2y4oQphQVilvrFskD3W9Q35kP9ZKruu5SDbZQccOmVuYanv97Lft9/3e1lUy4t4b7Md+1GawzLbXuVrWT/Cu81RZX229xt7/kFFtnLZXfO8Gye87Q154c4OMTrbLQX5/Wfie7rp9/m/y4YbgBIa5yRgmZOldkLXwUreu+8oJFGrO/Lfs2/ayTBrgDncIMhTb+V1kgGcYgBsE2GKGCWnv0y30jL0u3G7y56zP6MPW+1TDn7w9FXKROUxIjsVPLtftQ/iL/yJZWqW2UTA00F3p9ZX81OMeGcMEdx2iz3XgHBMhIha6YZwAyFsA6yvsgffnrkMu3691GibE3C9umGCWbR+4wyoMvW1MdECXS+ACAEBDIExogjKGCT71M8zBveIU5yTRCQmynYi5V+Ayt3OvZpq6kqadhOoTTdOwiVpdgfL40f1z5RdvH0h21d//0QF5vXyK3GsMFaKGCSHc3hCGngKRwoTCMqmw2ux5pSS9J0X+M/K6tazqP6Z6Hq+/MCHMuNfSX9t5b4dlzWh/2yv6r5U/WOvi79XxsLywx3qN6n2yfmZvHVTUgeRkct/IoaPq9m7qKrk7Sahb8Ecv+LzqNUxQ8vvLjFf2ycfJYT4X5NTRPVI+IThcIHPxfPLgq/5JUWOFCbro9BWzbvEVMueE2xPkzDf2nQBym3TRqz7DhJAu9W5XemvdvW19LpkwQRfmgbkf3Cv83lv/Np4wId5+qV2Y0FxmVTqhV6R1d3v5Rfr8AADQ8AgTmqCLHSbkUoQ7z8l2IhatIHNe64JU+iaOc6SdhOqTdFMvilzeRybNb+wvY194Q/7LnYfg3VXSPWwOgghF9i39Fskv1G0k9ev55BomTNgSfvcJ17sr5WfJ5+j1rYdhDle06CbF1vZSt7NMXyd/mHDHgh324+9tfUEe0r0NftRmlDy91RnO8PoT/qvVzXuvlN+52+2jj2XrG7+U2UO71CpYcOZLcG/n5t7ezSpwrUKgc8zuzUHOsRhWgJTIpuOB49ojVuH1vQ7SZ/rL8uYnX9vFVfrt6QzF89lzctx4G0lLnDCh5G05arUNhoDu7fv2rx/oe9zlzpIfdneHeDKHCXkvHHDec3K5bh91vya71KeudjuFdpYhCvUSJkQ9JmLQ7y8tnDUU5o0pTIizX2r7u5D5sxyU+XgEAOBiI0xogggT1Gv5r4K5wsIEU6FS25PGUK2GynN6fH/6rROjhQnXW0X/e6pdmFzDhChzLDRImNBXns04B0Kg10OLobL0PVO7sNBGPedeeXDGKln39j7Zo4Y9qLZ/3CLjbjO0zUoX9Md/J6Pcx/JLZYu60n7+glQfdiZJzHg/+wwyFiDJieysYjq4zJJb4Vgg3V+ocu4U4bvKHLO4iREmOGGMWtcQIRNMxuv9kE2m9+feScYbPsYME5JzVLjfT7orvfFuBx4ZwwT9Go1gzgT3Cr9vv3mlFeuNYM4EW/T9UtvfBed9R1x3dz6UOjm2AQCoe4QJTdDFDhMyXe2vLeckMvOcCaGTNCZnY/ecyM3dad9+K+2ENr9ENh5xunzXeZhgaT7td06xm1aERwkTCmT6G6r4PSpvrZ4g97hzJii1Heagn79j9Qjz8jT1FCYMfll2qNeteltm93XnTHCYhjk44cpR+cP21N0cqg78WbZuDLnzQ1CLe2VohvkmslsqlfaVTf8kbu7dHNRxlD4mO7rwMCHVA8I4G70l98LR1OOhvsIEPcTB3k5hQoY6NFCYkNqXn8vagYH2MXqcuMOw7Kv0+op91tn9M4YJqZDj1N7ySHcNqZ8wwZ17QL12mFTI694+OJfbeNZ9mBB9v9QuTHCH7ZgnS02j1yM14ScAAI0LYUITdNHDhNh3cxgmvzj4jdScsQrdLJOnRbqbg+4uXZM4KOUj1ERyHaTP0xXyob4Pu+8k1O3eevaEbJnT3yrGCqT96NQ988NPGq0ibqfqCn5Bjh8IjBPXiha/Ib96YYb0LPQUwy3ayG19Z8hqfdW9YkGnwPPGy4sHVLFcLZueCpus0frb76o2h2TjHN0133rde4Yukl/810FnSIChuHeHAlS9+3JyksJ07nwCB+XVRY/Kz5ITFIappzDBHW6xc63002GJmlAxNUzEHybYAcNHb8msrj+TO73b2+SBZfL62xtl9tBekp8MGm6Q/IfXhgYx2enboapeCFsXSh970s/AcffXP0lZjnd1SAsT8rtIt/HLZPMBPRzBOn43hBRWmQuvpfLbT7ZL+fTR0s2dfNTSpmi0THrloNMzwTcBXT2FCfozGzZvgHvrQ9/kjq56DhPsbbFmjxzSd3w5uXOp53stfpiQnNH/y0pZa1+lTsjmEkM7r4xhgsXdBvb3UYWUjuihh5x0kE4j5kj5jn2yzrP/6yVMyDhZZio8SIVebk+zbyXx1cey8enRycly3W2+/Vfm91sfYULU/VKrMMGdHDji8eIc99zNAQDQeBEmNAk6FMig2jPzfdrz6jpMSN4hwXsFL4PBrzvdtC2hJ8sut0v3odec28EZDbMKO8MVsjPHpHKvukOD9yS0QGZVurPve5z9Wip3H7L/33jSmDx5V8wntW5PgDDm7vfhty30DonI9trGgrhjmVTo7vx+/tshXj/h17LT2M7h79kQI0zIOoTCsx751uvaoUoYf5gwZF3YrR6Pyp73t8svpnVLTSjp9t4wCt75IbrCRR84xbdB4sw3dtGfmpAxHreAMTpzSt6c553XIFWkhUkd07oYDhUyZ0LcMCGMfh3TBH0+7uuYPvdRi8VIMm0PU3CYZfsZ18ntUn9BEqp4DSksM+5zxffaBTJq/eHQ4y/4HeUU42Giz73glW1ui2Sx7um9kzf2VU/Imy7s9yBrmKDDl1DGbV4X+yVzwOEGKsZQLI3+HTXcshIAgMaCMKFJaGxhgnViaZ3MqZOmo1tLI4wRj94zQXUTdW4Bl5At0zK0bTdN1u5LyCl1Unj2nBzZVyEzehWkX+FV8vvL09uOy0n7yuM3cvLTPVKmejToE9LQngk7/ltOGwsMrVVvGfvCr+U/d/05OSZ/f/Uh2bXLKm6fGia3G3sdWFp0k4nrtkvlvk99ha5vfoUW98pjv9guf9Bd+u1JBDevkrH3T3V6NoQU97c88oL86vee9bH5wwTFuQOFeXLHBgkTLD/qv8ha149Tt9ZUoYC13XovUj0sAnMm3DVPXv+T1U5t3w/c53h5b2l5g3QuWeXfDtb2q3x7o0y+P1tPjMw6z3pNtn96xr6zgDp2TieOy/bNZfJQfk9Zstfpim5PyGh4biZpBYya9PD4Z7Jt8zIZ6elR4IgTJhRI98kvy6/3H5fPE+pOFM7y04m/yME9FbLA7tnjfe36CBPcW/BlKprc92QIKOs5TLC3xf53pHz6UMNtPnMJE1Jd6lWbsII5XpjgaDNitb0vj7t35QiZHLPuw4Qi3X0/U4CcmpfAN9yn3Wgpe6NaDn51Tm+TC3LqK/W5WSZDdU+FoPoJE+piv2QKE/QxfPagLI0wUWjyNzTbEBgAAC4iwgTUE7d3QG3v+24w8FXZb185+l1OV3nR1OjJGg/8Tibf5Zk/QmnRRvqV614cOQ1fAIDac+46ckGqN2XpfafkL5CtqsdGndyhBACA+kOYgPpTvMWZsCxRJc/mOFY8zPBNzuz4uVzlRRPjDls4sE2e6HuPZ56JGyS/6wR57p1DdpiQfucMAKh/7uSdiSNbIsyV4E6qekYqF2WYGwgAgEaAMAH1qnOZc3u5XMeKh3NPuC5I9eaSnG63hyaixXh5sUoPVwhR9f5GeYReLJedrEMFfHKbK6DJyjZEJSCnCQkvA3lD18luu5dBlFC9p0zdqoJyftcAAJcGwgTUu85lH8jHO8ule50Xc+qOCiek8gV1FwbTclwumt81TGareSY+POTcBcL2qby/a7usWzQ2fH4KNGmECbVAmFA31C2Jj1XJkl5RhvsVyKjNx+SjLdMM83MAAND4ECYAAAAAAIBYCBMAAAAAAEAshAkAAAAAACAWwgQAAAAAABALYQIAAAAAAIiFMAEAAAAAAMRCmAAAAAAAAGIhTAAAAAAAALEQJgAAAAAAgFgIEwAAAAAAQCyECQAAAAAAIBbCBAAAAAAAEAthAgAAAAAAiIUwAQAAAAAAxEKYAAAAAAAAYiFMAAAAAAAAsRAmAJeRju0Hyt/nTJN/je8uE680t0FTcof0m/9LWVq+SsZ1vd6w/HLD9gAuNc1/PksWlG+Q5+YXy81XmdsAUXAs+bE9UBcIE4DLyMrh00SeVMbKW3nmNpetq7rJ6OUbpGz2AGluWu7TQgonrrGK0vnStYVpeV27QwYt3CBLVz0pnYzLQ9w6RuauUs+zTOttbnMR3DR8ub1O47ual9ebRro9GlZvGX9Zv39cajpN05/ZVctl0K3mNri0OPu04fdn4zyW9HfywjFyk3F5/anr7eH8ttfHtuV3qzEjTAAuYdO7PypnZxZHDgbomRDumj7PSNmqNTK6Uwvjcp9rB8mU8g2yeGI3aWZaXudyDBMa6ZX4ixYmNPGeCdf+fIaULl1rvTfzckf9n5RFW4+mTm9niymgNJ90t5CW94yUCfNXy2Lr+0U997llK2Ry8QNyneeqYaoAyKQxFUt+bYYslqeWlUVev6Z99fQe6Td3hSyc3/CFpF/DrsfFChMa57F08cKEut4ehAmXJ8IE4BLm9DSgl0Ht3S3DnrN+qJ6bIG2My/3aFJdbP5jlMqydeXndyzVMaJwuXpjQtEXbrvV/Usb+VVJhgum7Iv2ku4Xc/NAiWZh8jl/ZgjHJk/1LPUy4WIVk43TxCkm/hl0PjgGvxnIM1B5hwuWJMAG4hBEm1I1mnWbK4lXrZUqfCFer3eEQpYPkGtPyekGYgOwIExoTvZ0Xl8ls6/si2Isp7aTbHYJT/u8yrued8gM7OGgpV9/eX8YtWW9vz/nFdyef73WpFWYUkl6NpZBs2PXgGPBqLMdA7REmXJ4IE4Ac3NSyrWwZ8Zj8ffZUZw6C0hJJDL1Pin8QbHu19Lm9q1RPKJF/2XMVTJN/zRwrR3q1lT6+YQY3yVuTrOXDC+3Xfqv4cfnfOar9VPnfKY/IlptTXe/H9hrr/M1MJj0gY4OvHbrcK/p6KM66mMKMQqlWf8d6Hf/jLaT4vn7yxZRJ8p29LpPlHxMGykvXZxhaMHCN7PrqgiS++kCerZfipLV0nW2drC+fKYURuvk17zU/+nCIrK6XW/tNlRlL1lqvqU6ufikLF82XYV3aBIZPhIQJ11o/sMvU4y/J9IfuSj2n65PWY+rxlLDCzvnxXyJ9fnK93DF4rpQu+6XdvmzFSpk8/Ge1Dkyate4ifac/LwtWOAWReo+L9f+nrdNVN8qdnnVYWr5W5s0eI3e29mzrG0bKbLUspBeJEwwFircY28OVtt4rX7I+5v3lhubBti3lhp6BfTh/lhTd0jLQznFN26Hy6NyVGbuxx2J4b+m8x03qpEy9x0Gzy+U5u80vZf7ciVJ4ree1tStv6SWDvNvC2i8L5s+VvvfcmHEbp6tNGGZt56IxviEAZStWS+n0kf7jw+Y58VTH1PD5Mk+v+3Nl82VQYXpoeOUt/QP75XkZ07OtXBloF12qQOiqejKVW5+xG1LL/Sfdeg6WsEDzhkdkplqv5TOkfXCZpa4Ls2at75Ee49RQBP05tL+XFsujodvDNDzDv/3cgCkjXzHlfueFLXf9VPrOU8tDeorp8Dft+z3Kd029Mbw3g7nD7wg8r66/a3Jcj5jbzvlsrZCFK/VrWu0X2/+f2zHrfseHzW/UenCZ/XdmD/6pfizqseSK810Tl96Hi17S37vqtdc6/+9Zp2us71O7l9JzJXK777ehhdw8fKm9/xda32++3+fmbaWoxPtbG6C+D+22cbdHdKnvNfU+Z0U4n4h6TMf93Yq4D3M5n0h+36X2of3ZGt5FWvr2ld7Opm2rfy995yE6ULY/b3pfOp+Z9bL42VnS5aaG+G7KDWECENNNNz4gf7EL7HR/7XWTp+3VMrHXaF00p/tu4gOeeQt0ET9rnJybmd5WZg2RlT902jZImBBhPZR4YUJLeXbguJDtUSJ/am8+IRq++QupOf+t7aNfDTe2qZV2E2S+9QUedtXPL95wiMxaSPsJL9k/KOmCRZf74+953BMkTO4TCB9iFM/Oj/8v5IkFpnVZLzMfck/I4mtWUCyl7gmkgX+d7pCeT4Zsj/KlMiB50qnDH2Px4BZlgWUxtofSrGCMPKFPQIL8J9atpf24f9cnQUEvybift/a0tV73vhmh3dizhRuhYhfxbpFbZtw3ZU89Iq29r++2NyqX4XfpE5zY6xFTptdPO+HW6zxjnAxQc2QE2wcK++b3TZWnQ/b3wik9IkzIauJuZ+tEUp+wer9j/GHCfTL8eattSFigjusuM9T6mIuvug0TMhWYprAjVdykt0+tU/2FCW7Aa/4Od4sB/7Ko3zX1JdM2Tqn/75pc1iPetruma6k9Jt/YPudjVv8OGydA1uGSb1n0Y8kW67smjuul05RVIfvQ4lun1PnBwgldk7/vyd+mZdZ3hXc9rrpLBi0ICRFcDRYmWOcT803vM3g+EeeYjvm7FXkfxj2fyPR9Z63HgtRwtOR2Nm1bvX6+3303TBg7RsYtNezL4D5vRAgTgDiubCd77SJ7qpwb1lnm/Ng5kb7ph3kyp8tAqe7uCRPyHpC/qkJ5zmjZ0S5P7rWDgxbSNb+zfKZf48TPf6Lbewr+ORPkUJd8u/1NP2wjf7Afn2oV2/p1PeIPc9B/J1uYEHE94oQJN7UdIP+wHvtuYn9ZcUNL58v1ypbyeIf+TjgztbdMTz7fo3iD7K23ngnuXRn8xUUYdzhEbQrslB4yTp0UPD9N7vk3N0hR3Zp7ybA5k+Q+X1v3x18XY9f2dn5sokwkaPrR8kid5K+Xp6f0l5/a69JSWvXUV0aet354Dc/Lzr1i+EspLb5fftJCF53Nr5M7H1uRtk6tH1pi/0AvnD1S2ubp7dH8Fmk7aL69Ht6rUG6B8Mzo+5LPt11lnXCobTpvZKAg9siyPa64qqsU2yGN2h5Dk+vSrEUbadtvlkwYnDqxdk/YyxZMl45tWjknfFe1kvyi6c4JXyB0um+KOkH4hYzqfF3yiu2V/9ZBOhYvkOE/T7XLlbsvQ9+bzRMOWCf/wzveYq/LlXkDZaK6grvKKghu9rcfs3CuDCrqIC2T+/AW6TDaOaFabJ3opto6oq1HTF1nydzpY6Tj7TfqIQBqne+X4fYJ9Bopvs/b3vseV8nU4fdLK9Wj5Kobpcs05wR95kP5Tlt3f1vbYlSRO7yghfygTS8ZZb92yBXvrDxhgnXC2mma9T2z3Pr86gLH2Ua6mLqqr0xUbUsHhQYXmbZpXYcJA+Y8J4/26yh57veSOqb7OZ/DpdZJ+7We9smiVQ3PsJ5jb2e1/W7sKD1K5ko/wzrFX98MJ+WK2/sg7buqhfW31D4sk76e7/c43zX1z3ucmJY76v+7Jtp6xNp27n6xPoMT+3WQq3WvrmYtbpQes6zHa3HMur0PpvTxhyhuQRY+OXKWY0mJ9V0TXbJHxdKnpMft7n6xPiuthsgk6/G0dUoGBLqwtv49RK279V01qMB/ldoN1BY+OUY66P2i9neP2er7Lj1sSomwPWJwv6einE/EO6Zj/m7F2IexzieSw9HUOrTxDEcbKpP1ecP0/vq3JdO2zRAm2O9x5XIZ4w53a14oQ2p57NU3wgQghpsKh9hX1v935D3SzbDca3b/CXbxffRnP05bdtOtD8rfVLFd3Ek62o/pIn7OONl7h799v66j7OK+ujD1mKvewoSI6xEnTHh28CSrbbFsaRVs626r0fLGdenL6lWLATLZ+rGIdleGeMMhsnOvrqgx0tm6U3vChGu7SbEaQ209r7hThDkeIoUJa2TmYM8wCVtr6V6q/mawuIxI/zCGz2TvXad86fOU9beM21avR3lpKmBJdl32X8ltZr1XdUKVdoLplWV7uK+xeEbfrEM82k9QVy38hYrr9tG/SNt2zsSdzklW+nCJ2kvfrib6pGxlmQwInJA67yfiCb574jMtfQxrtPWoG+a/pd/j8iUyoK0ueFw/L7X3b/Jqq3VCq04kU12iPe4qkWesZU88fFv6sqwCxZnuAeX+HWe99bbOsC1dmbZpw4w/D7wfm1usr5GJ3SN8F2l1HiZY6+FcQQycbLvFQKk3pIn5XVPvTNs1Xf1/10RZj3jbzv0uNfUYqfUx63ZPD4RbzufkFzL8Lk9bn9yL59p9r7mfFVM4mWHbX9vXKZaXPSnDJqp9+pL199M/a866rZXHOvkfv6LtBJlnvba/d4lXfYQJ0c4n4h3TehvV8nfLuA9jnE8462UejtbM+r1Q3/Gp75scw4TnZsq9geE0eQ8vTW/fiBAmADE4xbO5l0CQU+iPktcNY5CTxXayqM9Q5BcOsV6ngcOEiOsRPUy4Qd6YqNY1k2jbtS45PywRrzzqL/powyGi8Q0DUGPySydKj/ZO4u5v64YJ/y5zF6oTktXyeFHEk/csxbOzDcw/xDePVD0Icjzh03/XVIil/6DrXhpqO4QynSx7iwcd9hi7vnpE2h7rZVzWngK3yYAFpvX0CrzOVXd5ut2rsaHPyLDk1dzaM54opdEnZYbCNexYcMZee8Y8e4W+Tl2f+Oj5RTxjjb38fytagaa4J2mZlE3pYXxuZsF1uN46mbaOT91V1betWwySKaqtr+j1y3Rc1nWY0OymB/xzZHj5tqn+XopZfNd9mGDRYY23p4xztXa9TO7lDRfjf9fUryjHakN810RZj3jbrn6PWbd7uprvx30syjDEKMVznO+aqDJ9VjJv++T8CZa0eRK0ax9a4ix/cqS01T2Krvy3TtJXD0kJD9ijbI/own5DFP/5RNxjWm+jyL9b8fZh1PMJ57j1HnNewf2YYdtmChMM77GxI0wAYnCK50myt615uZdT6A+Xlz1zDKRcbmGCfl07NAjTwGGCTqPTx4ibxBsOEctVN0pBjzEyxjNRVtnSUunkC6H0j9KqJ6WHHoNatqBE7jAGVQG1CBOcFD7HEz79d5PdyT2cv+ldJ/0jnFHgBF9fmUr2KonayyTS9ojSndDdJ5mYTqRbSMs7+sugSYuTkwJGGq4SQfp2NYl3Utb856XJE1mjBgkTWst9U0LGaWv+v5X55NzLXddM6iZMsIp0PUxKFbf+ba2LtNA5EzL3EqrTMOHW4tD5Qmy+bao/A6HrbVYvYYI7rCp51TysJ1kO3zX1Ksqx2hDfNVHWI962c45x83dpXRyzbvf0ZK+iQO8fs2zHUtzvmqgyfVYyb/truj9lv0/1t/1j8j2uKpSHF6fW0Sv0ObYon63oTL8hLv/5RNxjWm+jaVF+t3LYhxHPJ5zj9hnpbrxgEdyPGbYtYQJw+er4s+F24fu3/gVZv3idbv1T5bOOgW62FneYw3dWse28zqUcJgRDgKtl+M8esedH8A5zyByuNLxYd2WINRyiFtQs2cax6O4PrzNngnulIvNJgpZzmKCv8oT+cGahu4+nj0NMTRSVWif9/mLNz+AvFpr3ecZ6zQi9TLJsD+d1Nsh8a72z7evMJxZRqFmhS5ziLWZBZuLsy/D35oh3UuYUsevlidGeeS+UDCc+0dYjBvfKvW+cqsP8tzKfnPvo4yHj0JicmNZBH+fzRkqhb1u729k8XKBZwTjd/dV8xbUuwwTnhF+NiR+qxzu7y0zvx11vz0ScEdRPmBD4TtfHTHpPsly+a+pTtGO1/r9roqxHvG3nXi1P+2wlJw+u7TGrf6P0mHb72M3WMy3bsRT7uyYqPUTEsA+TPQ8M6+ROuKguetyh56uYOzI4hMANfdfL08+mehTZdy8w3oHIK9pnKypnG5n2a/r5RLxjWh+fUX63ctqH0c4nnCEVwd5ODneYQ5m1js7+0ds22BvlqjbS3Z7LIrAehAnAZaJVkZyy7+RQIif6Fspk9+T6B9fK5Pv8EzDedMdD8r+qoC4tlj94JmAc1O4BOWFPwDhJqu64WrfPLUxwAotp8o9RneXxH7qvlUndhgnuPAr/W/xz57aYP7hOFvUa6QQJiidM6NjxEXu+iX+N7ycr8lvp7RFB1xVS+dUFqTnz37KtrKe5TWz6KlbG7pApzmRPuU7EFuLWR2Xy3KnSo/3tyYmp7Il8Okww/KDoH6XkbPipGYWzBgqRwgQ1UdfNyfW4Mq+j9J3hzMa82FqPsK7XGekAxv5Bt28hqCa1S90zP7hO7hjfBTNGStubU5OGZeJe6VVjSO2iJtPEi64s2yN5G75VL8n04l6pgqr5dfLTnv4JGN1Jr56bP8U30ZPZHdJv9mL/xHYW1RX1Yd++zZ178q56rbiTcKWLcVKW7IpqFbm99fCbq1rJT9oPlUef1rN1G14n2nrEcHOxPKH+1vKnpJt+PWdCzKkyS8967d+f0Qo0m3ucriyTkd5JJmvNvA7OMVMuk2f7t3Vz67i0rz5an5fURJAtpVXHMTJdT+xlvG2kpS7DBGfiPqtgGXVfch3UpLCDpi93ugsH3o87Id/SZYtkmLX9kt8h/9ZBikImYHROyJ3AIj/S9o5Y8Li9zaxj8hq7GDCPx87lu8b+zn24zNoG62Xx08XZQ9zIukqxGq9tfd9M7ufu93T1/10TbT1ibTvdU2DpsvnSw77Vn/d4Vmp/zDq/zep1nDuiZA/8sxxLsb9ronO2nXPc2wW+msh2+KJUz6/gOrmhS7JH5E+lz1NqHdLnTbC/A/59nvS4+Wa59rqox7RSH2FC4HxCTQRpOJ+Id0zH+N3KcR9GOZ9we8Oo34thngkYU8e19wKVGyCtkSkDnHmx1CSQgzx3Q/GtB2ECcLm4Wib2KJZ/ucVygP/WkD+WlcNLjO3U1fy/Dyv0TOKYW5jg3iEh7fW9r6OfH26IrEy+Zsz1SIYrft9NL5a/TLf+3xMmqNf+7fjJaW2TwgKORR9IQt8asqZmp8wytYkprXtkJu7kPFEK1TjcHw6j4OzLwTBBuV7u0L0YnpvvPbl124bzTsbk/BCb26lJn/zDLeIIufWl6mY7baH9/74f0hY9ZIzpdkgu4w+sc7Vj8YynZJp1EmC6WhB3e6SKhihtrZP25LhkA98JWub1yP0WhB7JICTIe9zECROyHB+Kab9EWo84su/DnMMEy01WQRK2v3MveELW4Sqr6LGv0AVf+3qrIAjrmmsVb1PMY6WVugwTkqFGmLT34x2bH2Rep9DbFnpfW4d+4czHkl2wWUXExCc2hN+VIafvGrcwcJiGb+Um/BbBDftdE3E9Ym07t/gNtLEKsXEzajEfj5cOA2dbvwHPhAX+sY6luN81MYR8Lz43v1QmqiEKvn2o51ixPvu+ENF9jXL/HR3uGBf+3bF4yWJ5tLvn9tE5fraiiHc+EeeYjvO7les+jHI+Ee97Ohm2BtvNX2pP7kuYAFy2rpY+t3eV6gkT5X91If3d7Mfli4H3OVfnfW1/LHO7DZXEjEn2VXkVIvzvlEdl9303Sltfu9zCBHtIwT395IvJJf6Ao6HCBEu3O3rLF1N1SFBaIomhajvo1/GFCZYrW8t83/bwCAsTvtdTlu+/4IQJ56vkWWObOMLG0pr5us4alueupdxQNEYmzF+dnCtBTcL41NypUmRfxfG2dX8cgz/yqR+2hU8+ogOF7D+k2cKE55atkBnj6uCOA1fdKPeOe15P3KcmAZvlvDd9MpP2g968rRSNWyxPLTOcYIT8wLq3CAvfn/G2h0N1CR7p2zdlK1aat4kamjJ4rpQuXZt+0hAovK68RV3h9U5sZ22TRdaJXta7eUR3TaF/vR3e4yZemGDvw2LPmGs1Uai65dYtPZwrmSH7Jft6xNOsdQ8Z5plX5Lllz8uE4b3khi7OcJrahAmm/Z2Sa8ETvg7JYzbtta3vhJ5TZcYS91iKdnzUZZig1uHWftbx7H4Gy9fKPNWD6o5C6auKadM2TfsM6AImdL1byHXdDZOjeV8714LHneU/23d2Dt81yeEmludKuhvb5OSqNtLFsC5p30v1/V0TdT3ibLvm1nEzW39u1bE0e4zc2bqF+bsmJ+6dPKzXDwv8Yx5L8b5r4rmy7UiZrD/f6jdl8vAu0vIq/RuV3Ieenoelg9JCRLdA9fVKbP2QTF5hvYa1jRc8b5p00FMc12OY0LxNX3uOjqc8x2jG84nIx3S8361c92H28wnlerkj8vfd9VJo/X7O15MXq/UYo9rp4IAwAQAaSOc1h+quZ4I+2Yx2V4Z4wyEuRXV3UgcATdldMkRPcpfb7UKB+nCHDFDzEC1/SooCtxRUw9JuG6UvGFyCRSouDYQJABqxDtJp/MuyO+EMczhZuUDyjO2icrtymsfSBrndcSMNh7hEESYAQGZqzHVyfHt93NUHyJV7RXv5M9LbN/dAS7n65vtlyFNOz430HnhA3SBMANA4FVfIIXeuBEviSIWMyje0Q60QJgBAOOc70umRYE/M+lD6bPrARXNVVylOTmppVrZkqrTP+U4gQGaECQAaJztMuCCnvjou21+ZJ90JEuoFYQIAhLO/I0PnswEuvmat75Eeah4L39wDzjwZYwareRnMzwPqAmECAAAAAACIhTABAAAAAADEQpgAAAAAAABiIUwAAAAAAACxECYAAAAAAIBYCBMAAAAAAEAshAkAAAAAACAWwgQAAAAAABALYQIAAAAAAIiFMAEAAAAAAMRCmAAAAAAAAGIhTAAAAAAAALEQJgAAAAAAgFgIEwAAAAAAQCyECQAAAAAAIBbCBAAAAAAAEAthAgAAAAAAiIUwAQAAAAAAxEKYAAAAAAAAYiFMAAAAAAAAsRAmAAAAAACAWAgTAAAAAABALIQJAAAAAAAgFsIEAAAAAAAQC2ECAAAAAACIhTABAAAAAADEQpgAAAAAAABiIUwAAAAAAACxECYAAAAAAIBYCBMAAAAAAEAshAkAAAAAACAWwgQAAAAAABALYQIAAAAAAIiFMAEAAAAAAMRCmAAAAAAAAGIhTAAAAAAAALEQJgAAAAAAgFgIEwAAAAAAQCyECQAAAAAAIBbCBAAAAAAAEAthAgAAAAAAiIUwAQAAAAAAxEKYAAAAAAAAYiFMAAAAAAAAsRAmAAAAAACAWAgTAAAAAABALIQJAAAAAAAgFsIEAAAAAAAQC2ECAAAAAACIhTABAABcIh6XdYe/kZqzX0tlWU/D8sarzYjVsu3Tr+XU2W+l5vwXsrHY3O5ie3a3Wr9v5XTiuGx/Za50NrQBAEAhTAAAAI2GU8yGFNvFFXLIKnRVsVuze0X68sZq4Kuy3w4RXI0/THBckOpNjxvbAQBAmNAEDN/8heeH35Go+VoO7n9Hyif3l7y053SQoUsqZPunZ+S0bn868aXs27ZahrbztntcNn7uf111YnHqq+Oy542XZXyvAk9bZYVsV23STvB6WicnZ+znVm8ucdanrMp5vbMHZWlHb9vm0veVz/XfqpJn1WPek8dManFiqa4YvVn9pZw847yWvf12vCyju/rbmbZ1zZkz8vmn+2TtnPRt7T8pC9LvT3G3h7WNdq8s8r1Gcj98XiHDfY8rw2TtIf16hm0Zfx96DHxNPtLPSVS9JIWGNpG3Rw77MPK2s4R+Bva8JjPS3qNpm3j4jiN9TPt8IyePfyZvrhgtbXyv64h2LKXW4WjFdM/jlvxF8k6Ns+zQ5sBJfH5/Gb9mu+w7nvrsJmoS1mfXsy+Tx5KHtU8OV++RjUvS19m4D7082yPed02W7WzZXuZtb2k3Wsq2fSaHvzonCbuNta2tYyltvU3v8ew5OR62X9zjL9Z3RKbPVk9ZsvecteyC7FkVdnXcff8J2TKtwLPtErK5JNg27LtTif4Zj3osxflsXQwZwwTr/V6KPROGbDphb9+TVS/LyHszfO/G0KztIila9xeZvkNkzvsis9/9m4xevlauvcbcPpb8LjJyzUE5qY6JLytloqkNAOCyR5jQBGQuBqwCfmugm2KGwi5xZIunYM1SDJw9IVtmeU/mzCfEw62TKFUYnLQeT66Hp3jeXuY9sfL+zYYJEzrP2ymf+a4YeSSsdfAUgVm3tRuWaPHDBMvJt2Wc5zWS28QUJuiCf8/uKjml/rsqJIhwXzsobR+mOKFOtWzfrYqmalmeVsTE2B4XIUxICuzDrNvEdxyZwgRX+v6Ofix51iGwX/OsY8EppANhQtdFsvXEBf9rernrbSq0PU5WrZOH8lN/L/M+tHi2R7zvmizb2eILE4o3yIcJczvF1zbbe7TW2fid59u3WWT7bLlXmhMfyDzDZ6Pzqmrne69ygX2MeLddejiXIUyI8xmPeCxd2mHCpWneTvXZPSIvPmheHtvdG2RkpRMiBM3+7Ta5vi4Che8VyfL9jeOYAAA0ToQJTYBzkuo98SqQ9r2myIKKw85VhfNnpHKR5wS0+HXZve9tWTC+h76C10E6jX9Zdtsn8t7X0Sep3hPU/C7Sbfwy2XxQ9TSwlvlOpNNPiPPGVki1dcKdOFIho9IKmGrZXXVBElb7ZEFmn/R/Lu+8q5aHnMDkUhiE6Wits33l7ox8uHmh9LF7Zljbb8hC2ajfo/fEP31bN5c2RaOldLO7rf3LIp8U6+Lo8KHPrYLhnLwzzxCwGMIEdzsutwpN+wrk/nWBIiXuPnTp51mv13ne+yFFTPztkRRhH8YpKJz18Bac1j4cvVoqdfHtv8Ifvj3T6WPa27bd0NT7O2sdo+5xHetYcl73UNVBOep7jwXW+74gp959X3b61vtx2XDEeS+Jrz6WzUumSCfdiyjv3hEyac12+dPWpU5bfSx5i2+1Tyat+UAHHVbRH9ZtWT/Xv71S0vd3lu8aj8z703nfat0+27laRhd1SD7efsgcKd9xQt5a5GlveI959/aX0StS79EXUubwnZH9s2W10UHp0a2lvlDpio5LpVJ9n9YckCU6QHKP0Y+sz3iN9R23dqCnfYYwIft6xD2WGn+x3hTDBOc91VVR3kfu+9V3Muf972Tq+tfkurzbrMduk/9z/2s6YPhORpeODDwnN3W73gCApoYwoQlIP8F3Fciozc7Jbs3Hr0oP37J0U99WBc8J2TDcfSxD0ZVfIht1cbN//UD9eOCEuKv1b3VCnXZl2F3nKlm+8qAkPAXZuIqEXXBNtJd718WjDsMEd0hFWjGg5C+QrXbAkrqalGlbL9mr2voLnMgnxcki7iXZfNIqGK391Te5PGw/6MftfesWY8EeBHH3oaa3sf14vrUfVYFmKqZibo+keg8THHkvHLAf9/+dWoYJthLZdNy/fvGOJV0A6v2dLPQ6viS7z6pu8M7yxE4nIChUnxO1HobPUhpDoe3qbC2zi/6anTIrsMwWO0xwZf+uybw/9T6JuL8zvcdRW75Mfw+xvzOifLYs1mdok17vTWPd8KJAJm5NWI/5h0Akj9FVah+neiw4y/VxlrZ+UdYj3rGkxPlsxZbfX2Zs/rMcTnxjv980gc9ScFiQGq5yyv7/wPrpfe5l/G5ppOq0KC/aJhNUL4SK36f1QGg2Yr/MUMte/4208Dyeq8jrnV8qrx2z9vmZY7Ih+VkAADR1hAlNQPgJvqXjOtljn3gdkCWengE++V1kwNOVdg8Cf/fgzEVX4apq+4SuZm+5Pin2nhDreRLOnpCNhhMLZ51ViGA956x7FXG6dTLszBmQ8T3VWZjgduEM73rqFibuSWv4ermvdUEqPVdQI5+0e4o4pyj1jqsO2Q96O3z0yjD7326XZn8Pgrj70OG8T/fqaXgxFXd7JDVQmOC+P28hlW2b+OljOq1tqWz5Uq2fG3jFPZbcAvBxZ93169uhgT3MxftZSm3L9Pk0DDIU2qn1/tIqfg3LPcdh2jJL+P62ZPmuybw/3WNMDcN4OTB3i0GG9zhxa429rHrTY6nH435nRPpsOfLm7rQDmmQAqIc/+IeMeY/RAnni3XPWd6N3/gPv/k49J9p6xDmWnOfE+WzF486Po14/hOez1LnsAzlu9yQxCayf3ude5mM8JsPrBoV9HuKIXJRHcNWUY/ZwhtGlQzyPq54J62Xwf/5TZtvDHT6RuzzPyZWz3hnOH1ye7Xh6xxJzGwBAk0OY0ARkPMF3C6e05e7jrr/JJ289J919JwxZii73BD253D1pLddXKc9YJ3vm8fjO+FF1YuUUEafeXSR50yrlmO6lkPE9xS0MQumry5kml9InSO7JpGm92hR5unnXvC9PeLahcyIWwrtdvX9Hd5c/Zb0/pyeAeT+krYt9JdJq57syHHcfKunPca+MB3swxN0eSRH2YeRtZ3HWw1Nc2AFZhR6Df0a2zvUGWsFj389foOhj2vP31Psr23na3h6pHiQxj6XhW6Ta/X97W6jgxgkNnGPNWwC6AYA3qDC8B3db6r8TVmi529W4PHC8B2X8XCbXybzc+bthz7V0XSGVXzmBQs2Z/7YnlZw0wB3uEGB4j85wD3eYQ2AYQczvjGifLVeR9X2mCuhz1vo8bL1PNceIt6eCw3eM6vVJbef0gj/1nCzrEetYcp4T57MVS8nbctR6jcSJD6RsdBc7oFT7pXSr+j0IDK9xJ4c8+7XsWuMdttNfVv5RrUuGYyXLMR6Lfq1Mwj4P0aghVxtlj3qvafPh5OYnC87InPf/KQ8Nc/79/c6rpPfGv+sQwXVGHihKf25cPdYfsbaBmg/FHboVouMC+S09EwDgskOY0ATkdoJvKqguyPG93snZdJuwk0v3BD25XJ+0HjvlPF69UboHn6PZJ7O68LKvttXslA1qiIN1wqtOQJ0ryjWyZZrh+TELg3DphWKaQHHlFgRGZ0/L1nn+8CTySXvg76jhHqmCyLQfVC+O4GOmq+Nx96FFFwS+E2j3qnOgmIq7PZIi7MM4BU/4enwjH23yT5JoPvZT/AWKPkYMEl994BlyEPNY0u/fucLsrM/+zVusQtH9nOoAwR5a4q6D96qm4T2421L/nbBCy92uxuWB4zAot+8ah/N3w56rqS7yr+yTj2t0qGB9J506ukfKJwSOI72eZmfkw/WBfR7rOyPqZ8ujq/X5UEX+mW/su2z4hzA43GPU2e5FsrTKeo/JsE3vY9/6RVyPWMeS85w4n61Y9H750ysP+x9vt1reU6/teX9uL4u0O1BYsh4rWY7xxsL7vXT6iz/Li3VUZDthwhnpOUTdzeGszHIDhB1nZfDEyXLvL+suTFBDeV7c99/Ju8fU6vgAADQ5hAlNQOYT/PSx3WnsCflWyzZ1VcE6WUid3OniIOzkYezv5LDv5MI9IS6XUVvUOqXPdu+yTxbd5+mhDomznokHM50sxioMMtEn2RGuJrtdpk1Fq3NbTfNtFiMVUIr+O8kiThcnTlFi2A+64A+eiLvd+lM9COLuQzfICN6+zlxMxd0eSZHDhAjbzmJaD/Uets7tYWifZZv4uIW835cHXg10xY95LOn37x7f9vqrz8Ch13RPB+86LpVK+2q7Ycy+EtyWGQutLHNZBI/DgNp818TZn2pS2D7TX5Y3P/naLjhVQODr5aTX08u5FWiFLBhh6M0Q5zsj8mfLr+/6I866htzdwT1G3e2uemIdtb4j969XQxgMYULU9Yh1LDlt4u2LGObutCdrTZzYKQuGpHomLKh0evIc21qabOtsD/MwqKzrl/EYbzzcfa4kao7K5pA758TlhAluDwQnRBj25CK5Rs+fcNca9XiNdPtZ+nNjI0wAAGRAmNAEZDzB17cVqzlrneAGlwW5V5+TJwuZiy53wrnUeHTPCXFycj/TUIfHZMMR7+vq8dLeLvGZThbjFAYZ6fUIu9poccZfp054M25rg5zDBGubpMZVp+8Hp+BXrx0i2YMg7j7UV0ODr+fhLabibo+kCPswlzDBOV5Ut2J9dxLjnB2Zt4mfPqbdtupODnaX7eD8IjGPpUUf2K+RPL719nDHxvvX0X3t4F0+/M9NbstMnx23a3nY5KZpx6Ffbb5rcitgC6T7C3rSSO+dM+IWkzG+M6J/tgKy/A3/MaoMk7WHrPYh8xpEXo9Yx5LTpt7ChO/1lLI//i19XRXjbXbPyda53uc7GjRM0K+VSdjnIZoO0kfPSVRXwxxalH7phAi7/i6jlqySVtd6l0+Tnm+qZQelnec5uXJ+Iy5I9ZYnkkNRAABwESY0AeEn+KnJsOw5CXzLDPLL7VuI1RzZIkPsxzIUXe6dGnwFTuCE2G2TVtBFKOYynSzGKAyycSdrO7TF0IOiq7U97DG9qYnSMhZTBrmHCZZkUbAosL2yF/ypojbmPtRXQ82vqXmKqbjbIynCPsw9THAUWttUXSVNf+8Rjr8kfUz72urnW9tte1lqIrxYx1LWYsi/jm5hmfj4NRkUnIMiuC1DX9tzx4XkVesA03HoUZvvmtwLWEOPh6zbLyDyd0acz1ZAlr8Rfoyqz195IEyIsR4xjyX1WL2FCcVbnIl8jx1P3c3hzBk5vK9CZgR6Kjlj8Q2TWia/lzKsX9z9n4l+rUxqFyY4nG3uHapUC713yGQVJlRsk58EljXr956zrE7v5hBhAkYAwGWJMKEJSDvBt4ctLJPNB3QXYauY35DppFG1H7FQNtrt3W63aln6Sah9L/clb8tePVGaf8byQJig2o+tcK7I+K5KRSjm9Ame8SQucmEQgfta58/I7lfm6Amm1JXt1VJ5wnmP3lv9xS2eI5+0G9+vHld98qDs9m4vXfCfqlzgaZvi9jZwrkzG24dO0Wq+Wpi8kuqZ3C7u9kiKsA/jFDymQk2t74sfq/cYvAtChOMvyRQmWNtQz+Dvu9IY51iKWgC6xYc7Jt96zsmDb8uC8T2kjW7bZup/OUNV3G2Z9todpNOIOVK+45TuqnxGKhcFCjhXps+dpTbfNZn351L57SfbpXz6aOl2b6robFM0Wia9clBP5um5nWXW7RcQ9Tsj1mcrsDzL3zAfo05okKg66PQKc58bZz3iHkuWOJ+tOJz3+KX8Zs5g6dWvv7TPVIC6wWXioJTbQ1PUFXx30tQs6xd3/zcCzjavozDheyXyQIUayvCdTHpxvVyXd5v1mLqbw2syslI9/k95eMz9gefkJvJ655fIhsPfWN8B5+RA2jw1AICmijChCXBPUo3OnJI3A5Pghbe/IMd3Gm4NaWz7rZw+tl2e8N3zPj1MUDqvqrYLjcSRChlln1wukK3qKm1jCBO8V2sNTh/eotfZkVZMZeGciIXxnKCFvF9nXLVur7eXcwU8rOC3uNvHvvocZx/qcf/eoi3APXbcYiru9kiKsA8jbzuLu17B4iK5/U5WysTkfqx9mKCuxC/f7wQVe1a5n6/ox5J7VTZOAdh53k59p4IQ7rbUx5LR2a9lb2BywvDvA82zjzK2TfuuyXzsKan3r7dzKPOcCZGLSfd4C6PfY7zPVsiykGM67Bh1vx9zXY+5ORxLcT5bcfRYczj8+E8cl+2vzPX8vrhhX6DtmWNSuVfdRtX7vZL9WAoLwBqLug0Tmkuz7tvk8V0qOEg3fc1qaW54Ti4ir7e+q4izP8KHewEAmhbChCYg7QT/7Dk5fvwz2bZ5mYz0XOULba+6oVbvkbVPD01e7XSkn8CpSc5U241LJhiuOpnDBG8XaGeceVg7D32yXP9hglIg3ee8Jts/PaOv3F6QU1+pE995gVtlutuu4cKEVG8Ai13QugV/yC0Xbe5+Uz0IYuxDdWtOa3nGITGBYiru9kiKsA/rIkxQvTucW/Vl7nETLixMsLjvIbFTZiW3Y7RjKcp2M53E5/WaKeXbPkt1Ibdf/0vZt8Mz8WBamPCNnDx1XPa8Yb7VYtr3QZBnH6W1zfhdk70ATO0va7tNfll+vf+4fJ58b6oA/Yt5UsV6CRPifrYCy7Ic06HHaHIei9zW4792xj+W4ny2YsmfKb+xh2eoY+5rOWUIv3wTSrabJmv3JZx21rF0RA+HSP98ZD+WLrcwQfl+5/XS/7W/yUwdKsz6/V9k2JPP1FmQoERf7wKZuNWd5yOH3wQAwCWJMAEAANRSkczbqULjL2TzxGBo1UH6/OJAyBwmlwenKL/Urti7d/GJGILM+oOcsMMEeiYAwOWCMAEAANSSO1TlC6l4erRn5v8Cad9ripTt1pOI7l5xWY6nH7LphP3+T1a9bOwx2Ojkd5GRK6qcYWKZbnlrs/bxkIWyxb6Dk7WPP37VPMErAKDJIUxAk5K5+27AZXqFDADqXsgcCF6Jw/KLy7X7+8BXZb9v2EfjHQrg/x29INWbMg0hCcx3ErgFKACgaSNMQJNCmAAAF0m70bJg8z45eMqdM0Rx5g3Z88ZqGZrsrXB5ajNitWz71J1LovGHCemTZpo4YcLpxJeybxv7GAAuN4QJAAAAAAAgFsIEAAAAAAAQC2ECAAAAAACIhTABAAAAAADEQpgAAAAAAABiIUwAAAAAAACxECYAAAAAAIBYCBMAAAAAAEAshAkAAAAAACAWwgQAAAAAABALYQIAAAAAAIiFMAEAAAAAAMRCmAAAAAAAAGIhTAAAAAAAALEQJgAAAAAAgFgIEwAAAAAAQCyECQAAAAAAIBbCBAAAAAAAEAthAgAAAAAAiIUwAQAAAAAAxEKYAAAAAAAAYiFMAAAAAAAAsRAmAAAAAACAWAgTAAAAAABALIQJAAAAAAAgFsIEAAAAAAAQC2ECAAAAAACIhTABAAAAAADEQpgAAAAAAABiIUwAAAAAAACxECYAAAAAAIBYCBMAAAAAAEAshAkAAAAAACAWwgQAAAAAABALYQIAAAAAAIiFMAEAAAAAAMRCmAAAAAAAAGIhTAAAAAAAALEQJgAAAAAAgFgIEwAAAAAAQCyECQAAAAAAIBbCBAAAAAAAEAthAgAAAAAAiIUwAQAAAAAAxEKYAAAAAAAAYiFMAAAAAAAAsRAmAAAAAACAWAgTAAAAAABALIQJAAAAAAAgFsIEAAAAAAAQC2ECLhudyz6Qj/euk4fyzcvrVcelsu2rC1Jz5phsGFtgbnOJK1r8nvzxk6Oy8z9myi2G5cDF11fmVX4q+6sPyvpJdxmWo/G7SX47frLInAnyp8IfG5Y3LRf1d+tSlD9V1v3xqOz/6D15tncrcxukiXWcdV0hlUcPyPKhTfNcBkA8hAm4LHSet1M+O/utnD68RUbVx0lZcYUcOv+t1OxeYV5eViU1arnl0ObHzW0uaX1l8c5jsv8TpULGGdvgYhu++Qv7GNxeZl7uk+2YvhQ9sEq22ceo5bWZ5jZo3PIekL8+OU1EGV5obtMoXS3D7+knX0wukX+565/lPeTyu3XZf8YnVejfoWOy7YW+5jYIKJBR6w/LSetYOGkdC52NbVLyxr4qHyas4yZRJc92NbcBcPkgTEDT13Wd7LFOyBJHKuonSFCynZTVac+EmbLBLYiSPpX3d22XdS/MkM6tTM+pfxevZ0Jqe1T99mm5PrC86IW91rK9svgB/+OXowYtNDwn9UkffSyVb/9aFpf0lh+ZnlPvLl7PBOc4VNvhgLwwILhcH8MEHBFcmj0TunV8xB8iZAsTcvzduuw/4xexZ8Kl/RkvkFGbT0ji/AWp3lwiecY2KXljK6S6vs+rAFwSCBPQxA2TFz+2ivizJ2RjfQ4vaNArPKYwwaPqbZne+XLq3undHukncYQJKRe90PB477fPyL0tDM9rolKFhin0Ikxo2m6Styap8OBxqSrMk3uvNLXxyv13i8/4xXPpf8b1cXf+C9lYbFru13f9EUlYx0/T7G0JICrCBDRpefPel1PWj93RraVZk/ZauRhhgvekpNUd8rOhi2T9+0edE5l3V0qR7zlNmd4e7+2SNw8ckz2vlEhzz3LChJSLUWhsmJR67EdteslDT22RP1SrE+6j8lbZ5dMN2S003qzcZf13lzzd0bucMKFpK5Rq1QthXJH0My73q83vFp/xi6dJfMb1MZHYvy7rcIcrvve4bPzcOn7OVstyhjsAly3ChEteiTxQITJnzWppPmKvTNxh/f+uv8uQMX2kWfe3ZMy739n/HjWjxP+8awbJrU9+IuN+/y+Z8756zj9l0ivb5Na2t6XaFG2TCdayh63Xun35WZll/f/sbQflrltvk+vnfSUzd6l//1/5WZHndW13S6uJe2X0m/9jP2fO+9/JzK2fywNDBkmzZBu93q//Rlrc+owUrfuLTFfr7rYd2Cf1endXyFj1Om/tkBuTz09pNmK/zLCWz/jFUs/rKwPlxY/VD91BWer7UU/XZsRq2fbp13LqrNVenVwF+E7M8vvLjFf2ycGvztmpvFp+ukb/f+CkzD2xS4mW+GeW4aTkNmtZlTqJOyQv+v7ODdJ55kb5z/cPSZV6rhoW8ftfy+T7b/C0aSUjXzlknwBumm26GlYkT1eq53pPkvS6eGU7WWrVWyav2y6V+z512lcfkj9UrJKhd6X3pvjR/XPlF2/vkz32iekx+eO+92XdzGD3Wb0OO1fJ1PID1uvtkLme/W0KE5rfNUxme9dBDxP5he+19TwQ1vu5ZcxG+a+P1Lo63eOb914pbxw4av/710/7T5ab3zVWnt78vryv2luvXXVgn7z+wli5vYGv0OX1midr9xyX4zXqSpM69r6RU/r/0wqNGMd0ZIZCw3WLtew9td0PbJJHvMta3CtDF70hWzMdGx1fkDfVsj3rpI/3uVrzMZtlj7XcFyoZrqCa1svL3Y+71H5Wz/noY9m6ca5hGFGUz1aq0NjwxNOyyTqe33t5vCf0Mn+mf3T/DFnsXQdre+z6/Rvy9Mh7U8/V80BssI7Lkev+KH+0/r/qj1tk3G2tpHvZTvuzU/XHSikNhGnRPlv1r1t+Z9k99nH53zlOt/9/zRwrR/reJcODV+8Lh/iHB1iqCwNtXN55FUwMQwvaXn9fYD0ek/333ShtA+1Mbb+bPVESQ++T4h+kt3XoMCHSHA/Rf7f4jKc+4+7nKyV7gHzxP+PW65askl/9/s/Jz2HVgT/L1s0v+LdHg37Gi2RplTqGErK5xLTcr3DlQfsYOlox3bg8aeAa2fXVBUl89QHzLABNDGHCJU8X5RVfyuh3VTGu/fqojKz0/PvdKinwPOdn//E/qWVeu2qkmxsO6DBhwutf2sW622bshqMy3fPvGSuf06+r9JG71oS89vufyF2edbDX+50aedy7nq5dX0qXu92298s9G76zHv9/8mA/9zHXbdbfU8u+kd69A8sefFX2qxOl/euk0Pt4gDv2zzkZM0uemOWXyIbD3xjb2C52mGDpv/oj+8ShcsVD+rECeWTdPn0SFFQt6yd4goMB6+Rd63HT3APuCZ5/WcwwIRl2GASed33xRn11K917/zE1fR12rpIivY7vlj+cfJ30MME7WWTQUXn9CXcsvW63c4dUHPC0qXxHXvO+B+/J8gOLZEvI+2vI3iJ5Y7fIR2e8x52fPxyLd0xHlqHQuOJ7I2TFXrVdquS55Oe2r5RurfZts6Tq3fJscv8VyNTfqpN/07hkNxALLIsZJjTvvUreCjn2/JO6Rf9sJQuNSXodq9+WqcmxxqbPtOGzlXRAVgzWxYYuNLa9s8MusNw2b/7nO04xp+2xChv3taN/turXTW0HyD/cAj8gLSioszBhqvylx02+9h3b9pNzOhgI+sew9tLR07abtR5h6ywzh8hKNzQ0rG+6sfJWXuq1bZF/t/iMe5fFDRMaxWfc8L2UtOdl6e8eSw38Gc8rq7IDgkjDF/JXyHZ1/vR5hQw3Lde850If/Wq4sQ2ASxNhwiVPF+WqAH9rj9xy7TTp+ab+d6VVvN/aRzq9qv5dI91+5jynZemXMttaPn1Dhdzc4W7nda4dLjc/6YQEszdskKvUYzpMUK81+YVn5Pvdfy8l+t/TVU+IW1+TYvXv374lP9br4772nMqT0nv0ZPk/16jH75bmPVZJ743vSzvdzrfeu87LkIkzpfm11uPWetytw4ipzz+l22bofXDjBhmpeki8/htp6X1cWfSB/YNYvekx/+M+bgp/Rj7cvFD6tFOPdZBO41+W3fZsxR/IPM/Vob6vfG7/GJ4+/LaUDumiu6Ba7ef8lxxWP5QZTsqcH9P6DxOSJyh6efPiTfYJR9W7/yFje7ZxrpS0aCP3l/yHczLlu/rj9j7YJtMDkyo5J0qHZM2Y9B4EjizrZb323HecK0DvbV2XWpdWd0jPknXy65emptq2GC8vqqLcOsH8/7d3/99RVHn+x/8Cz0FdlxGGYfwWERm+CCOCCggb5DvyRfkiBjAGkCRA+BZQEIwgBhQGBEQGUVwRxY0KymaGbwI6g6hMREcQPyBIZuLCysjoeNbj4Zz3p27Vre6q6lvdVSGBEJ8/PA6k63Z1dXVV972vuvfWisJBcq1dqbpKru0zVVZsDVYy9euqMMGq+I1bb1XiPiiTcXr7TWHCY2/slKdnj5Y7WukrS2p/zH7LqZi9XSq/1eUSocOeF2TIVXfLE+/ov/da62/TXoo3qb+tSrB9pcV9fxXy0vzRcou+uvXL20fLI6+pCnRYj4+aNkKe/URV2r6Vj8rmyeDb9Wu26y1T3jxuH7/ehsa5HNNppW1oNLQ+J2dfuss7lmy3K+zvvPak3H27/lyu6iZ3z3c+F2+I5V6Z3L5iZGJ9tsbWsaCO6fInwxtiGbYrcexZn9cf/3N+YlsaNushd89+RV54PNnQiHNuJRsa1t9u4yDRaDGdO9Nk9Y7X5fHCodKmmT7nrP0xcsVuez8lGg56XWrdW1c9IL/st1LK9d/vWOtr0Wa+vKr+3rpU7lDlY51btevJEUVWgzpf9tzcNNEDoG3jFrJkwEjZcUtq+QTdUA8NE0wad5SKaZPlXzkdpYf38cvbyXvW4zIzT97t0FzPZ3Cl3H59R3m3QG3fg/LHG3XZX1jrmK5CgEL5rFsL6W73RLDKXv1b2W6XtdZ/z01O2eqGCZF+tzjH053jqd/5AXXlHJ/wivz3huUydsBt+jxUvxf5ssQ+Dz29C8/3Od55texRx0WGQMuRLYv3qWOxQhan60mTu1beo2cCUC8RJlz03Eb5j3LvmDvtx9qvUn+fldGTnKECzt8npZfd42CYdHvZ+nvrPrnJbuh73SmdXrCW7dzvNPrdMGHrAWnfTC1fIffajf/D0qml5++yLXKN/Xx3W05Kn56e4RJGuuzW45IdLNtsnYxW6/WEFJdcOkP6bVbl/dt9xaTD9nsfMjL19Ya9dCSlUpVKj/n7+h2ZGVg2pqzSer638e+ODzR0P40w9vRChQn3Paeu4gTHbzqcXgxuY9jRcb4a73lYykq6eMrqhvV7z8mgxGNBGbbLrRDtWCk93SsuYawKnKpIvjE/O3XZ0Odku7Vsc2kf/Zh+XTtMsP7WvSvc52asWCYE1pMIEz6xKodOZd2pHCd7Lzh/63V3LJUy6/nBORtszR+Vl61le//TE5jUFnfM695nUiqC7tWh5Dlxbsd0WrEaGl1k1tvW3x9skFEpx0ZrmfK6taxio+S5jzUulFWqt0igC3VD6zVVY+Xlh9KENhm2y13HnldmZrwrSZxzy9fQcK+8Jt5vhnPHyz2P3LLu34kATa+rYotMaeP52z2uY51btWvKgAetBnWRfDMi3RABg7hhwuU3ymarsX+2oJcUBIdPtB0s/2et60SP6/yPKy3vkn9ay/7e22lsdr4jx37dfwxqLTcEyzbuIodU74Ypd0lxcFmMYQ6Rfrc4x9Oe45m+8+v6Oe5fj+W8n+MlsqnKOi4y9DZwTS//pobqNgAuRoQJFz23AZ8cQuCEB8G/3TBhqQzbqf5OR/dicMOEVSv0a+nwIPh3IkzQf/tCgDB6uxPP9dK9KwLLmjxcaW3bWRk1wQlNLrl0lGS/YpULmUshtVJlosenqp4Jzz8kXdyeCVPXO/dR9qXtS2Sbqngd3CjDguupQ2FCw8lv2hURZ3kfeWyr9X/1d6hDsibfs47mznjP5BV6i26ge4cPpMpQWdIVzygNlTtKdwe2MVWyYR6oSF3a3qqYWpW4vVYl1KrEmSqWDbtO8o9F90oJE6wKnH6eUzkO/q3Xnb/RrqCmrM/LvXJUm0r32se96cpm6jlxbsd0WmkbGldJwSvOPnGWF8kadcx591UKf+jVX82P4ZsbRFfefV2LDTI0gJzjJXBOGMU7t4INhIZWpX6rtbysRFX4zedOi4Hz5em3/pyYf8PHLRsMF1LW5T8/4p1btcxq5L+ubvOoGtoPT5R/5efI1m6tZUimYCFWmPBrWZpT6B+C4DG6d55+/XBnR9xilx3bd6z19wR5r23qepJ3bLBeJ2VZ9DAh0u8W53jac9z0nZ+6vC6c4+2l7+x18l87P7bnQQiuO7Ffz/s5rgOoiGFCzdVtAFyMCBMuenHDBN3gT+scwwQ1qaJ+7XDpwoTZctfbhmXukAZ3GIaemHHsw6M8z02KVCmzZBW85XT1TBG837KulH38ovT2PN9WZ8IEdzyp22j3dNUPFaxUuetIXo1xKnXmqzNJ6bbLoiue/h4PZm6lLJ3wMMGqxNldZJ1hBSkVy15LQ8fK2qobJuj3l9Z5DBP2rbknZVloQ6Oax3Ra6Roa7lXHRONBf4Zp+Rsa7hweiZ4gOgQz9gzxihQmBCcwNYl3bgUbGpdcqocU2d2kU8+d6/I3OsNuwrhlYzY04p1b58OV0r/F7bL53tFyutgZKiAz8+XDjr82lNUihwlXSkHfPDk77T557uorDcvdgCAZHJj4w4R82W73zAs6/2EC57hZyne+cfmFPsdbS95/hswfoSXWc97P8Rmy8bh1XEQMEwo2VVnHHGEC8HNFmHDRixsm6PJvvyPN9fJQscMEHQIkhkGkkyZM6LddJqr1vrDOCQ0S2shNT/9ovZfj0u3mhtJswbfWax2S2+whGAZprt4kZcucHSel6tQJ+ThxN4czcuyrL2TLkjxp5Suru/4dL5cC3+Ot5f4NRzLOin0+woTkpFLJhr/T4E2dAyEt31ABZyIt46SMPuHbZdPdK/e+/mjGrqVuJTVtd/UEf0XKeUxXAsuflFGBiqU7QeU7r82XPu6cCcb1xAwTdIUvZYzv+TZrh31bucObZvgfb14o6w4GZ3o/t2M6rdCGxlXS80ln3H9y3LPe12mH0QT5uxFf99AW6/UijPfPECY46zksW63PMW0oYYlzbqU2NKzXsrZlj9WoWTVmZuDc0d2+rYbK5hX51ndc6szuibIxGxrxzq3z7Urpf9Nd8nc1XGD6YHnMWMYSMUywJ0ucmSebm5mDBJte16E7mpiXewzsfr9d9h8DfpO63B3mMKGXjA0ui3M3hyi/W5zjhrJJmcKEOnGO66Fval6DJXk9EnMmGNdzvs9xd86E95ZFuDWpO2fCB7IgTh0DQL1BmHDRixsm6Eb4rrNStKZMbuzaTy7T5VLEDhPaSOulzuSJxZv2S5fBuXoCxjbyb7cvlF6mCRjf/pO0be9uw63yy8Flct8WdXeG5BwQPjpoyC9Za8+hMHHh7MDtID0izYrtXLX56k/PyfCBQ6VvdgdDGZc7WeMZqdg0R3paP5xZt+dL6Y4TToUsQ6UscpjQfYmUf2W9zqmv5b013p4RrmBFoqG+t/crzu0LrWXe2ZqvK37LrtT9qXydb6Kn9PQVFVU5sUOAdBMvulK3yyc46dUdycmsbstb7p+A0R1q8dE7ssw7AZ1RoCKlOe/7A3npNX/FMu8/naENW5bl6H1xvTQfoG7B59xyq9phwqX3ypN7rL8r9suL8z2TO2ZkVepfOiwnVIh1YKPcf64Vss7PyG4Vip06IhtnDrKOn9ZyS94KKT/iNDL8DY3qH9OJ2eRPHpM35hiGrqQ0NKz93H20FK/T+zkwE7rT++WQ7Hj1Sbm7+28j3aLQ7YGibplmN77TTbzoCm0AaZ1LpcwO5Cpk47KpycBJTRQ6zT85W5xzy9TQcI+Zva+95TQsEueO2736E1k3s5uzL9R5Mny+PP3f+51Gmls2bkMj1rnlZW3Tjq+t4+Jb+Xz7kgj3oM/kBnktd7Ts7mYd/40bJx5v27iN/DH0Cr8WIUzo0XGIfDez0CqTpoeD8ovO8pkKAWbkyq4OLaTfL9IED1d1lxMqFJiZL594J2C8vpN8OMnpVWGceyFOmBDld+u8nOPu99L3cuLwNnnI22PAVUfP8UxhQp04x7svlc3q7w/elCm+CSDXyet/cn6jEus5b+e4I2vOLjusinY3h/nydpT5Fdx6zcm/yZbzNCcLgPODMOGiFz9MuKTZUhlqN9jV4wZuWBA7TLC0XCHDQted3KbkdpvZd4tIlPXS8yTY5Tzvycid8fpzefYe03LlEXnDnhvB4NQ3crBimywYnqwMZc3aIUdTyp6RL3bslT+r//sqZbp7aRrJCl+S203VZvyB1hUHI6ui9kZpYILDATKnXN/T2yTQCHc5laidsu6Vj3wzVnu5ladQgXW3mLBRdtiVOINExUiv+/F3jONIHd6KYqAi5Wo8Upaoxn2gvHOlyH3cILGeuGGCte78V8Lfn8XcgHXn7XCYui7H01qml59MHkOuU19L+e5P7P97j7t4x3TSY7s95U1ldEPDqGK/vFJyt/8cb14kq3Ul2ihwfDicivqeV96UV61j33y3DPdzDOe/FZy6d3v4secvG/3cMjc0rHPioS1OOKB43mPGc8stG7ehodYd+dzy0le47c/8G9k0y1QmDndYgJn/lozpyyr/09dzu8esnk7vBkM5hz+oGNszV34yllO8d1zQwyaM5SbLT+N7pk7waIsRJkT63Tof57j/98v0W1V3zvF0v4kO/3lXF87xzN9L1Q4TLNU7x5XW8tBWNaFiuuMvyQ0ePnp+hHF5gr5LiX08Ve2Q6aYyAC5KhAkXvWqECUrT8XLr4mNS8IefdMPc41zCBCVl3T/JlFcPSPawIZ5eBKYwwSr3xjEZVDA+vLeE5YoJh5zbT75Slno7yICOpXvtH7pDm2aEdtfruewvctwqU1n1tXxeabgXt28W7NbSc9422a/Lnah0h0PoilcNhAkqwd/ypbX+TD0TPP70/oey6fXfS/FwfRUzqPHtMnz+67Lpz58kKzUuTwXE/xx3zGvIrNCWuGGC8ss7Z/knlfvoY9m04UkZ3j549eQquWnUk/LCH/4ie1Ia6BHCBIt7Zwp/+eul3yPWvnhfVxArPpE/vrVOiu8ZLo+o2cYT64kfJigp78/DHCZYFbKxbzpjly0nti8wloml+SB5ZMsXctS+D/23cvSve6R0ZIdEF2r/cRfnmE5SPRM+qFJXmtL3TEj6q+x6d5e8/HTyVmwpruonE1dvk3L3s/EyNjQ8n7FxlnglbpigpB57ez94X/5r9Szpqm/5mRDx3ApraHjPM997tNb7wNPb5I/uJKH2ebJcxt5ZJCtVebdsNRoa0c8tv65PfmB/n6rjpCbuFd/2uo6yeeQD8p07V4KahHHiaNndqVniVpGOmGGC7rkQLtjrQQ2v6C4V+QXyfykhRPD2jVdKzm0D5cuJhYkA4qdpD0hFj7bS3xgkKHHChGi/W7V/jqueCYfsoX+ZeiYkXahzPPU3MSj1u/fCn+MN2xfJU2+9n3j9P72/S154cqp0He/cjSGxnvN4jrvzaJjuFJIqzZ1CUvSRxfvcnjN7w4cwAbjoECbgAtFhgmnOhLTayHXzTkroMIgUI2Tlx+oH7Et5aazhikbuRqmwKkvH3lthd//0Lsu6vVg2qB/KlIoZUNMK5aUvnGMt/RwfwAXUfJnssBsDZ6R8vmE5akiG3y2gVujj7tQRWRthbqcBaw5KpRo+81KE4RCWrqucXjP0TADqF8IEXCDxw4QGWbnSZsHfZPoukeLXNkcPIXRgUFW51z9TtMUdUnBs3zrJ69steRWoXW8Z/sibss/u1sssxag9WbePlBkbPnW6IZ86KCsjdC0FzrdW2ZOS4+wrrcbAuc7tgfTS/G4BNa+1npAzWjiQNbbMPj4rD26McMeHDtJl/HOyWw8pPVpeEt7jBsBFhzABF0iMMGHMAf9wiPID0j7j3SL8upbutRtrlQfLfBPcmceSep2Rz7aUROjuB8Tnmx/j9En5s3FYC3Bh+ebHOHVCNpmGtaDGhf1uATWrtdy9fL99rB3dnXly1azhq51gIErQ5d5+VONYBuofwgRcINUIE7b/IONWl0nLtm3M5TLoWvqufLxjWWA4Q2vpOfE5eaPiuHyhxn+7P3onT8qnFXvkWXumbG95oObYYYJ9rG1zxjsbygAXmgoT1Jwy+/esl6l96XZ/Ppl/t4CapYKrT3ZHPM66L5Fth/fKgijfBXaY4Nxue9vzzt1EjOUAXLQIEwAAAAAAQCyECQAAAAAAIBbCBAAAAAAAEAthAgAAAAAAiIUwAQAAAAAAxEKYAAAAAAAAYiFMAAAAAAAAsRAmAAAAAACAWAgTAAAAAABALIQJAAAAAAAgFsIEAAAAAAAQC2ECAAAAAACIhTABAAAAAADEQpgAAAAAAABiIUwAAAAAAACxECYAAAAAAIBYCBMAAAAAAEAshAkAAAAAACAWwgQAAAAAABALYQIAAAAAAIiFMAEAAAAAAMRCmAAAAAAAAGIhTAAAAAAAALEQJgAAAAAAgFgIEwAAAAAAQCyECQAAAAAAIBbCBAAAAAAAEAthAgAAAAAAiIUwAQAAAAAAxEKYAAAAAAAAYiFMAAAAAAAAsRAmAAAAAACAWAgTAAAAAABALIQJAAAAAAAgFsIEAAAAAAAQC2ECAAAAAACIhTABAAAAAADEQpgAAAAAAABiIUwAAAAAAACxECYAAAAAAIBYCBMAAAAAAEAshAkAAAAAACAWwgQAAAAAABALYQIAAAAAAIiFMAEAAAAAAMRCmAAAAAAAAGIhTAAAAAAAALEQJgAAAAAAgFgIEwAAAAAAQCyECUA15bxwWE6cPiNf7FgiXQ3LAQAXkWZLZeiWszJz+9+kR8825jLVdM3Df5Ppu85K0coV0tCwHBeTPvLYjiOyc/koyTIur0M6L5ItX52RqpOHZe3Y1uYylq6l78rH762Wu5ublwNAGMIEoFoelHWffy9Vp5W98pixTG1aItvs1/bYvcRQTvFuq/Z5meSkKxu6/Hxxt/lC7Fv8XFxTclJm7hK5d4x5OeqbFXKv9XnPLNsi15iWjzlgHw9Kfklh6vJqK5ReZc56Z+46IO2NZWqTft9eq1YYyiGzPvJQ+QmpPP2tfPRSoSFM6CDDl+yR/ZXfOr+1J0/K/u3LarGRrusCYb/ZpXsTv/ufbHgwdbmttdy/5lM5apU5atUjuDgCIA7CBNRrWXN2yTH9Q3qobIqxTHVF75mgKhfb5P0vTlrlnW05UXlc3t+yQoa3M5WPgjCheryVetdZmfbff5fRT6yXG9qmXo1s0PYh6bL4mEzYetYpv/NHKXr1gGQPGyINvGU9DZGE7T9IwfoPpVfeeLnMW9ZTPqUh29Kq+Jer16mSXvrqqNvonbl5uzTzlr20jdz09I/OMt1Aar9Kv3ZaJ6VXtmc9TcfLrdZ7LPjDT85y+z1+KF369ve8Vl3kef+7vpV+/Uxlwl2QMOHmZXLPq9/JtJUXrjGXOJ6MLkRjN6pb5aq8LTJC7b+denutc2zc6i1yc9dbDeWDMoQJmXomxD3HPS5sz4S6ECYkt6F47Vq5IrDcOSYD30t1UNflFVJp/e5XbDAFCQ1lwJqD1nLPb612tLyklnoxZAgTIvZMsAOFDUfSvjcAMCFMQD3WWh7a+o1UHd8r2z62fmyPl0uBsVwtal4oaz/VVygMwq8UxKErE6FhglemsODnGCZ4WA34u+7xN6DDG+c/yLDcO5NlTQ0Njylr10nTRsn1msOEQunxmgotfrAeT25HsvEXqGw3sirobqOqumFCy0Vy9yYdlKTwb0ed02iRDNkqUrTqgORZ21u0cLa5XIgLEiZkb5F8tW8v4JXhizJMaDRZuv3nD4bt1cICAp8MYUImcc/xOknvgwsYJpiCv4siTLjnRdl36nupPFgm9xt7Gjwgaw+q360vpWzmILtB3qrgTamwnlN16l2Zk1K+JmQIE2IZISs/PmNv/7pc03IASEWYgPqrufUja/2IH940QwY8/7n1A1klGycbytWabJmz46QdGlRVfiobFkySLronQtbtI2XCqj2y7QXCBLNaDhO8jYlG2XJl7+XSz22olO+Xds2Sz2m39GsZOnWO/CrLuVLZICtX2iyskuJghdwQDlzW4kG5cep+mWA3+M/Kg3M8XadTyreR60rUeq1yJZN9vR7sgKDskIza7O9+3cBaR/HWfTLk94H35OGEC2GV9Dut5c6V/Sn/uUXadHCu7trvseSoTFHvcechuc2zP+oS+/3v+qfcNXCUZL9ibevb70hzQ7kwP+8woe5fBU66U9qt1Ofn9lO+8/GSpv0kS/VWWP36eQsTIp/jddIFDhPeqJSxW0WmPr3I9x1X949JfXHidKVVjwi7wm/6/dSPVe2Q6b6yNaUmwwRLbpl8Yq2vct9qhjsAiIQwoR5pNXKFvFFRKcdUCm79GJyo/EK2LMmTVsGy+sfCvireLk9Kt38hR0+q55yRY4f2yILh3h9KT0O1+SCZuuEvcrBKJdfW+r/8i6yb3sdTtm7JKt0rlae/kU2zrL/1e1bBgr+c/qH/+EXp3X2WPLvHsy+Omt6f3h9eYY34e9bLR2r5qYPy7Ih03QtdHWT4gjLZ9tevE59hZdXXsn/PepnaN93zaylMCB4bxv2hjrunZJ21377Qx0XVqW/ki7++L8/qKzPB8vYxt+Uz+dQdU2qVP/h+WeA96u0IhgndrfdaqR4/KX9eU52umIYwwdVosvSyewWI5M0Y5l8W1HK95FrlilcuTT5maGi4GlrL7Ib51r3S2n08UN4tM8Wq5Ae7QTthwha5bcG3nm2/U25be1YmLpjhLN+5X9oFnpd4blgl/dYyGau2a7PVCE+5otpGWi91GnDJ/eE0CKYufUIadHpWBq3/h+5u/pNMefVD6dDJNExkvmSv/rtM2a7KWfts6z9kVMl8aRR4PacxcUDaNxoiLUs+Twwrscs/PN3QhbyN9d6sMnqfOs9XwUKwnMPdjiJ3uIq1zdP0/4Of2WVdl0svb9m0Q1t+lLtHtJGm49+TvE0/OiGT6nq//FnPVWrvVdlwKceO2hcPH5BxnuEnE57fIi1ThuN4GoiB/Tf9rc+lV6C3TayGmw4/7BBLDYdZ7n6WZ2Xafxk+8+A2q2PjDWsbfPtOn4fqWB/5nhSo9e38ToaN6S8Nem6WMWrbrb/vn6ob5v22y0T7/SeH/mR2q1xVYH0mb/wg0+3tUMfSj87/A+e/sz+cMo6QfRP3HDd97hka8Q37rvecV9bn94f/lVELlgR6POj99/Kr0rjlo57zy/pMNqV+3n6eY8W4XJ0rztCuxLAn+zM8JoMKvEM53CFGZ2XUBE8PrQQd8O2qlOxb1d/6dd3vsZ3HpZv9uMN0TEbbjpjHkivyuaXd9aLsU7/Je5+RjqbltmxZtNe5sv+SHlLQ1aqHqLkIDll1D9Pvlaq3bfH85gdtK/WWTx0yWVn1jfP/wG96zoYvA+uK2tvAfQ+VsqHQtNzVWgpfO2a9dtjcEQB+LggT6omOs7bJZyE/Rkd3LPL/+LlhwltlUq7G0gXKV1XukOmJLny6ofrem+bu+lZDeeU9nnVHpbchZX1ekRrHYVrLY7ut91a1Sx6y34tunKYMdXAfPyIVdiM1IOX9RQ8Thr10xF6eGmCE8EyUlOKotd2hEzjVQphg7Y+PTMdGlP2RYLiCkwgDDHzbbwgTPEHC7mrPop0mTLBcMemwU7H8/bP+RqPHZS2mSZe1ViM72LBJ09C45NLZctfb1np3/a/06akf85bX8yQUv7ZFrjN0k3bDhGvshp2ucDdbK6N2Ot2FncDA3D09XZjgvt/Q8KTnH6RQ7Y9Ew8NtEFTJg+7wCq9yqyHl3f7sl+UBNf9DsJyl+LXNhgadVaHfZOrK/qO1nwINFj3EI3GFUzd6TUMdVKNinA4zTPyfmX6PRt/KXQNTP/P813RPlYApKnTJuM4k/3YUyh1h3fqtY6+H7/PU6//9H6THq27Dy1s+c8MtlBsmPLlFhqn5BILr9n7mnkAulbfHjXseHpe8rZ4yrxySUd7jRTfMmy/8p/23Cs5Sts+ov7Rf+Z3xM7HVQphgPMdNn3u6RvyIvU4gYRA8Nuz997Z1HprOr8Dn7ae3KXQ79LqD67SdldGTPEGFG/K8sC5lDgT3uEnOj6BfV+17HWJ6P8/UYzLqdsQ7ltznRD+3HL3XHLR/p/Ysz05Z5pU1uVwOqd+zyk9lyx7V2D4jX4TcJSFrbJkzBML7OxiQDBPUHSS+Ns7HYKuxMMG9EJNpGKbnt//kHpllLAPg54AwoT5oXiKbVCPr1BF5c0G+3GL/aLWWW/KekjcPGhJmb0P+5DHZskQ/p91keckur6/m2+U9Pxinvpb3NsyT/qqrfvNBsmC304V/35p7kuuOqrbDBD3EodJah9voHFdWaa3X+94Ut9FqOXVCypfooQjthkupfn/hYYDeNyHb+dhuZ73+KwtplO6RT/aUScn4QfozbCitBs+TjSmfSVD67fCLGCZE3h9LZMvh92XdgknS43YdHFhlZ2xSEzl9L8fKSzxl3fGY38vR/W9JSV4357Np11vyFrwl721a5CkbCBO6L3GCL+sYLC89l94wbsXTHCYkuqAHl+tGREL5Yel6Z2DCt7QNDbdR71nulh+vG2DlB6R9S/9zHOOkx2vuNjnbP/bhUU4QoLezumHCdfP+11oWfjXf1wDw/q2UH5Ve9+XKv1kNyQZZs6SPbkSOnuQ2+kdJt5fVYz/IqIfnyC+bOuu8rMMcyVZhTOCKZrJBd1aK1qyXa1U39kbZcsPjzuO+XiAWZ4jDWWt/uo37GdJvs/V8X6NBca+Q/iTjFiz0dY9vuVC9/+BntkKGvn5AeuVNkysTZXMSQ1tUr4xEWc9xYQ8TuT3baiy3kX8b8AcdthyWTsEhIu4xlqZRqTSZcdx+vSlry+RGPfxEbceNDx+yG5z+Sew8n4u6Cluy0NnfjYZIh1VOo8kbGKU2nj2C2+Vur6KGGBRMtD/zS5pO15+56pnhX2/xa+/ofaHK9ZOsqc42z9x5VO64WZX1NBQ375EWTSdLnzf03/Z50F+6vKj+thp2d9wpnV5Q/0++juKeTwmec7bByH0y1XqseMtfpUvvfvoqtvW5tH1JRgbKBqU2aj3inuM+mRrxDaXdSrU//ymDR7vb7ISXNy/4fzLA1xD07L+dp2VYwTRpqD5v6/i4VX/e4fOHZNqOQumx7oQMmjpHrmqhjzvrPLzW/QxVb4hE2WDvg6RmqveBde6rXjvOY97vEj28aqv1WevzwxQmRNuOOMeSs+5455Zjzg7123VE1ub4H0/RLl9e/Kv+DT19XN54JKSH3qVuD4CT8me3XnVpB+ky/jnZrepzle/KnM7J8u5k0pVffSDLxvfWPU6tel7f5+Qd9Vqhv+lusBBjHoTOq2WPWue+1Wl7YUzfRM8EAIQJ9cOsHfaPzEfPj0hdNrlcDlvLKl56IPmY25A/ukseCXSfd6+mJxvAuqFadVCeK+jgK3vJ/HcjpNcXRsel+61tO2O9D8/70/vC38DVjVbr/T0bnOnY/UE9uFGGeR9PqOEwIYR7hSF8PbUQJlRrf3i4x5h3m9zHPn8zZPIqL0+Y0H2+bDqigoQTsmnOuQ6rqaEwQdn+N+nn7U4ct6Ghyxe8fsr+N694SMpzHHqb9dU/u9L98hbpsfZsYv4E58qtoeFqSRcmpFvm8DYAPH9v3ic3BYOPge9IkbUs0ei/+VV7UsTg2Ghbs3Uy2lvW4jQmzsqEpYv8wzz0evyNH2eIx8ydVmPB0xPC2Q/+RmfqFdIkt/Eb9pn5mEIA/RlOtN5jcGiKsy1nZViwAh8pTBgm3V62ymy19rO3p4dNN659w1r057L1uNzZNxBy5e63G07euTbc920U3C53e63PvF2gC/iv51TZz3H2n74yv9M6DlNCsTbW/lCNSzdschuAyR4nzrGYvOKcPDbdsv7j1D2fEhLHqB7+Yry7R/B4TpXaqPWo5TDBaYBb58DKNXKVDt/M9D6xPu/s4LAPfW7NfG2z/Nr7eELm7TAz77srJhyyjy8VcCbL6mPhlTJpkngs8Hzdq8F9Xtr97hPcjjjHkiof99xS3IkVM8zh4wm9Pz7shO/JWy3q3+nEb6/+jfv6HZnpXYdljH3hw9v41z0tjUMPgutNFTtMuLRENlWlXycAuAgT6gE3AEincofnqq+poRcq8w9V3aMT/1P7ZZEn2VdXLjcet96LbyKkdI3rQnnpi3TvvabDhD6St8o/HtLrvIYJMfZH1/zn5I2K43puhQDvNulhHL5gK5QbJpyQTw47V2/+uKAm5ufQFc+wxoTbrT9NY0NNuNam5P9Jkbry7J2cMG1Do410UJMkepe75cdPlj5qm0LHg+ttdiv/duPurBTvTF4NTFcR91ek/ZwGb4SeCYmGSZqGSKNn5T7vMt2IVe8xlKfBE/4eDK9pD/EwBAQ60DD1HnhwzrjkY5rbqA5+Zs649f9NzPPg492ONJ95g/GfmpdFChOWyjDTMBKf5JXW1AZWetEbbpZI26vobfBdufbQ+8oJNdwGYLI3jXOcBv9W26h75oQep8H3rted0iA0lU2Vdt/EPcd9DMdxUKPJnmEqah6Sw9J/arJXT1K67zF9ZT70PWbejgadlvjnDPEKrlffUcV721qnZ0hwLoXgvu9vNdyt9ethMqb9Hm074hxL6u+455bi/h6lCxPcescRWaeC+OaFss7uVahvtZhS77pHVqq7TKmeCc8/pCdn7iBdpq6XP6ueCacrZHGi/qJf33hHiNoIEzLVEwAgiTChHkgdG5eqzoUJ7jakE2n7DDo/I7vTjkP0DhlI96Opw4fQ956+EV+wqcp+vWhzJnju/BDiwocJqfuj4/x37cmlTNtr826TDhOiDYvR22FV3paVvitfqCErB8ulqLupbBzpKuENpcnDlXZlMtil3sQdx51oOKRraLgVbm8l1VO+Qc8tTrd441AHXflNVP71e/Bc9UvXAEoXJrhXlkPnTAj2NkjXEHGviLrL9PtLq5phgns11LhOxTvUQW+H6T06r+n/zK7I3e90ow7jfe9pPnN3PoqUZZEa5/o9p1VHwwTT+HlF76v4YYLb/T949dsVfO963SnDXUxlU6XdN2k+b+M57qNfO+N+bCON+q+RXsuPJSbRdCcUTJZJ9z2mewWEvscM25G92TwfisuwXqdHhdsTRE/MmHLlP3Xfe0OHlP0eeTviHUuJ7UirGmFC82WyQ/3mvbcs2eW/+2rZY9dFTspHn6reBv6enFkFb8mn7m+ljw4g3PW4r2+8I0RthAmZ6j4AkESYUB/oRlqmiYES6nmY4AxxMKzPIznUIU3jufAtZyKl0HGD6Rvx7hjHqqoPZEGmRrA7hODUEdn4yMjEnAnKBRnmEGl/ZMvifdbfquKzaZ4MdudMUEzHmB5mEu2WU/7Kmzsjdvj9vaNKUwnXkyCq7rJDRpp6CPg58w14urGHNjTcWz5a6/Z2+w2Ud2eDT52EMXMjJF0DKF2Y4IYFM8v+YJj4sb90+H1wtvbwbXEb+Imx2roRGj522y/8PQRfUw9xUI+F8gx1GLHXHj+fsh2eyQKTn5k7Pv+sPLjQM7+CYmpUh37m7jYarqZHapzr4zTyrS71PgptQPrVTpjwhNytGtPGW4m6wxzcOS7iNQAT4VG51UBNuUoffO+6G7th2E/ijgtp9lP1woSQc9wn83mcqo00GvaO06j2hSNpvsfSTYpoS78dbkg6Ze16yXLnKrClOcb0hIp2jyDdayh1skzT8/X7sPbZTYH9Hn074h1L8c8th9PTMM2cCTkbpUL95n2yXgZ4Hnd/u5y6x+fybGICY30B4dQJ+ThxN4czcuwr01243F4M3t4KjsT609TRYocJbn3EG4wAQAjChPrAvRJ/8rC87p0IL0xdCBNqjTup0UFZeZdhefP58rYaC5hyl4ftMmugO6lRB+k/Zb3stO9m8I3ViA8LaTI14t0GsdUI/upjWfdInu7K2FBaZefJhFV7ZNsL+iqFWxGp+kCeGuzMTZF1+0irzDb5UN9V4byGCYH9oSaFSt0f7jjSb2TH08Odss27yeApz8kbB/Ss095tcicKtSpMn+14TiYM0xMwquc8UpZ+AsZLW8v9G5xJHdMHCu6M12fkiw9eNJRLrYQ3yLpHsvK2y/16pvrgXQaCLmtxr2QVfOjcgsw7k31KQ+NWadh1jnRZfkrfmu4HGZbr6fabUj7ZIPHfHjJzI8RpAJkaORnChERF3D8ZWYOsiXLrytNO48h320i9LS/+l1zVVk+wpyZFy3tX3y3B+zp6QsSd38l9D3smUQsROUzQjZWw7vTu5HuJuRrc8jur5C779oRt5N/uXCPDNiUDieR+c7vU/yj3TcpxJsGz3t+vBq+XQRv03QG8n4P+DHMfejAxWaPadzc/9TfjLQht7hwQanvu069h4I6fL1pjfS5dkxPymZkaauFqJ0xwbxUoMv3V7Z4JGHOkTclRpxGfuFodswHYaLbcpY4lax3Fm/ZLl8HOxJ+qXIOsF1ImVXT2ndMQtece8G5DoGxQvDAhwznuk+k8LpTuzx/zTzhouazFXOkX2FfJBvGfpG1799i4VX45uEzus7/HDHc/SUi/HW4vkPzHZ+l9bL3H3upWqfo9GvedDs+2HpBOxYek2DhvhvkYdYKib2XUWv9+j74dMY8l6+9455Yj890c9DwD6m5Dq/Sk1tZv26gl7ybvtPXFWzIm8Zvk/G5/9afnZPjAodI3OzAnVYAzgfT3cnSvVV5Pijxjw6fJoKIGwwT3Qkj6+bCs3+SXDtt3qzh2YOM5hvwALmaECfVEzgvqS13/qKQI/IjU5zDBTdQ/flF6m5YnJjL6Rt6eo0KXZIPfJDl5kiPjkJLAfsoa+6Ie/2iW/LFOvx2KN0yItR2650o4b9fNGt4fgWOsqx6ykLlsMExQ+kiRvkvEiU9DKi++Hi+mylOy8Wwy/fX3AhML6gqwyfa/SQ/DrSGN1Az7M9zb4vnL+wOA/s44YnVl3L2NnnECQr/qhwlWY8wdYuFuq1fwPabbH95t1q7I/dCZW8JY3r+9UcOEjLez1LeMTDZc20jrpYbbwKmu46uO2P9P3Y5AWS/v55D2Mw+bA8O9y0Xqc3yfX7OlMtR0K0aX73gwN9TC1E6YYEn07jHwddWP3wBs0PPV0NuM2rzv/VbrnDEcd9Nf3S/3pcwnkO6YdiQ+l5jneMZjybcd6b+bpqxc6ulpkKGs9Vl5JwSNsx1XWO9RhXHGckrIMeaGeKpMsfX6vu86W8gx6gmKvJ939O2IfyzFO7e0e9bLR+p3JdDzwCvnJef3KeW3zXLipHNr7eRv6CPyRljd4NQ3crBimywY7rkwdM+Lss/w23ni03dlR8pcRrrelkb4xYnW8tDWb6wy3l4UJu7FBEe17uoFoF4gTKg3WkvPmetlW6K7nNfPJ0zouLzCfs/GO1to7j2Uj22dL1nGxvO3cvSLz+SNlK6G8cMEW7s8KX29QvZ/9Y2uaDhdGbdteMq5wqDLZfVdKK9UVCY+vxOVusw8524d5ydMyJZRi8pkS8Vx+aLK6RGRbn+oW4Q+8vpnctAte/Kk7Fe3txy50LlKYzjGWo1c4Z+w0X7Oepnqu7OIKUxQ+shj+haVR/ebeh5Yy60GsH1v73Q9EzwVx+Kt30nB+g+lV56+5Z2vfLChcVam/fffZfQTa5xbF3rLpjQ0fpIpb6uy65O3HzOUTwkAEg2yH6xlVuNLN+a8s/GnCFuXJVOYoDRoO1+yV/89MeGg2ifjVpdJy8Ds/caG184fpejVA5JtX/X3lnVc1nVN6GSGqY1403bq17Qr+O4whNRb0SW5s/l7hqs0GiLtFrvvT01s96Hc2tX6TEz7TZV9wjNeffsP1r7YIjd3/Z3Tjd/b0Ej5zNPtO4+Wj9r7OzixXMrn13S83Lr4mBT8wZ2Uz8PX4AlpqIWotTBBCb436/iYsP49Z38nylWjAahY++PmkgMy7r9/dHqJWKb/4YyMe2GHdOnvP/4u61smozY55Yq3/kNGlcyXRo306/r2k+GYDkh8LjHP8XhhgjpX1JV373Fhrf+NYzKoYHzg6rkpTAgrG3c7bpXrp1r72D3m9OfXpf90yVbDR0KPMd0TKXSYWPgx6s5V4/+8o25H9Y+laOeWK9v67VGN7ErZODms92drufvJbfL+Uc9v/VHrt3NVkXRtXigv2b9pyfkQei77ixy3ylVWfS2fVzphg09gEulWBetlt153ZVWl7N4wR3o217+VNRUm6Pph5d5n0twW0pE1udwZ+mipi3f1AnB+ECbgZ870QwzAzNuwNy3/mUkT4gC1xxSKXGAtn5X7VNhWl7apprm9AyLd3jiD3I1SYa3r2HsrpGdgXVm3F8sGfZEjvAdBbRghKz8+Y8/dtDbSkIhZUqZ7V9AzAfj5IkzAzxxhAhAdYYIPYQIuiLoUJqi5DNbruRrSzRlRP7hDGYJD/uJyexce27dO8vrq+YOUdr1l+CNvyj57/oUYkyaeM3deojNS8VLmXgZqTqcZethh1amDsjLtkAgA9RlhAn7mCBOA6AgTfAgTcEHUhTAhONQidc6U+skdahe8fWM8WbN2pL+tsrX+z7aUZBxqUDNay93L99vbEyUkce5s4Top20r7GMsB+HkgTMDPHGECEB1hgg9hAi6IuhQmnJVpm8xzNdRf6q5BR6T8yUHVDhPsea4mPmfPH5Scn8hy8qR8WrFHnp15LuuOT91i8pPdy1KGXJjYYYK9ndukdGT6u1AAqP8IEwAAAAAAQCyECQAAAAAAIBbCBAAAAAAAEAthAgAAAAAAiIUwAQAAAAAAxEKYAAAAAAAAYiFMAAAAAAAAsRAmAAAAAACAWAgTAAAAAABALIQJAAAAAAAgFsIEAAAAAAAQC2ECAAAAAACIhTABAAAAAADEQpgAAAAAAABiIUwAAAAAAACxECYAAAAAAIBYCBMAAAAAAEAshAkAAAAAACAWwgQAAAAAABALYQIAAAAAAIiFMAEAAAAAAMRCmAAAAAAAAGIhTAAAAAAAALEQJgAAAAAAgFgIEwAAAAAAQCyECQAAAAAAIBbCBAAAAAAAEAthAgAAAAAAiIUwAQAAAAAAxEKYAAAAAAAAYiFMAAAAAAAAsRAmAAAAAACAWAgTAAAAAABALIQJAAAAAAAgFsIEAAAAAAAQC2ECAAAAAACIhTABAAAAAADEQpgAAAAAAABiIUwAAAAAAACxECYAAAAAAIBYCBMAAAAAAEAshAkAAAAAACAWwgQAAAAAABALYQIAAAAAAIiFMAEAAAAAAMRCmAAAAAAAAGIhTAAAAAAAALEQJgAAAAAAgFgIEwAAAAAAQCyECQAAAAAAIBbChPrmF7fIvilFIjNy5fVmV5rLnGddS9+Vj99bLXc3Ny9HuKyxG+WDA+VS1N28vE7ovkTKD30gi4e3Ni/3al4oaw8cko3T+5iXAwAAALgoECbUNx2HiTw82fY/fW8wl/G5UnJuGyhfTiyUn/TzbDkdDWXj6zpnh3x26ns58elGuZ8wIZassS/Knyu/l8qv3pXH6nCY4G5nVeXezNvZfb5sOnJGqk4dkXVjI4QPAAAAAOokwoT6JmbPhB6d7/OHCDUZJnRfLXtOWY3hg2XmIGHMAZm5S0KclF7Zhudc2kZuevpHXeZb6dfPVGaF3JuyPq/AurO3SL56fNUKzzpCuGVD5JcUJspeU3IyZXnx1u9k3As7pEv/IdLAu96g5jNk49GIDfQ6IGtsmVSk+6y9ui+RbVHDBwAAAAB1EmHCz9oNsnmCCg8elL0ds+T2y01lqmuErPw4wxXo6oQJjRbJkK0iRasOSJ5Vrmjh7NQydThMSDorDy58VBp6153QWqaXn5Sq0ydlW+nFMxxgwJqDUnn6e/lkw4PG5V5Zs3bIUavssd1LpKNhOQAAAIC6jTDhZ62jVKheCOOyZaBxefVlzdklx6zG4qFNMyTLsNymw4R7xxiWhWhgPad41z/lroGjJPsVq1H+9jvS3FAuqVB6lanG+wFpb1xuqU6YEKGsEyZ4g4s28m9tp8nNC47KFDtQ+EGG5d7pe47tnvXykbXvKvetlq7BZXXag7Lu8++l6lSFLM7Y4yBbHtv9jVSdrpSNkxnuAAAAAFxsCBPqibF9xwaGKoyVzVnmskk6TKih+RGS7pGVH6tG5X5Z1Nm0XIsdJrSR9qvOysyte6W19bfTWFfBgqmsqy6FCa42cl1JlRSr9bz8qjT2LWso08udRvaGQv/jKZoPkqnPvy/7K7+1yqv9/Y0cfL9MpvYNNs6XyDa1fPcS5zkb/iIHq87Yzznx5V9kXWAyxJwNX1rLvpR1uQ2l1cgVsuWvJ+WEXv/H25elnUiz49L9du+EQ2VTjMt9Ct+SQ1bZyr3P0DsBAAAAuMgQJtQTkcMEzwSN4aIEEWnc9aLsU43PfavTNxLjhgmNVsi9O0WmPr3ImW9AN+zNQx1cdTFMsDRbJ6PVenZ9Kh0aeZeVyKYqa98dL5cCb/kUD8rT+9VQCKts0KkjsjbXW1aHCe+9KWs/1cGDr/xBWXlPsrwbJpRteFe+OBUoazlaXhLe26S59VrqOZ+XSY5puY/bk2GvPMbknAAAAMBFhTChHnKChQsYJsx/1746XfHSA+blrnRzJpRtkWsC5Z0hDmfl3jFt9GMzpN9mq6zuqeAtm1RLYUIIbzCSNkxIbFdgec5GqbD2XeWORZ6yqdz5CY7uXS8TBndwHm83XCY8v9+ei8B/tV+HCcqpr+W9DfOkfzvr8eaDZMFuJ5DYt+aexLqdMMEpf+LwHinN62aHB60K3rQnWayq2iHTE+sOypbF+9RzK2Rxul4pWsGmKqtslWycbF4OAAAAoG4iTKiH0oYJPrUzzGHYS0fshui2UvPyhFhhwp1y29qzMnPnAWnvuZLffOE/rfI/yt0jvGW9LrIwQQcx6Scx1MNIqnbJQylX9HVj/tS7MifxmA4Tqg7KcwU6eHAZXs8NEw5tXSg9fet/QNYeVEHBXnks8VgqZ5iGM0zCtNyr95qD0Y4VAAAAAHUKYUI9dKHDBLcxGjVMiDTModlaGbVTpHjtWrnC+/jAd6TIWsfUpU/4yyfU0WEOl06WPm8YwoTSvfa+Sx8mLJJyw/ADvyOyNsctr8OESEMPYnx+IdxhElHCBPf9EiYAAAAAFxfChHqoPoYJV0w45ExYGCZ0qEMdDRNuLZOxaj0790s77+ORwgTPsIVQFy5McIYuRAsTOi6vOKfXAgAAAHBhECbUQxc6THAbxFHnTMgcJughDqrxHSpsqENdDBP6S/tVP9jbnZhM0pVbJp9Y+y79nAl64sKMkzS6zmeYoIdZnP5AFkSYVNEJHo7LS2PNywEAAADUTYQJ9dAFDxNq+m4OeoiD6TaKSoOR+2SqqWFuq0NhQqNsubL3cum37junl8XOKumREjREu5vDuLJKqxF+Rr54b71MGNlbWhnKJJ3HMKH5fHlbbX+k1xohz35ileVuDgAAAMBFhzChXtChQBoVHdM8r6bDBLeRePpzedZzy8EUEcOEKyYdtsvlzRhmXO7eMnLm1n1ykz05o/W3aqyHCvQWcAOCMN7gIEPZ/JLCRFknTDCXm7n9lAwa2T+53oTW8tBWNYHhN/L2nNaG5VrnRbLlqzN2o99o9xJP+fMXJmTN2SXHrOd+9PwI43Kfe9bLR1bZY1vnh99qEgAAAECdRJhQL9S1MKGhdCzdazcqD22aEd5QjBQm3CmdXlAN8ErJvtW0XGkj7VepYRA/ypCR6raRdTRM2PmjFL1xTIaWLJdrs9zbWxq4Qx32rZaupuWudnlSuuUz+bTy2zoSJujhF6f2y6KMt4XMlsd2q9CkUjYUmpYDAAAAqMsIE1BLRsjKj9WV8y/lpbFprrDDoLVMLz9p7btvZMeTfQzL66YBaw5K5ekzUvFSuskjHVmzdsjR09/L0R2L0g+FAQAAAFAnESag9uRulAp1C8PKvfJYd8NyhOu8SMor1VX+I7LuIghjssaW2Z915cGNmXs/dF8i29R7q3xX5mTswQAAAACgLiJMQK3qWrrXvgJdebBM7meSvVjcBnpdD2Oyhq+W3XY4EGE7u8+SjQfPXDQhCQAAAAAzwgTUuq6l78rHO5ZJT8KE2LLGbpQPDrwpY9qZl9cJqqfB4b2yoG+EcKB5oaz79LC8VNDBvBwAAADARYEwAQAAAAAAxEKYAAAAAAAAYiFMAAAAAAAAsRAmAAAAAACAWAgTAAAAAABALIQJAAAAAAAgFsIEAAAAAAAQC2ECAAAAAACIhTABAAAAAADEQpgAAAAAAABiIUwAAAAAAACxECYAAAAAAIBYCBMAAAAAAEAshAkAAAAAACAWwgQAAAAAABALYQIARNG4t4xZtEYWLS2Vwa0bm8sAADK6YWipPLF8jZRM6ieNDMt/Xn4rA+f+XhYtWy7jul9nWI50OJaAC4swAYhhbN+xIg+Plc1Z5uV1UlYv+Z+HJ4vkdDQvv9Cu6CF5i9dKafFgaWha7tNYOhassipdc6V7Y9PyWtT9YVm0fK1tVs5vzWXi0Osb392wDOmx7y4y/WS8OnfmjZEbjMtxcfqtDJlXnc9VP8/+Pn1YuhjLXAAtx8gstU2T+5mX1xb3dS/Ea1/06uixBPyMECYAMRAm1LxG/R+V0uWrJK9LhKv9TYfIpGVr5fGCHtLAtLw21XTPhOo0iK/pIw/MXSGPT7qYKpy3ycBZS2Te3BpsSBImXGQuTJjQ9D+myoxFz8o4jpPYou276oYJdfRq8oUKE+iZcE6iHkt8HwC1gzABiIEwoabdKiOesCpvT+RLK+Nyv1a5y6xG5DIZ0c68/KJSnQbxBavsnotaaEgSJlxkLkyYcEPOYo6Taoq276ofJtRJF+X3K6Li+wCoHYQJQAyECTWrQZdp8vjyNTKpf4SrMe5wiBlD6se4SMKE6iNMuMgQJlxsCBMMy3FR4/sAqB2ECUAMyTChseR2ukcqp020/p4sZ4sflIN920iPQPmlOVYj/uFhsvTSK6X/Tb3k4KQJclY17GeMN5a/oUlb2TjyAfnXDPU8d71tpf/l/nJK2+s6ymar7HfFRXZZmTlBvssfLhtvutpfsQsJE3p0HCb/Uo9PGyUvN7vSt8zWfIasP/ytVJ08LGvHtk5dfs6ulu7Fa2TR4mnS8QrTcr+GfedGHw4RRlcWx3e/TjqOWyxPWP8vXTRDujRtLDfeu0AeX6b+LpE+LZPPcSsgSYtliGd50OUtBskYNRTBWpf/eY5ERSbRIG4sTW4bIxNLf++UWbpMpub28AQmuiGWQXUrSM77e1i6XNFMbs6ZK3OWWJ+Jtb7SJUtl4tCOcnnKc9T2jpL8uc/Y+0+VfeKpJTIxp5s0SXyO3nGs4ao990TkfedqItdnj7G2Ofm5lC5ZITOmjJKbr04eT064ZS0Lmb/j6qGl9nOLh/7G87i17j5FMnXBs9bxqdb9e5k3d7pkt2jiKVM9l7foK0OmLJQS/ZksWvaslMydJQNua+Yf5mPvD3Vcqm2ZLjOecvfHMzJjXG/P51I9kbfDpvfH/OTxUbrkWef/wUandcy1Hugvq46lqeMGyfUNPeXc42n2fdK06R0ywNqWeUtV+TXy+IK5MqSjJ4zUx0Z6qWOr1Xk7etbSxPHxxFMLZUyftinHv3O+ON8Bzrmut93aJw8VDpBrz2lfRzm3FL0/rEZvg6u7yZBid7ud/TGgbTWPvdj7zhMmNGwr2YVPJrfjsVnSK2U4mOG7LG3D/TppqY4P77k1f66M6Nbq3Ie5qe+7obPsbu/Ouq19bR2n9v9TtinKOf4bGTBHLQvpOafDcN/vnWF/Z/weV/t53OMy2z3HreNuTvEY3/eYK+oxXduibEeD1mPkIbV82aPSs6n/+Y2s/TTPel5pyRi5MXEeRDyWqvl9ACA6wgQgBidMyJe/j893QgGfIjkWGO/ohAnDZUvvXPkpU/msbnJkWrCM42xBTxnrWe8ll3aUCkM5x4OyvaUnHDCECckg4T557mpDkKCU7pWq09/bTmxfYC5zLtrly1zrh3xu7q3m5T7xhkOE0mHCrNkL7EajW5koLp5rV1bcvx/P7554TpwwIVEh8pX3C4YJs+aq8Z7Bcmtk2t1ug/V8hAmr5JEFz6SsUz0+vvvVnvKN5cacRYnKd1Cysnd+woTM+85f3uiJQrkpUUHVx5lxgk/dWPAtu1puGfe7kP3xjIz7D+++iyvd575Mctp7Gg/6/c1dYN6Wc5swNMZ2WI2/LpOWhx4fwTAh9dxK8vdA0sfTwkXy0FOpZRctWyD9r9dlq9F4aNipSB4JOW/nTertC5bcMGFUzgwpMTxnnvXdUb2GbtRzS9H7Y/Hv5BHT/lhsvb/qTFAbe98lP5cZaj6ZYNmnpsotiW1W4oQJjeWWfNN3knKOjb8r2stgNUeBcd0W3zZFP8edwNv8m+YGlb5lhv2d9nu8qbX/TJ+3EtiPcY7p2hRnO66+e4G9/0pn3ydXu4+779l7jtsiHkvV+D4AEA9hAhCDEyaoBnuRfDOik0xsrCrSjWVIJ904n3KXFHvKO2GCU/67vF4y/9eq/JXS/zZdfly2DLTLXicvj1M9DArlsx6tZci/O89v++vWsvH+Qvv5n3X2XgXpKPsmDJfNHVpIv1/oMODfr5X5g/LskOP/hrZLlg2ECT06DpHvZk6Ws1OGyNJ0Fc7OJfJarfVMcO/KEKwgmLnDIVIaiXG53Vgtc8feIZe3Hiez9d/zrIpIo6bDZbL6uyRXsgzP916VDC5L9LSwKphTcu6Uq+wrq03kypuGy0RVGXpqhnTy7m9PJae0pFA6ZKnPt4lc1W+2E3SYtqEWuuEmG3RrpGTqcGmujukrrpI29zuPl1oVvkR59/WXLZKczq3k3+2Gguc9WuuYMqh5srxNV/pqsit03H3XfbrMmjJGOt/UTG9zQ7k8607JKVGf1yrJ7ZQs6/Y+mNQ/EATo9+6d/LNBp6n6itkU6dzqKudxa981z57ihErnFH71kzHzZsmQ7A7SxP6esR5r2EI65DkNTm/g5d0fT8zNj3YsRRZ9OxI9OxbNlt43XauvPDaWf79qmExQ2xEME+4tkenjhkvbGz1lW7nHkvXdcI1b1hNOLfudjOvTQa5U55e1HdmTnQbno3mdEutNrF8f22kbaFd0l1y7sbJI7s++WR8fajv6yv328eG/0pw8X6x9PW+6ZOvP/fK245zPfLHVgHbXHUesc8u7P5ZLwUBnuxs07iT32o+vsRq5nnVXQ6R9590O63tvYqzt0N8Lod9lvWWc2p8LJ8ttv3J/+9T+6CsjZk6QTinlo3PPcftcaabPW7Xu2wqd3wPPNsU6x93eBwsL5Sb3MVtj6TJZHUulMiDs906fw+H7+zfSf7YT2Mx7OD+5LQ2vld9k50vRGM/3dMxjutbE3o7rrP2kzuc18tC9KgC9TrpNteoJ1rGlehP61u2T6VhyRDumAcRFmADE4IQJE+RYjxsDDaMm8lyuCg3y5PVrk487YYJVvtdvpK2v/C3yodWglwm9nB4HTbPlmAoBht+c2uD6RRc5ZC07O+IW/+MmpiENnsd6/HawfKOChEmD5fHqXLmqKY0Hy0SrIhbtrgzxhkOk5VbYE1fudCUk0bUyfcPXqYyEhQm6Yr3E2s7Aspb3L019nq48PjE313PFUbEqYKpCatqGWgsT1sgj+YHhAdfcJ9MCr3VT3tN2WdMcFw3aF9o9TRbNGBK46lV7YUKsfWdgrFxeP0qK1faqLvUpZZ+WnPbJx27JVxVdcwPB2VeLZPCNqcvOiekY0Ptj3sP3ndP+iCVlO9wGk6mhEu8Y6DLZKus7X/S5tXiBDAh2nW88RCapdRsCk0iNB6uxqAIQ/9AVzTqmH7WWPXRvm8Rj7jrnFgSHj7SRwSVqu6t3lTPeuaX3x7LfSW4Xf/mmdy/I/J4jiLTvEtuReheCzNuRqQHo9hJS4VFNds13t9nQ+8hwbsU7x3VIHggoL7nCeq8qeEj5bvTIFCa42zZvXOAcN4h5TNea6mzHFe1lmP35LJKcPHWnpzXyUE77DPWETMeSI9oxDSAuwgQghuScCanLCvqNS1nmhAkRJmy8ZYhh2ERAQU8Z7XlOj+ZdZffYsYn5FXxMYcKksXJSBRhTh8qSCxkkWJwf9YhXR3QlKtpwiAxSKovBSkj6Ro+z3WFhQnPpP9t6ruqZMLSLc+VUXe3qMEqm2FcWH5Wehp4JqRUbXdk1bYOhsnuuwt9TagXNaeR5rxh7he279Pu0WmLvOz322jM238u/HreHifd9mobZuI3HdM7tCnGjtsNltLqtpj0/QID3GKjOsRRDtO1wG2kzDFeNQ46BK1rJ7Tn+cetJhjDB+D6sxsfj5mVRGg9Z9y4KvG4qb++c2mqQxDu30uyPTI3SiKK9z3PZjtTvl6AGrXNlhnvMqfk/ZhRI71tanGOwoF83Us+vapzjeviet8eOM/xhjUzsm2bYU6b9pZdHCQHiHtO1pbrb4R0u6B/eEybzsaTU1rkL/NwRJgAxpAsTigflpyyLHCZ0HJYMAsJ4woTOtwxxhkmEMfZM6CpLR6i5Hork74NSJ388b9y7MnjHRYaKNxwio1oNE6xKUNv8xLAJP8PVleo0AOtEmBAIRRLC9l36fVotsfbd1dJpUtjYa0dwPW53/cQVNd1A8F9h06/lWU+q6ocJDf9jhm8ejxTeY6A6x1JE0bdDv5axm7/pGPit1VBToY1nXT5Rw4ROkrPQvCxK48Etk875CxOinltp9kemRmlE0d7nuWxH6veLkZqks/cYGeOZwM+ZNNdQNhL9uoGeR7aU71f9/tRjoYLnuJ5bJdGTLmLPukz7Sy+fdndwGFmquMd0banudjRoPc75HJSnHo7wWUc7lmrr3AV+7ggTgBjCw4TfyB+LVEM+R577RfLxyGGCbvD/c1CUuQncIRUqFPitjHDnTFAyDHO45NJfW9vkzMHw977BoRrnR6y7MsQaDhFBrYYJutG67HfyUOKuAWvk8UUhM2hXpwF4gcMEp8uv+Qqb2xW71Crv/6zS79NqibPv3G7wvrHojvDKpe6JMGeUHXjZ3ZkN3aLTNwDPxdXSc4Za9xp5KO9Oucadq0AxHQPVOZYiibMdbs+c1P3hzsbu2w7dzXnRU3M98ys4nP0aMUzQQY+pC3mkxoPedylzZISItM5qiHdupdkfocdCPNHe57lsR7QGoI+6A4NpzpBY9NAfw7wGiQkwPdtUnXPc9xunv38y9qzLtL/0+RLp1sgxj+laU53tcCdcfGqqdOzizFfx+NQBGd5ztGOpts5d4OeOMAGIwQkT8mXPzddId3eSxMYtZN0o5+4O/2c12Dt7ykcOE9wwYma+fNKjtdzvrbSnuF5eL1DrnSAHulzrzMVweRMZ0aqr7H5Q32UiNExQZW+UzQVqsscMgULzQln76bdSdeob+eClwnOYwM1LX7WJODGdM1FWDU4WldIAClZC0jd8ncpIWJjgPHfB9GGSde2N0jQxaViI0Mpjmgq6O4+B3TA+1+6+jvD3lFpBc6/YL1paKiM8k8Rd1XmMHsphCol05d0zQZt/eTXE2Xc35spDapsXz5Ye9sSE1vto3EraDiyS6XoGelPl0jn21H5xrnybAi139vYn5k7yTe547tzu1aukoJ/+nK+4Sq65ZbiMfkTfLcFbca7OsRRJvO1olbvM3o55xcOdWzuqiRpz5id7Nni34z9mOM+fly9t9Pfd5b/qIJ1zZsksu2u7IUxQk/Fd6wYP1nF3yygpsD/D4F1HHO64/eQknf7lNh1YqmN6lHeSyRC11SCJd26dSyM+mkj77py2I0MDsOVomTirSHrfcpMeMqaoYWP55xiousOYVEDm3HKzQeObJXuS544NnnVX6xx3e99Z62nU/1FrnWkmXnRl2l/uZIbWdj8yabi0dSeOVOejdYz4JmCMeUwnWA35cep8WrpMxqSd8DCiuNtxRXsZYvdWekZyO6my7h09Ms2bkOFY0qId0wDiIkwAYnDCBNWQN5g2LOXuCNHDBDV04R77LgvGdVsqOibLpt0OJV2YoDRuI9vtQGGiVPYOCRRyNkqFvjVk1emDsvIuQ5mYUrqPp+POjK2vDhvLxBU7TNB/p5Gs/HWV0XZlz0DdC9yqGHe7wVOZqlYDMDmjd1B1Gw9xwoTkbNupr68qfCWTrMqzbx1K+C3ezvXWkNH2nX4s8Npexn2nK8LFU2fLo6GB1m9lYLpbzBk/w2jcRmso7+dSrWMpmljbcf19Ms3ukeP3xNwZUhCc16CxdXzZIVMYQ5hgLKfvxOKu1ytke4KTJN4w1HSLUZf/3KitMCHeuZXmc83YiI8o0r6Ltx0ZjyXvetzvaqNzu+2qe4cG/zrVPn7YuZuP7zuveue4Hawtni0FD1mN1+LBhokXM38vBb8fG3U3347U5tvmeMd0gp4w0S5T3buSBETfjsZyU54TRs7N65QMDhIhiv+ODrGOJVfE7wMA8RAmADF0bnabbL53tJyaOiExYeJP08bKl/d0klzdU8ErTpigtL2uU+ikit4w4ZLLr5ZFA0bL6WIVCFjLZxRK5chesuS6W+S96dbfmcIEpXFHqZim1l0oR7qbAoXWUrCpUocJX8q63ODyuOLdlSHWcIioajVMaChN+s21K2OlS1bIo08ZKqDervLVbQA2vUMGTFkoJUv8oUJ1Gw9OpSxqmKBcJ78d6p00b408vuBxGZ1uxvUrWkm3cY/L7MA+OT9hgtV4uLq3jPCMuX7iqYWSn9NXru/mVJ7N+86dmd16TrpAS3W99u0Pj7DPMAprvbfnPi5z3M9ZTUCnbm/ZorfT08P7udRimBBrOyyXtx0lExc4+6J0yVKZmKOu/pq34/K2wyV/rjsppj6OBt4mLYeqK4iZwoTfy7z5GY47S6OOo6zXcIcduYKNh8bS5DZTOeV8hQlK1HMrzedaU2GCJfO+i7cd8RqATeT67DH+17eOvdmziiS7xbleVbY+725FMkN/H6nvA2coWsh3XnXOcfeuMKG/YaZj2s/0/Xh5i0H+yVDt83GU3Hx18DWiH9NJ7q0YVZlSGVgT8xRF3I7EUKgnCuWmQP0gEf545k+oVphgifZ9ACAOwgQA4ab/UY7UVM8EXbmKdleGeMMh6oSWufYM1I9PHRS4ZZzqRuved722GiFAfZam0QqgxjToOdtpYBvvygIAqQgTABi0lluGzZONB8/YPRMqP35RBhjLReV2dY8wdtTiXomINByijnCvlDw+Y4T85io9nlVpeK1kdR4n0+wu3WFXhACEI0wAalcTufKmQTJugdMDaV5+9zRzFABAEmECgIAlsi0xV4Klcq88xtX0jMzjcL3WyCPjuhvGzgJIjzABqD3+4XylC6ZKx2rfehPAzw1hAoAAJ0w4UXlc3t+yQobX1J0U6r3G0uS3w+3xrL75DOxxvsUy4LZmXOkBqoUwAag9KkxwbmOcP9S5w4W5HACkIkwAAAAAAACxECYAAAAAAIBYCBMAAAAAAEAshAkAAAAAACAWwgQAAAAAABALYQIAAAAAAIiFMAEAAAAAAMRCmAAAAAAAAGIhTAAAAAAAALEQJgAAAAAAgFgIEwAAAAAAQCyECQAAAAAAIBbCBAAAAAAAEAthAgAAAAAAiIUwAQAAAAAAxEKYAAAAAAAAYiFMAAAAAAAAsRAmAAAAAACAWAgTAAAAAABALIQJAAAAAAAgFsIEAAAAAAAQC2ECAAAAAACIhTABAAAAAADEQpgAAAAAAABiIUwAAAAAAACxECYAAAAAAIBYCBMAAAAAAEAshAkAAAAAACAWwgQAAAAAABALYQIAAAAAAIiFMAEAAAAAAMRCmAAAAAAAAGIhTAAAAAAAALEQJgAAAAAAgFgIEwAAAAAAQCyECQAAAAAAIBbCBAAAAAAAEAthAgAAAAAAiIUwAQAAAAAAxEKYAAAAAAAAYgY2ikQAAAswSURBVCFMAAAAAAAAsRAmAAAAAACAWAgTAAAAAABALIQJAAAAAAAgFsIEAAAAAAAQC2ECAAAAAACIhTABAAAAAADEQpgAAAAAAABiIUwAAAAAAACxECYAAAAAAIBYCBOAhAdl9affStWpr6W8tI9hed2U88JhOXH6jHyxY4l0NSwHAAAAgJpGmFAvdJSKhyeL5HQ0LDu/xvYdK6K2JWGsbM4yl609D8q6z7+XqtN75THj8hC5ZfLJafU8y+4l5jK1Rm/z52WSY1wexn2v1Xi/F5OWj0r26r9L0dazMnOXaCelV7ahbEaF0qvMXYdWtkWuMZYFAAAAYEKYUC8QJvhVM0yo0Z4J3kZ+Ou42VjdM+Bn0TGg0W/q94Q0RXIQJAAAAwIVCmFAv1J0wwcsJFi6mMKEmnb8wob5rMOaAFFsN/qkvb5IbW9xqLFN9OlggTAAAAABiIUyoFwgT/OpCmBCUaZsIE8JcU3JSZu76Ue4eYV5+bggTAAAAgOogTKgXkmHCDU3ayubcB+X/ZqohBhPlX/n3yIqrr0x9zr83k2fuGS2ni4uc4QgzJ8h3VtlnrmucWvbyq2Vuj+FSOW2iU1atd+J9svmmq+WGYFmPmg8T+kjeqm3y/tFvpNK+qv+tHP3iL7LhsVGS5SsX0nDvvkS2VarHT8qf1xQmn1O613pMPZ60rdTzPI+cDV9ayw/Kyrv6SNHz78v+ym/t8pVVlbJ7w6w0wwxihAnt8qR0+xE5dkqVPyPHDr0vS8a2DpS33ktgm9PP8xB139U9TpiQeUjDZV2XSy/vvAo7f5SiVw9I9rAh0sBQ3hEtTGjYd70MWv8PmbbTKmute/of/ldGLVgiTRullm3Qdr49v8OU7U7Z4q3/kFEl86WRoaxrwLIP5ItTTKIJAACAiwdhQr2gw4QJuVI5QzX2A6YNlscu95RvbJWfZihnK5SKjr9Olr38RtlcoAOHFEXy9743hgYKNRsmtJbp5Sf9jeeEYAPd0HD3BAm7lwca0LHDhCqpOGjaljOyb80I4/MihwnHj8hHX50JrNdSuUOmN/eWjxMmxNl3cbjvKZ3qrN8wp4HJqhWe56yQe01lbN/KXQPbeMp6ZQ4TGozYK1OM6xW5d0ygfPbL8kC5uWzxa5tDXsO7Hw/L6qGmMgAAAEDdQphQL+gwQZk2Sja3y5LbL28oN/yilWzRQcChO5rosk1kac4E+7F/3d9VJjZ2eiLc8IssmT8oT87a6xgoj+h1uxMqni24S+Zf3cQJDv69qUzsdp/8S5WdOUpebOpuh1/NhgmLpFxdqT++XWZld9CPdZAu45+SDR+Uyxxf2UDDvfsSKVcN9CgTK+pgIX2YoNZ9Rj7bsULy7G3pIP2X7JWj6vHj5VJgeF7kMMFe90nZvSpfbmneULJuL5YN9uNnpHy+6XmKDhZCw4Q4+y6OuhUmDH39gPTKmyZXZungoGmOtFlY5cy3sPQJT1mvzGFCu5Wqp8M/ZfDofnKZfuyyFtPk5gX/TwbkesuOkm4vq7I/yKiH58gv9XlxWYc5kr32B+vxszJqwp2e8kk5qz6mZwIAAAAuKoQJ9YIOE4rulscbB5a1vEv+qcKAEbc4f/+iixyyy94lxd7eCrZfy3O5KnzIl+0t1d+tZfsUFRjkyHPB9V56pRQPejAQVPjVbJgwRTYctRqnp05I+ZI8aWUs4/I03LvPl01HVJBwQjbNiXCHhkhhwjey73nPMAlbtizep17ziKzN8T7uihgmGAKP3msOpt2mzGFCnH1X90Qd5mCUvUXyU4IHr8xhQrMF39pBwISVa+SqkODMdvOrkqeCi6cXpQ6raLZORlvLilcu9T8OAAAAXKQIE+oFHSaYJmC8/DY54F2W1Uv+x/r7/4a2Sy1rcXsiVHRUf+v1jsuWgYayl3QcZpf9n743pC6z1GyY0FCyxm6Uj06qBrnl5EnZv+9tWTZluKFx7DbcT8gnh9WQgZPyxwURb/UYKUz4Utb5rkg77t94PHRZ5DDBNAFjhm3KHCbE2Xd1T9QwwZnX4H8TcxWE92LwyhwmXNJosvR49Se9rp9kyquHpf/UZM+DhNz9di+IlNf2em2z/Nr7HAAAAOAiRZhQL6QJE9yeCIEw4Z+DghP6OYxhQm4X6Wwoe77DBFvzQTJ+SZlsqajUExR+L5VfvSuPdfeWSzbcl5W+K19Y5SoPlkuRr0yIcwgTCjZVhS670GGCLdK+i8N9T+lUZ5iDX5Qw4QqrIR82r4HtXMIEWxtp1H+N9Fp+TCYkJnj8ToaN6Z8sM+ZA6usGESYAAACgniBMqBfCw4TOne+z50FIhAdNs+WYKlvUT6YEyiaHObgBQDt5b7pVduZ98uwvgmXdYQ5FUtHRcLcIS62ECV5W43jqpiP23QmOlZd4lvkb7l2txriaz6DyYJnc75vE0KDaYYIeSnC6QhZ3Di5T6kCY4BW67+KoK2HCndLpBdVYPysPLlwov3LnTFBqYJhDqjbSaNg78qC6s8PWvdLafVy/VtHC2YHyAAAAQP1DmFAv6DAhr7vc30RPknh5ExnRrp++u4O3QX+dbByvHiuS70Z5J2BsLs+MGOdMwDi+uwyzy14pjw93Jmv8aXw/zwSM18r8vqOcCRin3y2Pp8y94KjRMCH3ZdldsU2WTcmTLu3cxztIl6lvySeq0eprSAcb7q3l/g1OwzljoBApTKiSN0qGJraj1eCZ8ux7XzsNc2s7Ogae47iAYUKsfVf3ZA4TxkmP11SY8KPcNynHmSSxUbb8avB6GbThO2foQbXDhELp/vwxGTR1jlzV4tbE45e1mCv91PN2HZD2ibIzpN9m67Gd38l9D/vLZ9JV96A58eWec+gpAgAAAJw/hAn1gg4TjFJv33hDs17y95mmspYZufJ6M09Pg3S3kZyZLx96byOZdjsczvCJasgtcxq+RielfH62p7yp4d5HivSV+BOfbvQECpmvrn+y4UFd1g0TzOWqKq3XC20I1myYkHY7FO96Yu27uifKMAenjGrch/CGCRmHI3gDAh02GMuJTFm5VK5IlFXDLT6UItVjwVBWSbmVpDZnR/J2oNXvKQIAAACcP4QJ9cK18lCPfnIof7z8y+6JYJk5Qb7LHy4bb7raFyS4brj6Ntk9dmyy/IxCqRzZXeY2MQxZaNxGNo58QL4rVkMgnHWfHjtQnrnO6dWQVIthwqUdZPiCMtn2168T4/3VRIKfVmyT0pHu7Q5dYQ33PvLY7pP2c4/uf1EHCuceJpyoPC7vb1khwxNX/U0uYJgQa9/VPVHChEsaDZF2T3jmM9j+g4xbvUVu7vo7uXur9Xe1w4SGclnX5dJr9d+lyF23moTxjWMyqGB84laRXpd1XRM6EWRYmHBJ99Wyx/1s6nhPEQAAAEAhTABicBrxYZMsAtXVR5Z95IQJ9EwAAADAxYAwAYiBMAE1rl1vyVu1354kVA072TTLfKcVAAAAoC4hTABiIExATfIPVzkjFRsKJctQDgAAAKhrCBOAGAgTUJPs4+nUN/LFX9+XZ2cOIkgAAADARYMwAQAAAAAAxEKYAAAAAAAAYiFMAAAAAAAAsRAmAAAAAACAWAgTAAAAAABALIQJAAAAAAAgFsIEAAAAAAAQC2ECAAAAAACIhTABAAAAAADEQpgAAAAAAABiIUwAAAAAAACxECYAAAAAAIBYCBMAAAAAAEAshAkAAAAAACAWwgQAAAAAABALYQIAAAAAAIiFMAEAAAAAAMRCmAAAAAAAAGIhTAAAAAAAALEQJgAAAAAAgFgIEwAAAAAAQCyECQAAAAAAIBbCBAAAAAAAEAthAgAAAAAAiKGh/H/hBZbBuwAooAAAAABJRU5ErkJggg==;fontStyle=2" vertex="1" parent="1">
                    <mxGeometry x="90" y="140" width="1058.12" height="770" as="geometry"/>
                </mxCell>
                <mxCell id="3" style="edgeStyle=none;html=1;strokeWidth=4;fillColor=#e51400;strokeColor=#B20000;" edge="1" parent="1" source="4">
                    <mxGeometry relative="1" as="geometry">
                        <mxPoint x="1280" y="360" as="targetPoint"/>
                    </mxGeometry>
                </mxCell>
                <mxCell id="4" value="" style="ellipse;whiteSpace=wrap;html=1;fillColor=none;fontColor=#ffffff;strokeColor=#B20000;strokeWidth=4;" vertex="1" parent="1">
                    <mxGeometry x="150" y="300" width="650" height="130" as="geometry"/>
                </mxCell>
                <mxCell id="5" style="edgeStyle=none;html=1;fontSize=40;strokeWidth=4;fillColor=#e51400;strokeColor=#B20000;" edge="1" parent="1" source="6">
                    <mxGeometry relative="1" as="geometry">
                        <mxPoint x="1290" y="699" as="targetPoint"/>
                    </mxGeometry>
                </mxCell>
                <mxCell id="6" value="" style="ellipse;whiteSpace=wrap;html=1;fillColor=none;fontColor=#ffffff;strokeColor=#B20000;strokeWidth=4;" vertex="1" parent="1">
                    <mxGeometry x="170" y="630" width="750" height="130" as="geometry"/>
                </mxCell>
            </root>
        </mxGraphModel>
    </diagram>
</mxfile>